<?xml version="1.0" encoding="UTF-8" standalone="no"?>
<!-- Created with Inkscape (http://www.inkscape.org/) -->
<svg
   xmlns:dc="http://purl.org/dc/elements/1.1/"
   xmlns:cc="http://creativecommons.org/ns#"
   xmlns:rdf="http://www.w3.org/1999/02/22-rdf-syntax-ns#"
   xmlns:svg="http://www.w3.org/2000/svg"
   xmlns="http://www.w3.org/2000/svg"
   xmlns:sodipodi="http://sodipodi.sourceforge.net/DTD/sodipodi-0.dtd"
   xmlns:inkscape="http://www.inkscape.org/namespaces/inkscape"
   id="svg740"
   sodipodi:version="0.32"
   inkscape:version="0.46"
   width="210mm"
   height="297mm"
   sodipodi:docname="add_light.svg"
   inkscape:output_extension="org.inkscape.output.svg.inkscape">
  <metadata
     id="metadata745">
    <rdf:RDF>
      <cc:Work
         rdf:about="">
        <dc:format>image/svg+xml</dc:format>
        <dc:type
           rdf:resource="http://purl.org/dc/dcmitype/StillImage" />
      </cc:Work>
    </rdf:RDF>
  </metadata>
  <defs
     id="defs743">
    <inkscape:perspective
       sodipodi:type="inkscape:persp3d"
       inkscape:vp_x="0 : 526.18109 : 1"
       inkscape:vp_y="0 : 1000 : 0"
       inkscape:vp_z="744.09448 : 526.18109 : 1"
       inkscape:persp3d-origin="372.04724 : 350.78739 : 1"
       id="perspective747" />
  </defs>
  <sodipodi:namedview
     inkscape:window-height="705"
     inkscape:window-width="641"
     inkscape:pageshadow="2"
     inkscape:pageopacity="0.0"
     guidetolerance="10.0"
     gridtolerance="10.0"
     objecttolerance="10.0"
     borderopacity="1.0"
     bordercolor="#666666"
     pagecolor="#ffffff"
     id="base"
     showgrid="false"
     inkscape:zoom="0.46942014"
     inkscape:cx="372.04724"
     inkscape:cy="526.18109"
     inkscape:window-x="0"
     inkscape:window-y="27"
     inkscape:current-layer="svg740" />
  <g
     id="Add_Light"
     transform="translate(-101.63765,-658.28531)">
    <rect
       ry="3.4032497"
       rx="3.4032497"
       y="660.36316"
       x="102.16556"
       height="64"
       width="64"
       id="rect3796"
       style="fill:#dcf7fa;fill-opacity:1;fill-rule:evenodd;stroke:none" />
    <path
       style="fill:#464e4f;fill-opacity:1;fill-rule:evenodd;stroke:none"
       d="M 134.17776,668.73 C 121.67377,668.73 111.53056,678.87321 111.53056,691.3772 C 111.53056,703.88119 121.67377,714 134.17776,714 C 146.68175,714 156.80056,703.88119 156.80056,691.3772 C 156.80056,678.87321 146.68175,668.73 134.17776,668.73 z M 130.19986,674.24537 L 138.42411,674.24537 C 139.89649,674.24537 141.05978,675.7981 141.05978,677.71079 L 141.05978,684.88565 L 148.25905,684.88565 C 150.17173,684.88565 151.70006,686.07334 151.70006,687.54573 L 151.70006,695.74557 C 151.70006,697.21795 150.17173,698.40564 148.25905,698.40564 L 141.05978,698.40564 L 141.05978,705.58051 C 141.05978,707.4932 139.89649,709.04592 138.42411,709.04592 L 130.19986,709.04592 C 128.72748,709.04592 127.53979,707.4932 127.53979,705.58051 L 127.53979,698.40564 L 120.36492,698.40564 C 118.45223,698.40564 116.89951,697.21795 116.89951,695.74557 L 116.89951,687.54573 C 116.89951,686.07334 118.45223,684.88565 120.36492,684.88565 L 127.53979,684.88565 L 127.53979,677.71079 C 127.53979,675.7981 128.72748,674.24537 130.19986,674.24537 z"
       id="path3798"
       inkscape:connector-curvature="0" />
  </g>
</svg>
