<?xml version="1.0" encoding="UTF-8" standalone="no"?>
<!-- Created with Inkscape (http://www.inkscape.org/) -->
<svg
   xmlns:dc="http://purl.org/dc/elements/1.1/"
   xmlns:cc="http://creativecommons.org/ns#"
   xmlns:rdf="http://www.w3.org/1999/02/22-rdf-syntax-ns#"
   xmlns:svg="http://www.w3.org/2000/svg"
   xmlns="http://www.w3.org/2000/svg"
   xmlns:sodipodi="http://sodipodi.sourceforge.net/DTD/sodipodi-0.dtd"
   xmlns:inkscape="http://www.inkscape.org/namespaces/inkscape"
   id="svg116"
   sodipodi:version="0.32"
   inkscape:version="0.46"
   width="210mm"
   height="297mm"
   sodipodi:docname="copy_dark.svg"
   inkscape:output_extension="org.inkscape.output.svg.inkscape">
  <metadata
     id="metadata121">
    <rdf:RDF>
      <cc:Work
         rdf:about="">
        <dc:format>image/svg+xml</dc:format>
        <dc:type
           rdf:resource="http://purl.org/dc/dcmitype/StillImage" />
      </cc:Work>
    </rdf:RDF>
  </metadata>
  <defs
     id="defs119">
    <inkscape:perspective
       sodipodi:type="inkscape:persp3d"
       inkscape:vp_x="0 : 526.18109 : 1"
       inkscape:vp_y="0 : 1000 : 0"
       inkscape:vp_z="744.09448 : 526.18109 : 1"
       inkscape:persp3d-origin="372.04724 : 350.78739 : 1"
       id="perspective123" />
  </defs>
  <sodipodi:namedview
     inkscape:window-height="705"
     inkscape:window-width="641"
     inkscape:pageshadow="2"
     inkscape:pageopacity="0.0"
     guidetolerance="10.0"
     gridtolerance="10.0"
     objecttolerance="10.0"
     borderopacity="1.0"
     bordercolor="#666666"
     pagecolor="#ffffff"
     id="base"
     showgrid="false"
     inkscape:zoom="0.46942014"
     inkscape:cx="372.04724"
     inkscape:cy="526.18109"
     inkscape:window-x="1"
     inkscape:window-y="61"
     inkscape:current-layer="svg116" />
  <g
     id="Copy_Dark"
     transform="translate(-102.67995,-512.04451)">
    <rect
       style="fill:#464e4f;fill-opacity:1;fill-rule:evenodd;stroke:none"
       id="rect3714"
       width="64"
       height="64"
       x="102.16556"
       y="513.99207"
       rx="3.4032497"
       ry="3.4032497" />
    <path
       inkscape:connector-curvature="0"
       id="path3710"
       d="M 113.72405,570.88518 C 113.25069,570.81118 112.81398,570.59031 112.46448,570.24739 C 112.05709,569.84762 111.83208,569.36801 111.77638,568.78062 C 111.74828,568.48388 111.74838,531.34222 111.7766,531.05273 C 111.873,530.06105 112.5404,529.27747 113.51739,529.00885 L 113.71822,528.95355 L 115.65487,528.94555 L 117.59152,528.93755 L 117.59652,546.42082 L 117.60152,563.90402 L 117.65792,564.1083 C 117.72542,564.35294 117.88619,564.69788 118.02117,564.88768 C 118.38591,565.4007 119.00055,565.7662 119.63135,565.84533 C 119.74696,565.86013 124.39914,565.86633 134.057,565.86633 L 148.312,565.86633 L 148.303,567.3669 C 148.295,568.65353 148.2891,568.88959 148.2601,569.02262 C 148.15705,569.49475 147.96974,569.85449 147.65669,570.18168 C 147.3759,570.47506 147.07878,570.66658 146.71605,570.78776 C 146.30967,570.92359 147.71962,570.91315 130.01126,570.91113 C 116.55878,570.91113 113.87489,570.90313 113.72371,570.88073 L 113.72405,570.88518 z M 121.92458,563.01361 C 121.21408,562.87218 120.61271,562.42022 120.29523,561.78898 C 120.18739,561.57457 120.1143,561.35517 120.07429,561.1258 C 120.04569,560.96194 120.04239,558.95512 120.04239,542.05652 C 120.04239,523.53997 120.04316,523.16637 120.08209,522.96707 C 120.14779,522.63092 120.23772,522.40919 120.42601,522.11892 C 120.79096,521.55637 121.42486,521.16921 122.10545,521.09336 C 122.2434,521.07776 124.82145,521.07156 130.49885,521.07156 L 138.69314,521.07156 L 138.69314,527.78765 C 138.69314,535.12463 138.68514,534.6574 138.80965,535.02688 C 138.92919,535.38296 139.1179,535.68484 139.38851,535.95276 C 139.70188,536.26296 140.05916,536.45767 140.5416,536.58119 C 140.66614,536.61309 141.29315,536.61619 148.62619,536.62169 L 156.57578,536.62969 L 156.56978,548.84698 C 156.56478,560.2373 156.56178,561.07376 156.52858,561.20375 C 156.37841,561.80002 156.08919,562.25338 155.64203,562.59334 C 155.46325,562.72917 155.09825,562.90768 154.85173,562.97972 L 154.65442,563.03732 L 138.36094,563.03732 C 124.64921,563.03732 122.04484,563.03732 121.92468,563.01242 L 121.92458,563.01361 z M 142.30384,535.04806 C 141.48186,534.95206 140.75424,534.40389 140.43684,533.64149 C 140.40074,533.55479 140.34644,533.39436 140.31622,533.28502 L 140.26122,533.08618 L 140.25622,527.08623 C 140.25122,521.38721 140.25222,521.08775 140.28682,521.11509 C 140.36612,521.17819 156.46523,534.97438 156.51315,535.02033 L 156.56465,535.06943 L 149.50359,535.06943 C 145.61999,535.06943 142.38033,535.05933 142.30434,535.05073 L 142.30384,535.04806 z"
       style="fill:#dcf7fa;fill-opacity:1" />
  </g>
</svg>
