<?xml version="1.0" encoding="UTF-8" standalone="no"?>
<!-- Created with Inkscape (http://www.inkscape.org/) -->
<svg
   xmlns:dc="http://purl.org/dc/elements/1.1/"
   xmlns:cc="http://creativecommons.org/ns#"
   xmlns:rdf="http://www.w3.org/1999/02/22-rdf-syntax-ns#"
   xmlns:svg="http://www.w3.org/2000/svg"
   xmlns="http://www.w3.org/2000/svg"
   xmlns:sodipodi="http://sodipodi.sourceforge.net/DTD/sodipodi-0.dtd"
   xmlns:inkscape="http://www.inkscape.org/namespaces/inkscape"
   id="svg116"
   sodipodi:version="0.32"
   inkscape:version="0.46"
   width="210mm"
   height="297mm"
   sodipodi:docname="edit_light.svg"
   inkscape:output_extension="org.inkscape.output.svg.inkscape">
  <metadata
     id="metadata121">
    <rdf:RDF>
      <cc:Work
         rdf:about="">
        <dc:format>image/svg+xml</dc:format>
        <dc:type
           rdf:resource="http://purl.org/dc/dcmitype/StillImage" />
      </cc:Work>
    </rdf:RDF>
  </metadata>
  <defs
     id="defs119">
    <inkscape:perspective
       sodipodi:type="inkscape:persp3d"
       inkscape:vp_x="0 : 526.18109 : 1"
       inkscape:vp_y="0 : 1000 : 0"
       inkscape:vp_z="744.09448 : 526.18109 : 1"
       inkscape:persp3d-origin="372.04724 : 350.78739 : 1"
       id="perspective123" />
  </defs>
  <sodipodi:namedview
     inkscape:window-height="705"
     inkscape:window-width="641"
     inkscape:pageshadow="2"
     inkscape:pageopacity="0.0"
     guidetolerance="10.0"
     gridtolerance="10.0"
     objecttolerance="10.0"
     borderopacity="1.0"
     bordercolor="#666666"
     pagecolor="#ffffff"
     id="base"
     showgrid="false"
     inkscape:zoom="0.46942014"
     inkscape:cx="372.04724"
     inkscape:cy="526.18109"
     inkscape:window-x="0"
     inkscape:window-y="27"
     inkscape:current-layer="svg116" />
  <g
     id="Edit_Light"
     transform="translate(-186.69597,-125.32913)">
    <rect
       style="fill:#dcf7fa;fill-opacity:1;fill-rule:evenodd;stroke:none"
       id="rect3126"
       width="64"
       height="64"
       x="184.52"
       y="125.28345"
       rx="3.4032497"
       ry="3.4032497" />
    <path
       style="fill:#464e4f;fill-opacity:1"
       d="M 189.33294,183.95164 C 189.33094,183.44353 189.57614,182.42058 190.75228,178.01697 L 192.17338,172.69625 L 212.65089,152.2044 C 227.16932,137.67581 233.30379,131.59497 233.73112,131.30849 C 234.54351,130.76386 235.33374,130.41004 236.28937,130.16305 C 237.03262,129.97094 237.14372,129.9646 237.95953,130.06765 C 238.92864,130.19005 239.93413,130.54731 240.61488,131.01112 C 241.23936,131.43659 242.23973,132.42138 242.63057,132.99542 C 243.37113,134.08312 243.61628,134.76575 243.69489,135.95911 C 243.79079,137.4154 243.32149,138.8126 242.27685,140.18068 C 242.02858,140.50583 232.5825,150.01228 221.28558,161.30612 L 200.74573,181.84037 L 195.66778,183.20297 C 191.44216,184.33686 190.4845,184.56557 189.96226,184.56557 L 189.33469,184.56557 L 189.33269,183.95165 L 189.33294,183.95164 z M 196.83829,180.72412 C 198.38903,180.31071 199.55549,179.95999 199.43043,179.94475 C 198.15544,179.78936 197.4257,178.90198 197.27634,177.32531 L 197.22374,176.77008 L 196.61629,176.77608 C 196.11713,176.78008 195.93558,176.73868 195.59785,176.54079 C 194.98159,176.17963 194.28042,175.01402 194.1826,174.18809 C 194.1533,173.94064 194.1107,173.75675 194.0881,173.77945 C 194.0654,173.80215 193.68956,175.15383 193.2529,176.78319 L 192.45894,179.74569 L 193.19218,180.60966 C 193.59546,181.08484 193.94643,181.47421 193.97211,181.47493 C 193.99771,181.47566 195.28759,181.13799 196.83833,180.72457 L 196.83829,180.72412 z M 220.74042,158.84548 C 239.79669,139.79643 241.14774,138.41376 241.28397,137.82113 C 241.30567,137.72663 241.18717,137.67104 240.85937,137.62229 C 240.60925,137.58509 240.03835,137.36598 239.59069,137.13539 L 238.77678,136.71615 L 235.77068,139.70802 C 233.00013,142.46545 201.61285,173.39868 199.39991,175.55266 C 198.30642,176.617 198.23711,176.76967 198.4286,177.69208 C 198.63101,178.66712 199.17312,178.9848 200.33996,178.81217 L 200.8402,178.73817 L 220.74042,158.84549 L 220.74042,158.84548 z M 197.35925,175.53967 C 197.63741,175.46017 201.3009,171.89086 217.75442,155.66909 L 237.81053,135.89547 L 237.22829,135.18014 C 236.56939,134.37064 236.24292,133.84524 235.93617,133.10069 C 235.8141,132.80439 235.67589,132.59875 235.61034,132.61588 C 235.00875,132.77316 233.41636,134.33025 214.9606,152.80784 C 201.68117,166.10298 195.61043,172.24002 195.61043,172.36935 C 195.61043,172.47299 195.52423,172.87216 195.41876,173.25642 C 195.19301,174.07928 195.24885,174.40133 195.75019,175.16791 C 196.13914,175.76264 196.38279,175.81894 197.35925,175.53967 L 197.35925,175.53967 z"
       id="path3128"
       inkscape:connector-curvature="0" />
  </g>
</svg>
