<?xml version="1.0" encoding="UTF-8" standalone="no"?>
<!-- Created with Inkscape (http://www.inkscape.org/) -->
<svg
   xmlns:dc="http://purl.org/dc/elements/1.1/"
   xmlns:cc="http://creativecommons.org/ns#"
   xmlns:rdf="http://www.w3.org/1999/02/22-rdf-syntax-ns#"
   xmlns:svg="http://www.w3.org/2000/svg"
   xmlns="http://www.w3.org/2000/svg"
   xmlns:sodipodi="http://sodipodi.sourceforge.net/DTD/sodipodi-0.dtd"
   xmlns:inkscape="http://www.inkscape.org/namespaces/inkscape"
   id="svg116"
   sodipodi:version="0.32"
   inkscape:version="0.46"
   width="210mm"
   height="297mm"
   sodipodi:docname="edit_dark.svg"
   inkscape:output_extension="org.inkscape.output.svg.inkscape">
  <metadata
     id="metadata121">
    <rdf:RDF>
      <cc:Work
         rdf:about="">
        <dc:format>image/svg+xml</dc:format>
        <dc:type
           rdf:resource="http://purl.org/dc/dcmitype/StillImage" />
      </cc:Work>
    </rdf:RDF>
  </metadata>
  <defs
     id="defs119">
    <inkscape:perspective
       sodipodi:type="inkscape:persp3d"
       inkscape:vp_x="0 : 526.18109 : 1"
       inkscape:vp_y="0 : 1000 : 0"
       inkscape:vp_z="744.09448 : 526.18109 : 1"
       inkscape:persp3d-origin="372.04724 : 350.78739 : 1"
       id="perspective123" />
  </defs>
  <sodipodi:namedview
     inkscape:window-height="705"
     inkscape:window-width="641"
     inkscape:pageshadow="2"
     inkscape:pageopacity="0.0"
     guidetolerance="10.0"
     gridtolerance="10.0"
     objecttolerance="10.0"
     borderopacity="1.0"
     bordercolor="#666666"
     pagecolor="#ffffff"
     id="base"
     showgrid="false"
     inkscape:zoom="0.46942014"
     inkscape:cx="372.04724"
     inkscape:cy="526.18109"
     inkscape:window-x="1"
     inkscape:window-y="61"
     inkscape:current-layer="svg116" />
  <g
     id="Edit_Dark"
     transform="translate(-100.08095,-127.45942)">
    <rect
       ry="3.4032497"
       rx="3.4032497"
       y="125.28345"
       x="102.16556"
       height="64"
       width="64"
       id="rect3076"
       style="fill:#464e4f;fill-opacity:1;fill-rule:evenodd;stroke:none" />
    <path
       inkscape:connector-curvature="0"
       id="path3124"
       d="M 106.9785,183.95164 C 106.9765,183.44353 107.2217,182.42058 108.39784,178.01697 L 109.81894,172.69625 L 130.29645,152.2044 C 144.81488,137.67581 150.94935,131.59497 151.37668,131.30849 C 152.18907,130.76386 152.9793,130.41004 153.93493,130.16305 C 154.67818,129.97094 154.78928,129.9646 155.60509,130.06765 C 156.5742,130.19005 157.57969,130.54731 158.26044,131.01112 C 158.88492,131.43659 159.88529,132.42138 160.27613,132.99542 C 161.01669,134.08312 161.26184,134.76575 161.34045,135.95911 C 161.43635,137.4154 160.96705,138.8126 159.92241,140.18068 C 159.67414,140.50583 150.22806,150.01228 138.93114,161.30612 L 118.39129,181.84037 L 113.31334,183.20297 C 109.08772,184.33686 108.13006,184.56557 107.60782,184.56557 L 106.98025,184.56557 L 106.97825,183.95165 L 106.9785,183.95164 z M 114.48385,180.72412 C 116.03459,180.31071 117.20105,179.95999 117.07599,179.94475 C 115.801,179.78936 115.07126,178.90198 114.9219,177.32531 L 114.8693,176.77008 L 114.26185,176.77608 C 113.76269,176.78008 113.58114,176.73868 113.24341,176.54079 C 112.62715,176.17963 111.92598,175.01402 111.82816,174.18809 C 111.79886,173.94064 111.75626,173.75675 111.73366,173.77945 C 111.71096,173.80215 111.33512,175.15383 110.89846,176.78319 L 110.1045,179.74569 L 110.83774,180.60966 C 111.24102,181.08484 111.59199,181.47421 111.61767,181.47493 C 111.64327,181.47566 112.93315,181.13799 114.48389,180.72457 L 114.48385,180.72412 z M 138.38598,158.84548 C 157.44225,139.79643 158.7933,138.41376 158.92953,137.82113 C 158.95123,137.72663 158.83273,137.67104 158.50493,137.62229 C 158.25481,137.58509 157.68391,137.36598 157.23625,137.13539 L 156.42234,136.71615 L 153.41624,139.70802 C 150.64569,142.46545 119.25841,173.39868 117.04547,175.55266 C 115.95198,176.617 115.88267,176.76967 116.07416,177.69208 C 116.27657,178.66712 116.81868,178.9848 117.98552,178.81217 L 118.48576,178.73817 L 138.38598,158.84549 L 138.38598,158.84548 z M 115.00481,175.53967 C 115.28297,175.46017 118.94646,171.89086 135.39998,155.66909 L 155.45609,135.89547 L 154.87385,135.18014 C 154.21495,134.37064 153.88848,133.84524 153.58173,133.10069 C 153.45966,132.80439 153.32145,132.59875 153.2559,132.61588 C 152.65431,132.77316 151.06192,134.33025 132.60616,152.80784 C 119.32673,166.10298 113.25599,172.24002 113.25599,172.36935 C 113.25599,172.47299 113.16979,172.87216 113.06432,173.25642 C 112.83857,174.07928 112.89441,174.40133 113.39575,175.16791 C 113.7847,175.76264 114.02835,175.81894 115.00481,175.53967 L 115.00481,175.53967 z"
       style="fill:#dcf7fa;fill-opacity:1" />
  </g>
</svg>
