<?xml version="1.0" encoding="UTF-8" standalone="no"?>
<!-- Created with Inkscape (http://www.inkscape.org/) -->
<svg
   xmlns:dc="http://purl.org/dc/elements/1.1/"
   xmlns:cc="http://creativecommons.org/ns#"
   xmlns:rdf="http://www.w3.org/1999/02/22-rdf-syntax-ns#"
   xmlns:svg="http://www.w3.org/2000/svg"
   xmlns="http://www.w3.org/2000/svg"
   xmlns:sodipodi="http://sodipodi.sourceforge.net/DTD/sodipodi-0.dtd"
   xmlns:inkscape="http://www.inkscape.org/namespaces/inkscape"
   id="svg932"
   sodipodi:version="0.32"
   inkscape:version="0.46"
   width="210mm"
   height="297mm"
   sodipodi:docname="class_light.svg"
   inkscape:output_extension="org.inkscape.output.svg.inkscape">
  <metadata
     id="metadata937">
    <rdf:RDF>
      <cc:Work
         rdf:about="">
        <dc:format>image/svg+xml</dc:format>
        <dc:type
           rdf:resource="http://purl.org/dc/dcmitype/StillImage" />
      </cc:Work>
    </rdf:RDF>
  </metadata>
  <defs
     id="defs935">
    <inkscape:perspective
       sodipodi:type="inkscape:persp3d"
       inkscape:vp_x="0 : 526.18109 : 1"
       inkscape:vp_y="0 : 1000 : 0"
       inkscape:vp_z="744.09448 : 526.18109 : 1"
       inkscape:persp3d-origin="372.04724 : 350.78739 : 1"
       id="perspective939" />
  </defs>
  <sodipodi:namedview
     inkscape:window-height="705"
     inkscape:window-width="641"
     inkscape:pageshadow="2"
     inkscape:pageopacity="0.0"
     guidetolerance="10.0"
     gridtolerance="10.0"
     objecttolerance="10.0"
     borderopacity="1.0"
     bordercolor="#666666"
     pagecolor="#ffffff"
     id="base"
     showgrid="false"
     inkscape:zoom="0.46942014"
     inkscape:cx="372.04724"
     inkscape:cy="526.18109"
     inkscape:window-x="0"
     inkscape:window-y="27"
     inkscape:current-layer="svg932" />
  <g
     id="Class_Light"
     transform="translate(-101.85254,-886.21121)">
    <rect
       style="fill:#dcf7fa;fill-opacity:1;fill-rule:evenodd;stroke:none"
       id="rect3217"
       width="64"
       height="64"
       x="102.16556"
       y="885.50732"
       rx="3.4032497"
       ry="3.4032497" />
    <path
       style="fill:#464e4f;fill-opacity:1"
       d="M 137.84948,942.23604 C 137.09849,942.22174 135.99306,942.14664 135.22021,942.05681 C 134.58959,941.98351 134.00745,941.95931 133.40656,941.98111 C 132.9263,941.99861 132.68509,942.01481 131.86649,942.08364 C 130.90382,942.16474 130.78442,942.17214 130.31033,942.18014 C 129.68743,942.19054 129.26207,942.16524 128.68045,942.08284 C 126.02198,941.70627 123.33911,940.22272 120.77363,937.71058 C 119.36756,936.33372 118.33325,935.09799 117.37156,933.64578 C 115.22924,930.41108 113.87878,926.66061 113.50235,922.90048 C 113.42485,922.12632 113.40196,921.64042 113.40183,920.76756 C 113.4017,920.02144 113.41083,919.7563 113.45503,919.1846 C 113.6915,916.1532 114.60264,913.38487 116.15724,910.97467 C 117.0179,909.64044 118.08296,908.42853 119.36366,907.32621 C 121.25745,905.69621 123.34993,904.54899 125.30641,904.06808 C 126.13293,903.86491 126.83129,903.78217 127.61616,903.79456 C 127.95164,903.80056 128.05229,903.80626 128.19057,903.83026 C 128.58258,903.89806 129.01554,904.03156 129.56562,904.25427 C 130.33413,904.56542 130.45691,904.61337 130.68241,904.69066 C 130.92387,904.77336 131.22996,904.8575 131.34547,904.87281 C 131.40447,904.88081 131.40907,904.87881 131.41607,904.84941 C 131.46997,904.61269 131.65915,903.48273 131.73799,902.92986 C 131.81649,902.37906 131.93831,901.35345 131.92683,901.3395 C 131.92683,901.3395 131.85813,901.3667 131.77771,901.4044 C 130.79759,901.86351 129.59982,902.26161 128.77615,902.4021 C 128.4347,902.4605 128.29155,902.47 127.78143,902.4697 C 127.26659,902.46931 127.11617,902.458 126.70158,902.3881 C 125.11265,902.12029 123.55798,901.19072 122.16073,899.67304 C 121.91012,899.40089 121.77677,899.2458 121.26017,898.62634 C 121.02345,898.34251 120.7559,898.02571 120.66551,897.9224 C 119.90894,897.05772 119.2974,896.52289 118.65932,896.16819 C 118.21443,895.92083 117.7051,895.75749 117.23989,895.71285 L 117.06799,895.69665 L 117.15269,895.66805 C 117.26249,895.63105 117.37073,895.57555 117.66897,895.40388 C 117.99122,895.21842 118.43248,895.02576 119.02319,894.81252 C 119.89111,894.49923 120.83606,894.30014 121.87893,894.21092 C 122.18587,894.18492 123.02842,894.18882 123.32101,894.21792 C 124.44117,894.32954 125.40831,894.61967 126.52905,895.18013 C 126.8476,895.33951 127.01963,895.43652 127.2522,895.58824 C 127.75134,895.9138 128.18521,896.27284 128.69448,896.78178 C 129.33015,897.41694 129.93124,898.14139 130.56504,899.03611 C 130.76399,899.31696 130.86289,899.42273 131.2464,899.76465 C 131.44509,899.9418 131.80252,900.24465 131.9419,900.35399 L 131.9971,900.39749 L 132.0051,900.32719 C 132.0466,899.96483 132.0479,898.5025 132.0051,897.95618 C 131.9339,896.99819 131.80569,896.29088 131.58226,895.62204 C 131.39109,895.04963 131.16897,894.62122 130.87754,894.26276 C 130.70915,894.05556 130.70986,894.05679 130.70999,893.98009 C 130.71019,893.89709 130.74829,893.81008 130.83588,893.69451 C 131.02602,893.44305 131.55598,893.05253 131.99374,892.84125 C 132.13014,892.77545 132.14442,892.77145 132.23916,892.77245 C 132.35551,892.77245 132.54688,892.82175 132.68665,892.88439 C 132.94018,892.99859 133.19832,893.22682 133.37839,893.49605 C 133.48748,893.65925 133.63303,893.94886 133.70817,894.15243 C 134.01835,894.99225 134.16423,896.31273 134.11816,897.86234 C 134.08956,898.81994 134.03486,899.54484 133.88922,900.89413 C 133.85292,901.22981 133.79862,901.76705 133.76846,902.088 C 133.64964,903.3539 133.57878,904.0143 133.52816,904.32831 C 133.52216,904.36851 133.51776,904.40391 133.52016,904.40621 C 133.52016,904.40621 133.69413,904.32531 133.90204,904.22127 C 135.03005,903.65697 135.3061,903.55516 136.17642,903.38229 C 137.00054,903.21857 137.71844,903.15478 138.73191,903.1551 C 139.52767,903.1553 140.02312,903.185 140.74419,903.2758 C 142.4315,903.48813 144.3007,904.10226 146.17048,905.05856 C 147.52217,905.74998 148.59281,906.47047 149.55061,907.33327 C 152.62114,910.09933 154.41876,913.66966 154.83569,917.83036 C 154.94484,918.9195 154.95898,920.13115 154.87589,921.2981 C 154.55721,925.78826 152.8211,930.6884 149.94252,935.22275 C 149.11262,936.52993 148.33347,937.57487 147.55685,938.42216 C 147.33265,938.66674 146.80418,939.19249 146.58861,939.38541 C 144.76023,941.02126 142.73594,941.89697 140.18045,942.15757 C 139.46068,942.23097 138.77653,942.25417 137.84624,942.23677 L 137.84948,942.23604 z"
       id="path3219"
       inkscape:connector-curvature="0" />
  </g>
</svg>
