<?xml version="1.0" encoding="UTF-8" standalone="no"?>
<!-- Created with Inkscape (http://www.inkscape.org/) -->
<svg
   xmlns:dc="http://purl.org/dc/elements/1.1/"
   xmlns:cc="http://creativecommons.org/ns#"
   xmlns:rdf="http://www.w3.org/1999/02/22-rdf-syntax-ns#"
   xmlns:svg="http://www.w3.org/2000/svg"
   xmlns="http://www.w3.org/2000/svg"
   xmlns:sodipodi="http://sodipodi.sourceforge.net/DTD/sodipodi-0.dtd"
   xmlns:inkscape="http://www.inkscape.org/namespaces/inkscape"
   id="svg868"
   sodipodi:version="0.32"
   inkscape:version="0.46"
   width="210mm"
   height="297mm"
   sodipodi:docname="people_light.svg"
   inkscape:output_extension="org.inkscape.output.svg.inkscape">
  <metadata
     id="metadata873">
    <rdf:RDF>
      <cc:Work
         rdf:about="">
        <dc:format>image/svg+xml</dc:format>
        <dc:type
           rdf:resource="http://purl.org/dc/dcmitype/StillImage" />
      </cc:Work>
    </rdf:RDF>
  </metadata>
  <defs
     id="defs871">
    <inkscape:perspective
       sodipodi:type="inkscape:persp3d"
       inkscape:vp_x="0 : 526.18109 : 1"
       inkscape:vp_y="0 : 1000 : 0"
       inkscape:vp_z="744.09448 : 526.18109 : 1"
       inkscape:persp3d-origin="372.04724 : 350.78739 : 1"
       id="perspective875" />
  </defs>
  <sodipodi:namedview
     inkscape:window-height="705"
     inkscape:window-width="641"
     inkscape:pageshadow="2"
     inkscape:pageopacity="0.0"
     guidetolerance="10.0"
     gridtolerance="10.0"
     objecttolerance="10.0"
     borderopacity="1.0"
     bordercolor="#666666"
     pagecolor="#ffffff"
     id="base"
     showgrid="false"
     inkscape:zoom="0.46942014"
     inkscape:cx="372.04724"
     inkscape:cy="526.18109"
     inkscape:window-x="0"
     inkscape:window-y="27"
     inkscape:current-layer="svg868" />
  <g
     id="Secretary_Light"
     transform="translate(-103.07081,-810.34677)">
    <rect
       ry="3.4032497"
       rx="3.4032497"
       y="812.20972"
       x="102.16556"
       height="64"
       width="64"
       id="rect3135"
       style="fill:#dcf7fa;fill-opacity:1;fill-rule:evenodd;stroke:none" />
    <path
       style="fill:#464e4f;fill-opacity:1"
       d="M 106.18192,875.60855 C 106.43895,872.15854 107.03589,868.26989 107.61051,866.30231 C 108.18446,864.33692 108.68487,863.54407 109.84126,862.76777 C 110.61091,862.25118 112.34894,861.43249 114.52367,860.56213 C 115.60913,860.12778 116.77921,859.6308 117.12385,859.4579 C 117.847,859.09503 118.77631,858.48524 119.22335,858.08032 L 119.53289,857.79986 L 119.36892,857.21547 C 118.99108,855.86881 118.88499,854.6332 119.10916,854.19018 C 119.35512,853.70406 119.61881,853.5274 120.37488,853.34206 C 121.11977,853.15944 121.99702,852.69908 122.45624,852.24966 C 122.95997,851.7568 123.18636,851.28006 123.22092,850.63935 C 123.27352,849.66397 123.29742,849.70794 122.02315,848.42959 C 121.28284,847.68693 120.91414,847.35629 120.95965,847.47602 C 121.02985,847.66083 121.52111,848.59452 121.75341,848.98481 C 121.82251,849.10096 121.86556,849.1959 121.84911,849.1959 C 121.78131,849.1959 120.48434,847.15965 120.13158,846.4995 C 119.92213,846.10746 119.63829,845.61311 119.50083,845.40079 C 118.99557,844.62065 118.67417,843.76395 118.45187,842.60489 C 118.24818,841.54297 118.32792,839.3467 118.61925,837.99443 C 118.68855,837.67307 118.82098,837.01554 118.91365,836.53337 C 119.40337,833.98543 120.44561,831.5856 122.21831,828.92432 C 122.54371,828.43576 123.01353,827.70527 123.26234,827.30088 C 123.9356,826.20681 124.7904,825.10557 125.66613,824.20411 C 127.71911,822.09096 129.42518,821.34234 132.20153,821.33639 C 132.93599,821.33639 133.10738,821.31889 133.00619,821.26019 C 132.93549,821.21899 132.61405,821.16839 132.2919,821.14728 L 131.70618,821.10878 L 132.21208,821.02908 C 132.49033,820.98528 132.82901,820.94938 132.96469,820.94938 C 133.3401,820.94938 134.1511,821.17737 134.54031,821.3924 C 134.85575,821.56661 134.96038,821.58772 135.66727,821.61934 C 137.48078,821.70084 139.16254,822.46728 140.54572,823.84338 C 142.04049,825.33045 142.76727,826.86359 144.0507,831.23704 C 145.12884,834.91101 145.40249,835.69721 146.64248,838.68274 C 147.76306,841.3808 148.33725,842.20895 149.55066,842.87733 C 149.90496,843.07248 149.92594,843.0942 149.72588,843.05846 C 149.60088,843.03566 149.44017,843.00156 149.36873,842.98226 C 149.18169,842.93056 149.26477,842.99886 149.66582,843.22585 C 150.15461,843.50227 149.82506,843.39813 149.02782,843.02422 C 148.66175,842.85246 148.36223,842.723 148.36223,842.7364 C 148.36223,842.7495 148.62028,842.93751 148.93568,843.1535 C 149.25108,843.36958 149.67042,843.69987 149.86756,843.88766 C 150.0647,844.07536 150.10616,844.12581 149.95976,843.99977 C 149.53409,843.63339 148.88121,843.1888 148.4557,842.97561 L 148.06212,842.77836 L 148.08922,843.50368 C 148.14452,844.98094 147.80404,846.14989 146.65822,848.41728 C 145.60017,850.51108 144.40117,853.26625 144.40117,853.60382 C 144.40117,853.66952 144.61414,853.93998 144.87444,854.20458 C 145.61039,854.9525 146.43871,855.32194 148.22821,855.70024 C 148.78914,855.81883 148.96753,855.87296 148.71941,855.84923 C 148.35306,855.81423 147.16166,855.65206 146.80379,855.58839 L 146.64146,855.55949 L 146.80379,855.61819 C 146.89309,855.65059 147.40012,855.81342 147.93053,855.98001 C 148.46096,856.14652 148.88335,856.29446 148.86918,856.30865 C 148.85498,856.32265 148.53791,856.23595 148.16452,856.11613 C 147.63054,855.94445 145.36228,855.4826 145.13158,855.49854 C 144.99346,855.50854 146.14374,855.91765 146.85922,856.11359 C 147.31088,856.23735 147.54893,856.3217 147.38822,856.30094 C 146.76762,856.22124 145.25884,855.86317 144.53874,855.62493 C 144.12409,855.48777 143.77356,855.38687 143.75976,855.40062 C 143.69746,855.46282 146.19886,856.5256 147.87524,857.14923 C 149.17648,857.63324 150.37181,858.01215 152.18124,858.51411 C 155.73735,859.50071 157.18819,860.21551 158.59328,861.67333 C 160.26406,863.4067 160.90249,864.83947 161.4394,868.06026 C 161.77149,870.05236 162.19132,874.36591 162.1931,875.80384 L 162.19375,876.20972 L 134.16554,876.20972 L 106.13733,876.20972 L 106.18213,875.60904 L 106.18192,875.60855 z M 122.623,848.31555 C 122.06526,847.15562 120.35367,844.30183 120.2988,844.4403 C 120.2399,844.58912 120.2345,845.07532 120.2877,845.46298 C 120.3554,845.95715 121.48191,847.5912 122.51954,848.70042 C 122.74286,848.93909 122.93944,849.12058 122.95638,849.10367 C 122.97338,849.08707 122.82333,848.73203 122.62304,848.31555 L 122.623,848.31555 z M 119.87979,843.83866 C 119.91199,843.57046 119.89109,843.46317 119.76009,843.22178 L 119.60152,842.92958 L 119.59852,843.21643 C 119.59452,843.62889 119.73115,844.36489 119.79146,844.25409 C 119.81866,844.20419 119.85826,844.01725 119.87976,843.83866 L 119.87979,843.83866 z M 149.33629,856.53369 C 149.28269,856.49869 149.26809,856.47059 149.30379,856.47059 C 149.33949,856.47059 149.41255,856.49859 149.46612,856.53369 C 149.51972,856.56869 149.53432,856.59679 149.49862,856.59679 C 149.46292,856.59679 149.38985,856.56879 149.33628,856.53369 L 149.33629,856.53369 z M 149.01161,856.40379 C 148.95801,856.36959 148.94341,856.34069 148.97911,856.34069 C 149.01481,856.34069 149.08787,856.36869 149.14144,856.40379 C 149.19504,856.43879 149.20964,856.46689 149.17394,856.46689 C 149.13824,856.46689 149.06517,856.43889 149.0116,856.40379 L 149.01161,856.40379 z"
       id="path3137"
       inkscape:connector-curvature="0" />
  </g>
</svg>
