<?xml version="1.0" encoding="UTF-8" standalone="no"?>
<!-- Created with Inkscape (http://www.inkscape.org/) -->

<svg
   xmlns:dc="http://purl.org/dc/elements/1.1/"
   xmlns:cc="http://creativecommons.org/ns#"
   xmlns:rdf="http://www.w3.org/1999/02/22-rdf-syntax-ns#"
   xmlns:svg="http://www.w3.org/2000/svg"
   xmlns="http://www.w3.org/2000/svg"
   xmlns:sodipodi="http://sodipodi.sourceforge.net/DTD/sodipodi-0.dtd"
   xmlns:inkscape="http://www.inkscape.org/namespaces/inkscape"
   id="svg2"
   version="1.1"
   inkscape:version="0.48.3.1 r9886"
   width="185"
   height="365"
   sodipodi:docname="logotipo.svg">
  <metadata
     id="metadata8">
    <rdf:RDF>
      <cc:Work
         rdf:about="">
        <dc:format>image/svg+xml</dc:format>
        <dc:type
           rdf:resource="http://purl.org/dc/dcmitype/StillImage" />
        <dc:title></dc:title>
      </cc:Work>
    </rdf:RDF>
  </metadata>
  <defs
     id="defs6" />
  <sodipodi:namedview
     pagecolor="#ffffff"
     bordercolor="#666666"
     borderopacity="1"
     objecttolerance="10"
     gridtolerance="10"
     guidetolerance="10"
     inkscape:pageopacity="0"
     inkscape:pageshadow="2"
     inkscape:window-width="1600"
     inkscape:window-height="845"
     id="namedview4"
     showgrid="false"
     showguides="true"
     inkscape:guide-bbox="true"
     inkscape:zoom="0.96260438"
     inkscape:cx="311.01539"
     inkscape:cy="149.78496"
     inkscape:window-x="0"
     inkscape:window-y="31"
     inkscape:window-maximized="1"
     inkscape:current-layer="svg2" />
  <g
     id="g4167"
     inkscape:export-filename="/home/cadunico/Ãrea de Trabalho/sistema sade/logotipo.png"
     inkscape:export-xdpi="90"
     inkscape:export-ydpi="90">
    <rect
       y="1.7764276"
       x="1.7795384"
       height="315.68146"
       width="181.44093"
       id="rect3968"
       style="fill:#dcf7fa;fill-rule:evenodd;stroke:none" />
    <rect
       style="fill:#464e4f;fill-opacity:1;fill-rule:evenodd;stroke:none"
       id="rect3983"
       width="181.44093"
       height="43.236702"
       x="1.7795384"
       y="319.98685" />
    <g
       transform="matrix(0.88653808,0,0,0.8896557,-35.180308,-2.9179644)"
       id="g3959">
      <path
         style="fill:#90a1a3;fill-opacity:1;stroke:none"
         d="m 212.25,18.8125 c -9.60327,6.064626 -18.16677,15.531088 -26.4375,22.78125 0.80748,-6.255113 -8.18757,-6.553512 -11.375,-2.875 -2.81253,1.897192 -5.09443,4.994154 -7.75,6.71875 -3.51562,-4.069181 -9.44282,-12.145521 -15.21875,-7.25 -2.55116,2.024825 -4.82564,4.389117 -7.09375,6.71875 -3.40841,-3.353477 -7.01652,-9.59224 -12.375,-8.28125 -3.77985,2.533172 -7.03261,7.568597 -10.59375,9.125 -4.43034,-4.148449 -10.22967,-11.315231 -17.125,-8.65625 -2.4852,0.715064 -1.08563,6.571773 -3.3349,3.226751 C 92.686591,33.229855 85.123882,24.773723 75.84375,19.1875 70.456525,19.098334 69.830237,26.481626 68.375,30.375 c -11.239228,43.014146 -20.559011,86.89322 -21.59375,131.5 -1.275893,3.01344 2.194443,5.36878 3.90625,5.59375 -2.144728,3.90919 3.451141,6.54897 6.46875,7.375 -3.250731,4.15516 -5.457786,9.02443 -7.78125,13.6875 -0.713254,5.24582 5.838757,7.01105 9.3125,8.09375 -2.248914,6.16189 -8.765524,12.43722 -5.78125,19.375 2.849015,2.02129 6.090142,3.29537 9.4375,4.28125 -2.935361,5.38223 -7.58995,11.61016 -6.5625,17.75 2.005124,3.00907 5.904403,3.69445 9.1875,4.34375 -2.511976,5.38966 -6.365731,11.38826 -5.5,17.3125 1.790453,3.68525 6.702333,4.45633 9.75,5.375 -2.691313,5.26329 -4.436624,11.06763 -5.65625,16.78125 0.498833,4.50965 6.241795,5.54733 9.34375,6.15625 -3.42582,4.07058 -3.312535,9.7768 -5.4375,14.46875 -0.930072,4.80776 3.890978,7.32004 7.96875,7.28125 2.117793,1.00162 8.69256,-0.41516 5.5,2.9375 -5.085765,7.52211 -8.756636,16.9635 -5.625,26.03125 0.692446,5.44705 1.192999,14.6462 8.28125,15.09375 7.111994,-0.69688 11.571103,-7.31826 15.34375,-12.5 6.70732,13.12801 25.4429,17.76181 37.34375,8.8125 3.39453,-2.21496 6.39288,-5.94082 7.9375,-9.25 6.046,13.86661 25.03856,17.96544 37.0625,9.5 3.42424,-2.25839 6.35771,-5.40277 8.0625,-9.1875 3.72043,6.20519 10.37072,14.41069 18.4375,12 6.23345,-4.36363 3.85981,-13.11131 6.375,-19.40625 1.88699,-8.68804 -4.27732,-15.81836 -7.8125,-23.0625 5.00358,-0.52432 9.83159,-1.99015 14.6875,-3.28125 -0.9893,-6.69958 -1.92663,-13.5418 -4.78125,-19.71875 4.77514,-0.29394 9.78324,-4.12821 7.40625,-9.28125 -0.97927,-4.66753 -2.59517,-9 -4.34375,-13.40625 4.85992,-0.62991 11.96556,-4.14057 9.375,-10.1875 -1.55998,-4.32167 -3.70308,-8.44686 -5.6875,-12.5625 4.73304,-0.43446 12.34261,-4.09342 9.03125,-9.875 -1.63592,-4.39642 -3.76306,-8.4907 -5.78125,-12.625 4.73569,-0.61883 11.61516,-4.54049 8.78125,-10.25 -1.4376,-4.36218 -3.66277,-9.48997 -5.15625,-13.1875 3.91599,-0.80735 11.06382,-3.2937 8.5,-8.59375 -2.67103,-4.0449 -4.95429,-9.32005 -7.34375,-12.9375 3.59574,-0.66816 6.56913,-4.68302 5.4375,-7.71875 5.97911,0.16842 4.88585,-7.56584 4.0625,-11.40625 -0.62155,-45.44847 -10.82511,-90.361645 -23.5625,-133.75 -0.73806,-1.866343 -2.59083,-3.460961 -4.71875,-3.125 z m -126.5,25.5 C 95.228926,53.517433 104.89287,62.550148 114.375,71.75 104.41443,64.777414 90.287022,65.815274 80,71.53125 c -3.522307,2.246298 -6.479452,5.170842 -9.15625,8.34375 2.850673,-13.71992 5.951341,-27.322704 9.375,-40.9375 1.84375,1.791667 3.6875,3.583333 5.53125,5.375 z m 122.34375,-2.90625 c 3.32319,12.40413 6.6168,24.912966 9.1875,37.4375 C 209.19984,67.312243 193.40133,64.08334 180.4375,67.625 c -5.13185,2.60818 -5.01969,2.028001 -0.38052,-1.980799 C 189.14247,57.046994 198.26404,48.370367 207.75,40.1875 l 0.27146,0.96245 0.0723,0.2563 z m -75.78125,12.625 c 4.29679,-0.516341 5.82092,0.641714 1.625,2.96875 -0.73316,-1.070169 -5.60582,-3.849052 -1.625,-2.96875 z m 25.4375,0.4375 c -1.26091,1.230354 -3.21729,4.865637 -4.1875,1.5 -5.85058,-2.920564 5.09456,-1.940021 4.1875,-1.5 z M 144.34375,66.8125 c 3.08842,1.468327 -3.7724,0.272375 -0.0625,0 l 0.0625,0 z M 162.15625,83 c -2.44245,4.040837 -4.5276,9.450144 -4.09375,13.6875 -0.27078,-4.369924 -2.69836,-9.890632 2.47845,-12.372594 0.13297,0.03448 2.73327,-2.849958 1.6153,-1.314906 z m -35.75,0.625 c 3.15608,2.714422 6.32939,5.686195 4.57733,10.114949 -0.23368,1.712757 -1.58895,10.030711 -1.48358,5.885051 0.32927,-5.960895 -0.60434,-12.20277 -4.15625,-17.0625 l 0.70711,0.707107 0.35539,0.355393 z m 64.75,4.71875 c 9.61854,-0.465827 14.58926,13.72886 6.375,19.09375 -6.74676,5.2382 -18.07646,-0.33074 -16.78125,-9.28125 0.22887,-5.385309 4.96184,-10.044253 10.40625,-9.8125 z m -94.375,0.0625 c 7.23715,-0.626952 12.34246,6.887542 10.375,13.59375 -1.58736,8.29375 -14.979163,10.13235 -18.90625,2.75 -4.118217,-6.682532 0.560536,-15.945001 8.53125,-16.34375 z m 47.40625,10.6875 c 0.18705,4.13191 2.67764,9.96684 2.78125,12.90625 -2.3439,0.33167 -2.91594,-3.36045 -5.46875,-2.0625 1.21246,-3.38855 2.10346,-8.11713 2.6875,-10.84375 z m -78.15625,9 c 3.383385,14.71086 18.651783,25.1225 33.625,23 7.33903,-0.10411 14.36686,-3.16106 19.5625,-8.3125 -14.31713,17.77791 -37.082866,24.81965 -58.46875,29.5 0.906804,-15.13157 2.630564,-30.12168 5.0625,-45.0625 l 0.21875,0.875 z m 157.1875,3.34375 c 1.83436,13.43948 3.56145,27.53924 3.6875,40.8125 -19.63379,-4.29656 -41.24059,-11.53457 -54.8125,-25.875 9.52767,6.83492 23.14216,7.21429 33.625,2.53125 8.18317,-4.06654 14.42996,-11.59164 17.0625,-20.3125 0.14583,0.94792 0.29167,1.89583 0.4375,2.84375 z m -94.0625,20.9375 c 0.79106,1.34461 -0.99551,-0.48576 0,0 z m 15,10.75 c 1.76638,0.59802 3.44753,0.004 1.46875,2.125 -1.00368,1.27674 -1.61683,4.276 -2.46875,1.125 -1.39005,-3.20965 -3.48786,-2.36871 1,-3.25 z M 97.875,155.5 c -0.482366,5.4043 7.38257,5.51354 9.5625,6.21875 -1.41716,0.37462 -4.66826,-0.90819 -5.9375,1.6875 -1.635521,0.89304 -3.665928,7.43682 -3.625,3.15625 -0.08999,-3.95553 -2.675581,-9.83768 -7.25,-6.65625 -2.253126,1.13438 -3.382562,4.28854 -4.34375,5.875 0.640389,-2.32644 -3.667688,-6.20794 0.6875,-6.15625 3.553498,-1.09432 7.930563,-3.16949 10.90625,-4.125 z m 93.15625,0.125 c 3.729,2.18738 9.65654,3.29455 12.375,5.40625 -1.23449,1.55155 -1.01563,6.47706 -2.25,2.75 -1.40704,-3.4183 -6.34044,-8.5373 -8.78125,-3.46875 -1.13932,2.47537 -1.62324,5.16651 -2.03125,7.84375 -1.10366,-3.7263 -5.86272,-8.85049 -9.65625,-5.46875 -3.16972,-2.17909 3.00642,-1.255 4.375,-2.21875 2.65917,-0.57997 6.05973,-1.733 5.4375,-5.09375 l 0.53125,0.25 z M 74.5,163.28125 c -0.225112,1.66094 -2.168133,-0.30557 0,0 z m 139.84375,0.34375 c -0.231,0.83674 -0.77962,-0.62328 0,0 z M 222.25,178 c -0.33836,1.96655 0.42425,6.26863 -1.5,2.5 -2.33265,-2.19569 0.21034,-2.27763 1.5,-2.5 z m -156,0.1875 c 4.333946,-0.78835 -0.856252,5.83682 0.09375,0.8125 0.0322,-0.26391 -0.405312,-0.83372 -0.09375,-0.8125 z m 78.15625,1.46875 c -0.0614,1.52828 4.50856,4.30535 1.28125,4.3125 -1.37018,0.82299 -5.19982,-0.0268 -2.59375,-1.84375 0.458,-0.78654 0.9429,-1.73663 1.3125,-2.46875 z m -23.5,0.625 c 3.57608,3.11712 -4.3363,2.04439 -0.59375,0.0312 0.2693,-0.1326 0.48733,-0.84636 0.59375,-0.0312 z m 47.25,-0.0937 c 3.4548,1.88008 -3.00652,3.12346 -0.375,0.3125 0.20193,-0.16065 0.12347,-0.82439 0.375,-0.3125 z m 42.34375,1.75 c 0.72404,5.01486 -3.72322,0.0234 0.0457,-0.27637 l 0.0168,-0.005 -0.0625,0.28125 z M 77.96875,182 c 3.73992,-1.13886 -0.459133,4.16146 0,2.4375 0.272941,-0.39317 -0.921915,-2.79696 0,-2.4375 z m 11.625,2.65625 c 3.164883,-0.66452 -0.677603,4.70087 -0.0625,0.375 0.01577,-0.18382 -0.276625,-0.53809 0.0625,-0.375 z M 198.75,184.625 c 1.64022,4.80909 -2.32445,-0.71675 0,0 z m -96.0625,1.90625 c 0.18325,4.14696 -1.0757,7.84315 -1.54186,1.13902 -1.09981,-1.73461 0.93677,-0.71084 1.54186,-1.13902 z m 84.15625,0.0937 c 0.93435,0.98387 -1.52577,7.9877 -1.03125,2.21875 0.4167,-1.48921 -1.49942,-2.53687 1.03125,-2.21875 z M 144.4375,199.1562 c 0.48687,2.54528 5.7821,6.29902 0.53125,5.875 -1.62362,-0.19001 -5.63055,-0.17342 -2.78125,-2.34375 0.85671,-1.0779 1.60797,-2.63028 2.25,-3.53125 z m 76.15625,1.09375 c -0.70954,1.43906 -0.78675,7.31451 -2.03125,3.5 -0.47826,-1.47271 -2.78162,-3.06335 0.0312,-3.09375 -0.11334,0.49032 2.45614,-1.21844 2,-0.40625 z m -101.40625,0.125 c 3.30752,2.55364 -2.34181,3.51502 -1.0625,1.46875 0.37009,-0.42753 0.7567,-1.11156 1.0625,-1.46875 z m -50.5625,0.1875 c 4.148006,-0.1153 0.626291,2.39377 0.28125,4.5 0.04156,-1.24363 -1.100223,-4.23861 -0.28125,-4.5 z m 100.9375,0.40625 c 3.13598,1.3563 -1.71181,2.77999 -1.15625,1.5 0.331,-0.48053 0.58322,-2.4619 1.15625,-1.5 z m 38.5,2.90625 c -0.82372,1.98964 -0.71549,6.63882 -2.125,2.40625 -2.06516,-2.30198 0.71393,-2.04681 2.125,-2.40625 z m -126.71875,0.25 c 4.280013,-0.47243 -0.02173,3.20269 -0.125,4.5625 0.507135,-1.06421 -2.898372,-6.46322 0.125,-4.5625 z m 114.09375,3.1875 c -0.91385,3.78608 -1.57328,5.97146 -3.25,1.09375 -1.8874,-1.55663 4.37593,-1.96761 3.25,-1.09375 z m -101.71875,-0.2187 c 2.160521,0.37692 3.774668,0.48065 1.78125,2.53125 -1.639003,4.71698 -1.748075,0.21344 -2.53125,-2.21875 l -0.1875,-0.59375 0.9375,0.28125 z m 50.40625,13 c 0.12739,2.08593 5.56298,5.57158 2.0625,5.375 -2.4283,-0.0314 -8.02115,1.15515 -4.03125,-2.15625 0.77876,-0.98857 1.35348,-2.23249 1.96875,-3.21875 z m 24.8125,1.09375 c 3.20074,2.31659 -0.68783,2.62946 -1.5,2.0625 0.52794,-0.36765 1.04336,-2.92211 1.5,-2.0625 z m 47.4375,3.5625 c -0.30691,4.5049 -1.14517,2.86087 -2.9375,-0.0312 -1.68582,-0.59714 5.58758,-3.40526 2.9375,0.0312 z m -144.25,-1.53125 c 3.317753,0.0411 2.966885,1.42583 1.1875,3.53125 -0.982374,4.12108 -1.619966,-4.13012 -1.1875,-3.53125 z m 13.375,3.25 c 4.948551,-1.36949 -0.355285,5.55036 -0.0625,3.15625 0.316463,-0.66258 -1.521758,-3.85713 0.0625,-3.15625 z m 117.875,0.3125 c -0.44197,4.10354 -1.26182,4.28872 -3.09375,0.40625 0.63466,0.0228 3.21829,-1.20623 3.09375,-0.40625 z m -13.3125,2.59375 c 0.94462,6.85254 -4.28894,-0.18276 -1.1631,-0.67934 0.52778,0.096 2.03453,-0.68793 1.1631,0.67934 z m -91.71875,-0.53125 c 3.93988,-0.65631 1.71987,2.06389 0.65625,4.1875 0.100932,1.14883 -1.663842,-4.90026 -0.65625,-4.1875 z m 18.65625,12 c 0.57658,1.79892 2.53852,4.07926 -0.78125,3.1875 -5.15999,1.43297 0.65444,-2.98339 0.78125,-3.1875 z m 54.4375,0.0937 c 1.26113,1.89037 3.73048,3.45848 0.1875,4 -2.04984,0.89844 -2.97184,-0.59087 -1.34375,-2.1875 0.44245,-0.36925 0.6823,-2.76689 1.15625,-1.8125 z m -27.03125,1.875 c 0.5041,1.57513 4.35305,4.30327 0.4375,3.625 -1.6557,-0.0213 -3.8869,-0.16 -1.96875,-1.84375 0.49387,-0.32858 1.20988,-2.40718 1.53125,-1.78125 z m 69.375,2.28125 c -0.85081,1.2875 -0.6529,8.71136 -2.125,4.375 -0.7509,-1.91476 -4.09623,-4.03647 0.0625,-4.03125 0.056,0.43368 2.51986,-1.30616 2.0625,-0.34375 z m -138.5625,0.125 c 2.408036,0.53948 4.758636,0.70484 2.25,2.8125 -2.172277,6.28011 -2.125823,-0.0913 -3.0625,-3.0625 l 0.8125,0.25 z m 124.5625,3.53125 c -0.85448,1.8588 -0.4373,6.70948 -2,2.5625 -2.43271,-2.5962 0.40531,-2.62118 2,-2.5625 z M 88.75,248.59375 c 4.47996,-1.15201 0.747823,4.67855 0.5,3.4375 0.06698,-1.02979 -0.824568,-2.97641 -0.5,-3.4375 z m 83.53125,13.375 c 1.31681,0.94514 3.1864,5.0468 0.71372,2.49736 -4.00692,1.66986 -1.15471,-1.75164 -0.71372,-2.49736 z m -56.21875,0.46875 c 2.07595,2.46893 -0.2913,2.18918 -2.25,2.59375 0.7907,-0.49102 1.72996,-2.95637 2.25,-2.59375 z m 28.3125,0 c 0.71545,1.9274 4.82044,5.42599 0.125,4.03125 -5.04878,0.62905 -0.54705,-1.89965 -0.125,-4.03125 z m 65.375,5.3125 c -0.46099,3.48076 -0.70018,5.69613 -2.46875,1.59375 -2.7256,-2.10086 2.45705,-2.43307 2.46875,-1.59375 z M 79.03125,267.40625 c 3.967661,-0.29269 2.307605,1.73769 0.90625,3.90625 -0.563434,3.55399 -1.882347,-4.66725 -0.90625,-3.90625 z m 118.1875,2.28125 c 0.0553,2.05095 0.67252,7.71489 -1.01433,3.65567 -1.71887,-3.00334 -2.98677,-4.06828 1.01433,-3.65567 z M 92.1875,269.7812 c 3.881374,-0.34109 -0.681645,3.27929 -0.9375,5.0625 0.738291,-1.29814 -1.643436,-6.29751 0.9375,-5.0625 z m 21.15625,11.375 c 0.0361,2.34541 4.37963,6.26535 0.34375,5.9375 -1.92735,1.09681 -4.20595,-1.32118 -5.53125,-1.5 1.87503,-1.53094 3.55151,-3.27832 4.9375,-5.28125 l 0.25,0.84375 z M 175.5,281.09375 c 0.60506,1.59262 4.09017,3.59258 3.78125,4.53125 -1.96111,1.52437 -5.14278,1.1342 -6.8125,1.125 1.42576,-1.21081 1.96495,-6.293 3.03125,-5.65625 z m -30.90625,2.09375 c 0.52155,1.89225 3.58595,4.54118 3,5.5 -2.1272,1.30335 -4.93404,-0.68592 -6.5,-0.65625 1.42438,-1.16952 2.61792,-5.71792 3.5,-4.84375 z m 63.59375,6.40625 c -0.48521,1.60842 -0.46392,3.38108 -1.5625,1.125 -2.58267,-1.30498 1.77065,-1.46877 1.5625,-1.125 z m -127.21875,0.0937 c 2.82765,-0.62033 -0.804083,4.49437 -0.34375,1.1875 0.01901,-0.53486 -1.230045,-2.06669 0.34375,-1.1875 z m 28.84375,11.90625 c 0.45663,2.28985 2.96075,5.57035 2.9375,6.90625 -2.4877,-0.38634 -7.61145,-0.24489 -8.21875,-1.53125 1.95155,-1.19086 4.13458,-5.29752 5.28125,-5.375 z m 68.9375,0.0625 c 1.09309,2.30411 4.67522,4.60731 4.84375,6.09375 -2.37691,1.05559 -5.59037,-0.45992 -8.28125,0.6875 1.60728,-1.94887 2.10868,-5.31014 3.4375,-6.78125 z m -34.3125,2.28125 c 0.93484,2.25645 2.48726,4.35087 3.90625,6.1875 -2.85895,-0.4647 -6.41106,1.84524 -8.15625,0.0312 1.69895,-1.63287 3.14973,-5.61735 4.25,-6.21875 z m -39.625,18.15625 c 0.71472,2.07002 2.82936,4.66874 3.375,6.15625 -2.92422,-0.83111 -6.48561,-0.10993 -9.09375,-0.0937 -3.085827,-1.25719 2.87171,-2.77938 3.47032,-4.66239 0.73375,-0.0869 1.95008,-3.34689 2.24843,-1.40011 z m 78.84375,-0.6875 c 1.88605,2.27386 4.21697,4.17981 6.75,5.71875 -3.04905,2.37596 -6.95047,0.50649 -10.5625,1.28125 1.61732,-2.09739 2.86955,-4.6512 3.8125,-7 z m -39.40625,2.375 c 0.37475,2.12102 4.02154,5.01075 3.375,6.03125 -2.34863,0.48564 -3.79444,2.4091 -5.9375,0.40625 -3.69571,-0.0473 1.50146,-3.14764 1.65625,-5.0625 0.3339,-0.16606 0.66361,-2.0477 0.90625,-1.375 z"
         id="path2993"
         inkscape:connector-curvature="0" />
      <path
         style="fill:#464e4f"
         d="m 76.158959,350.94188 c -0.59956,-2.8875 -3.56663,-15.83982 -6.59348,-28.78293 -23.17372,-99.09292 -28.49471,-158.42321 -19.50337,-217.46707 2.88864,-18.968916 12.11199,-59.576502 19.58971,-86.247467 l 2.5927,-9.2474739 13.8759,13.4974739 13.87589,13.497475 44.252221,0 44.25222,0 13.45418,-13.481928 c 7.39979,-7.415061 13.76448,-13.1525609 14.14374,-12.7499999 0.37926,0.4025599 3.84649,13.3319279 7.70496,28.7319279 14.97717,59.777226 18.32023,81.961552 18.30935,121.499992 -0.0129,47.10083 -7.82874,97.83301 -27.8463,180.75 l -3.68161,15.25 -66.668,0 -66.668011,0 -1.0901,-5.25 z m 52.302161,-1.1964 c 5.63942,-1.69722 11.01604,-6.52128 12.59267,-11.29851 1.58239,-4.79468 1.41481,-4.9053 -7.83083,-5.16923 l -5.75,-0.16414 3.47025,-1.50519 c 1.90863,-0.82786 4.31902,-2.27275 5.35641,-3.21086 2.63257,-2.38066 5.67334,-8.63324 5.67334,-11.66583 0,-2.33655 -0.35364,-2.53984 -4.41821,-2.53984 -6.91156,0 -8.23519,-0.90343 -4.35214,-2.9705 4.04597,-2.1538 8.486,-9.14368 9.35576,-14.72868 l 0.65395,-4.19917 -6.36968,-0.30083 -6.36968,-0.30082 3.60227,-2.12911 c 4.04541,-2.39103 7.77617,-9.04567 8.62684,-15.38789 l 0.53423,-3.983 -5.20287,0 -5.20287,0 3.53159,-3.33072 c 3.59169,-3.3874 5.19168,-6.41856 6.67413,-12.64402 1.0314,-4.33131 0.17455,-4.95314 -7.06332,-5.12595 -3.025,-0.0722 -4.6,-0.34696 -3.5,-0.61054 3.36576,-0.80647 8.3352,-6.35687 9.95945,-11.12377 2.71427,-7.96597 2.77834,-7.89882 -8.20945,-8.60479 -5.3625,-0.34455 -11.05012,-0.83782 -12.63915,-1.09616 l -2.88914,-0.46971 0.54204,5.97767 c 0.6083,6.70854 3.51737,12.32548 7.45086,14.38644 2.3134,1.21211 2.04676,1.28631 -3.09143,0.86021 l -5.62318,-0.46632 0,4.65595 c 0,5.61497 1.96136,10.64398 5.55142,14.23404 l 2.66147,2.66147 -5.10645,-0.60479 -5.10644,-0.60478 0.022,5.20288 c 0.0264,6.24487 2.66695,12.51031 6.60241,15.6658 l 2.87563,2.30572 -6.31549,-0.54543 c -7.47734,-0.64576 -7.84174,-0.20601 -6.23654,7.52619 1.17591,5.66432 5.65164,12.20877 9.44499,13.81054 1.31265,0.55427 -1.19186,0.65885 -6.64296,0.27737 l -8.75,-0.61234 0,2.94118 c 0,5.02635 4.70092,13.03155 9.33708,15.9001 2.28961,1.41666 3.26292,2.33909 2.16292,2.04983 -1.1,-0.28925 -5.375,-0.62438 -9.5,-0.74473 l -7.5,-0.21882 -0.29711,2.95594 c -0.53947,5.3671 5.49499,12.09944 13.35493,14.89942 5.08898,1.81286 8.02653,1.82251 13.93034,0.0457 z m 45.08034,-0.0672 c 4.89349,-1.50195 7.19586,-3.04506 10.81053,-7.24548 2.26099,-2.62739 3.90486,-10.20592 2.2367,-10.31154 -0.61365,-0.0388 -4.71573,-0.008 -9.11573,0.0696 l -8,0.14024 3.42552,-2.31961 c 4.16824,-2.82255 8.07448,-9.89265 8.07448,-14.61441 l 0,-3.48024 -8.75,0.65458 c -8.62412,0.64516 -8.70262,0.63065 -5.45665,-1.00838 4.67626,-2.36125 8.40366,-9.16896 8.5716,-15.65516 l 0.13505,-5.216 -6.46476,0.36615 -6.46477,0.36615 3.25135,-2.73583 c 4.02996,-3.39098 6.22642,-8.47248 6.48217,-14.99647 l 0.19601,-5 -5.5,0.32581 c -5.32039,0.31516 -5.42609,0.27218 -3.23661,-1.31609 4.31614,-3.13098 8.34695,-15.09512 6.23626,-18.51029 -0.75963,-1.2291 -8.5977,-0.97701 -20.83718,0.67017 l -4.33753,0.58374 0.67102,3.57682 c 1.38047,7.35856 6.95532,14.86865 11.3889,15.34244 0.88833,0.0949 -1.30986,0.43243 -4.88486,0.75 l -6.5,0.5774 0.343,3.46677 c 0.73736,7.45265 6.88464,15.85518 12.657,17.30047 1.1,0.27541 -0.925,0.55985 -4.5,0.63207 -8.63958,0.17454 -9.02294,0.50033 -7.51595,6.38721 1.53155,5.98276 6.1928,11.91533 10.34797,13.17028 1.74239,0.52623 3.16798,1.31373 3.16798,1.75 0,0.43626 -0.3375,0.73991 -0.75,0.67478 -0.4125,-0.0651 -3.62138,-0.0651 -7.13084,0 l -6.38084,0.11842 0.58846,3.62627 c 1.11038,6.84246 7.06831,13.16645 13.61035,14.44657 2.63913,0.51641 1.4392,0.72698 -4.62811,0.81216 -4.50504,0.0632 -8.481,0.58426 -8.83547,1.1578 -0.95741,1.54912 3.64056,10.07359 6.58427,12.207 3.20528,2.32297 9.63456,4.64861 13.01068,4.70631 1.41267,0.0241 4.78767,-0.63724 7.5,-1.46973 z m -85.466381,-1.763 c 4.58298,-3.07064 10.07827,-11.37844 9.69639,-14.65902 -0.28724,-2.46757 -0.65707,-2.6031 -9.79851,-3.59085 l -9.5,-1.0265 5.6224,-0.63808 c 6.4835,-0.73581 12.22192,-3.40331 16.063981,-7.46735 2.77224,-2.9324 5.27531,-8.21322 4.33752,-9.15101 -0.29263,-0.29264 -4.16657,-1.05892 -8.608741,-1.70287 -9.25674,-1.34187 -7.82882,-2.33507 -14.36274,9.99013 -4.28561,8.0841 -4.36893,8.94058 -2.06948,21.27217 1.93584,10.38155 2.65909,10.9667 8.61918,6.97338 z m 119.342411,0.0266 c 1.89092,-8.8152 3.4707,-18.49128 3.22451,-19.75 -0.42032,-2.14907 -7.63099,-16.20423 -9.26802,-18.06541 -1.18681,-1.3493 -2.44847,-1.41762 -9.13896,-0.49487 -6.57182,0.90638 -7.80305,1.37643 -8.0294,3.06541 -0.71204,5.31327 7.28756,12.39109 16.76734,14.83527 l 5.5,1.41807 -7,0.69173 c -8.84963,0.8745 -9.50204,1.09918 -9.49062,3.26842 0.0169,3.21476 5.91255,12.15623 9.72216,14.74493 4.63202,3.14754 7.07977,3.23844 7.71299,0.28645 z M 100.02624,305.66433 c 4.84056,-2.50315 11.39761,-13.56259 9.20985,-15.53378 -0.41972,-0.37817 -3.72029,-0.97338 -7.3346,-1.32269 l -6.571461,-0.6351 -3.61183,9.21298 c -1.98651,5.06714 -3.36033,9.61992 -3.05294,10.11729 0.72678,1.17596 7.7199,0.0442 11.360981,-1.8387 z m 99.41673,1.57608 c 0.32342,-0.52331 -1.09508,-5.06676 -3.15223,-10.09656 l -3.74027,-9.14509 -3.53875,0.58555 c -1.94632,0.32206 -5.00126,0.59051 -6.78876,0.59656 -2.85003,0.01 -3.25,0.33863 -3.25,2.67315 0,3.52802 4.22478,10.59989 7.68809,12.86915 4.33173,2.83825 11.68814,4.28701 12.78192,2.51724 z M 86.972959,301.81688 c 0,-2.95625 0.28125,-6.78125 0.625,-8.5 1.10808,-5.5404 -1.46989,-3.47354 -4.83324,3.875 -1.76211,3.85 -3.52272,7 -3.91248,7 -0.38975,0 -1.02809,-3.40895 -1.41852,-7.57544 -0.41725,-4.45272 -1.07848,-7.20684 -1.60407,-6.68125 -0.85978,0.85978 -5.06444,14.43102 -4.58887,14.81135 0.55068,0.4404 10.47473,2.21933 12.98218,2.32712 2.67358,0.11493 2.75,-0.0311 2.75,-5.25678 z m 123.583221,4.22264 c 3.25423,-0.63379 6.06389,-1.26841 6.2437,-1.41025 0.27218,-0.21472 -1.91223,-9.29044 -3.44917,-14.33052 -0.76692,-2.51494 -1.68692,-0.22689 -2.87101,7.14023 l -1.16574,7.2529 -3.4205,-7.20996 c -1.88127,-3.96547 -3.8705,-7.22902 -4.4205,-7.25233 -0.61579,-0.0261 -0.87572,3.22434 -0.67653,8.45996 0.3673,9.65427 -0.13385,9.27686 9.75975,7.34997 z M 87.304289,277.41445 c 0.0928,-5.07276 -0.1572,-9.22306 -0.55548,-9.22289 -0.39828,1.8e-4 -2.58862,3.39748 -4.86741,7.54957 -2.2788,4.15209 -4.3659,7.32663 -4.63799,7.05453 -0.27209,-0.27209 -1.00685,-4.35915 -1.63279,-9.08235 -0.62594,-4.7232 -1.48824,-8.68524 -1.91622,-8.80453 -0.91704,-0.25561 -6.81953,16.31537 -6.18002,17.35012 0.34376,0.55622 4.83772,1.73224 7.92555,2.07403 0.26587,0.0294 2.63206,0.64231 5.25821,1.36195 2.62615,0.71964 5.14892,1.22617 5.60615,1.12561 0.45724,-0.10056 0.90724,-4.33327 1,-9.40604 z m 12.26444,8.30483 c 2.934741,-0.87152 6.253521,-2.81035 8.130821,-4.75 3.429,-3.54289 6.70162,-10.27552 5.74621,-11.82142 -0.32496,-0.52579 -2.92678,-0.99269 -5.78182,-1.03755 l -5.19098,-0.0816 3.1183,-1.36755 c 4.37026,-1.91661 8.06977,-6.67981 9.85365,-12.68678 0.83669,-2.81746 1.33334,-5.31057 1.10366,-5.54025 -0.22968,-0.22968 -3.12944,-0.6635 -6.4439,-0.96404 -5.7314,-0.51971 -6.05296,-0.42979 -6.57133,1.83766 -1.26906,5.55113 -2.57513,16.05123 -2.09349,16.83053 0.28689,0.46421 -0.0896,1.07857 -0.83674,1.36526 -1.368241,0.52507 -10.630151,16.79967 -10.630151,18.67884 0,1.43457 3.82769,1.24984 9.59577,-0.4631 z m 98.642691,0.90081 c 0.31448,-0.31448 -0.85054,-3.12698 -2.58894,-6.25 -1.73839,-3.12302 -4.04803,-7.36571 -5.13252,-9.42821 -1.0845,-2.0625 -2.57103,-3.75 -3.30342,-3.75 -0.73239,0 -1.04488,-0.46394 -0.69443,-1.03098 0.35044,-0.56704 0.0659,-5.06704 -0.63225,-10 l -1.26943,-8.96902 -4.05874,0.0136 c -6.66111,0.0224 -8.56174,0.88038 -8.53537,3.85298 0.0414,4.67232 5.06318,12.42664 9.47664,14.63337 l 4,2 -5.25,0.30226 c -5.01028,0.28846 -5.25,0.43 -5.25,3.09996 0,3.17415 4.46008,9.85877 8.22297,12.32431 4.25393,2.78728 13.46571,4.75146 15.01549,3.20168 z m 8.53386,-0.85546 c 2.89978,-0.77192 5.49098,-1.42189 5.75822,-1.44435 2.76663,-0.23261 7.59081,-1.51573 7.96303,-2.11799 0.3928,-0.63557 -2.9294,-11.66388 -5.12426,-17.01041 -0.83747,-2.04 -2.02384,2.26051 -2.9123,10.55687 -0.38114,3.55901 -0.99754,6.65916 -1.36979,6.88922 -0.37224,0.23006 -2.45665,-2.92238 -4.63201,-7.00542 -2.17537,-4.08305 -4.29271,-7.42753 -4.70521,-7.4322 -0.4125,-0.005 -0.75,4.26653 -0.75,9.49153 0,5.225 0.1125,9.49466 0.25,9.48813 0.1375,-0.007 2.62255,-0.64345 5.52232,-1.41538 z M 99.972789,265.94188 c -1e-4,-0.1375 -0.6751,-3.77709 -1.5,-8.08797 -0.82491,-4.31088 -1.49983,-8.02338 -1.49983,-8.25 0,-0.22662 -0.36306,-0.41203 -0.80681,-0.41203 -0.44374,0 -2.33068,3.15 -4.19319,7 -1.86251,3.85 -3.67738,7 -4.03304,7 -0.35566,0 -1.22073,-3.2625 -1.92238,-7.25 -1.90281,-10.81379 -2.19149,-10.9298 -6.89531,-2.77112 -2.2821,3.95824 -4.14927,7.7743 -4.14927,8.48013 0,1.14625 3.81585,2.08286 12.86564,3.15792 1.30111,0.15456 2.61361,0.52898 2.91667,0.83205 0.52954,0.52954 9.21787,0.81328 9.21752,0.30102 z m 99.127741,-0.82884 c 0.82447,-0.50955 0.0179,-2.96825 -2.72856,-8.31798 -3.68225,-7.1724 -5.39751,-9.19036 -5.40019,-6.35318 -6.5e-4,0.6875 -0.62718,4.53253 -1.39231,8.54452 l -1.39113,7.29452 4.87087,-0.22225 c 2.67898,-0.12224 5.39757,-0.54777 6.04132,-0.94563 z m 8.87243,-1.59149 c 6.46763,-0.92428 6.44184,-0.83947 2.4572,-8.08102 -5.82631,-10.58857 -5.91512,-10.60067 -7.8083,-1.06326 -2.09395,10.54886 -2.08756,11.20206 0.1011,10.33652 0.9625,-0.38063 3.325,-0.91714 5.25,-1.19224 z m -135.996681,-11.312 c -0.93499,-4.97621 -1.98064,-9.32832 -2.32367,-9.67135 -0.34303,-0.34304 -1.03718,0.45121 -1.54256,1.76499 -0.50537,1.31378 -2.06429,4.96735 -3.46426,8.11905 -1.70271,3.83325 -2.18775,5.9514 -1.4651,6.39802 1.70055,1.051 9.22699,3.1689 9.89392,2.7841 0.33091,-0.19093 -0.16334,-4.41859 -1.09833,-9.39481 z m 149.908251,7.89068 c 4.71701,-1.41325 4.72108,-1.20526 -0.22976,-11.75697 l -3.12082,-6.65138 -1.25423,5.5 c -0.68983,3.025 -1.55886,7.71167 -1.93119,10.41482 -0.57721,4.19064 -0.44907,4.82736 0.86965,4.32132 0.85063,-0.32642 3.40049,-1.14892 5.66635,-1.82779 z m -59.02586,-13.54085 c 3.25465,-2.27964 6.06629,-8.99668 6.09233,-14.55463 l 0.022,-4.68713 -3.25,0.41162 c -1.7875,0.22639 -7.1875,0.6885 -12,1.0269 l -8.75,0.61528 0,2.78811 c 0,4.11267 2.76499,10.0104 6.19547,13.21494 3.47818,3.24912 8.07759,3.7153 11.69024,1.18491 z m -57.31034,-0.97029 c 4.76961,-2.26333 10.11981,-8.55146 11.43655,-13.44148 0.61574,-2.28669 0.97745,-4.29847 0.8038,-4.47062 -0.17364,-0.17216 -2.79072,-0.46121 -5.81572,-0.64233 l -5.5,-0.32931 -4.71895,9.29107 c -5.200271,10.23872 -4.799781,10.38858 -6.826501,-2.55454 -0.62439,-3.9875 -1.43209,-7.24619 -1.7949,-7.24153 -0.36281,0.005 -2.45583,3.37967 -4.65117,7.5 -2.19534,4.12034 -4.26038,7.49153 -4.58899,7.49153 -0.3286,0 -1.16653,-3.825 -1.86205,-8.5 -0.69553,-4.675 -1.63646,-8.5 -2.09097,-8.5 -1.20062,0 -9.29771,15.0021 -8.51794,15.78186 0.76225,0.76225 26.1475,7.03938 28.900341,7.14632 1.01688,0.0395 3.36881,-0.64944 5.2265,-1.53097 z m 84.8578,0.71092 c 0.30317,-0.49053 -1.40285,-5.10303 -3.79114,-10.25 l -4.34235,-9.35813 -5.64984,0.34255 c -5.23406,0.31734 -5.64984,0.52265 -5.64984,2.78984 0,3.12084 3.11716,9.22567 6.15982,12.06377 4.19221,3.91035 11.98292,6.49993 13.27335,4.41197 z m 14.51682,-2.98334 c 6.2975,-1.5536 11.61608,-3.32301 11.81908,-3.93201 0.48896,-1.46688 -7.75733,-15.53742 -8.60837,-14.68834 -0.36338,0.36255 -1.33902,4.33487 -2.16808,8.82737 l -1.50738,8.16819 -4.49262,-7.73774 c -2.47094,-4.25575 -4.75226,-7.74325 -5.0696,-7.75 -0.62149,-0.0132 -2.94052,14.02764 -2.92963,17.73774 0.004,1.2375 0.34411,2.23864 0.75661,2.22476 0.4125,-0.0139 5.9025,-1.29637 12.19999,-2.84997 z M 69.972959,237.99378 c 0,-3.65846 -2.51857,-17.8019 -3.17005,-17.8019 -0.72312,0 -7.82995,14.4901 -7.82995,15.96447 0,0.72029 6.2772,2.69449 9.25,2.90916 0.9625,0.0695 1.75,-0.41278 1.75,-1.07173 z m 154.485651,-0.009 c 2.48289,-0.66438 4.51435,-1.78086 4.51435,-2.48137 0,-0.70051 -1.45815,-4.31968 -3.24033,-8.0426 -3.90658,-8.16071 -3.64082,-7.72111 -4.28082,-7.08112 -0.45915,0.45916 -3.47394,16.11807 -3.47748,18.06219 -0.002,1.03289 1.2397,0.94531 6.48428,-0.4574 z m -87.99488,-13.964 c 3.19178,-2.51065 6.45542,-9.09028 6.48727,-13.0786 0.0213,-2.66774 -0.14177,-2.75 -5.45172,-2.75 l -5.47369,0 4.24385,-4.25 c 4.01992,-4.02605 6.70352,-9.82148 6.70352,-14.47703 0,-1.65955 -0.88208,-2.10064 -5.25,-2.62529 -2.8875,-0.34683 -7.8375,-0.63451 -11,-0.63929 l -5.75,-0.009 0,4.78811 c 0,5.67152 3.43394,13.18588 6.76771,14.80953 3.58827,1.7476 3.37848,1.92412 -1.84906,1.55585 l -4.91865,-0.34652 0,4.12864 c 0,5.35587 2.06362,10.18267 5.51368,12.89649 3.4945,2.74878 6.47947,2.74773 9.97709,-0.004 z m 26.3506,-0.97755 c 3.36649,-3.44333 6.20399,-13.20569 4.37108,-15.0386 -0.6146,-0.6146 -4.79808,-0.66738 -11.34309,-0.14309 l -10.36936,0.83034 0.26254,3.31442 c 0.5813,7.33842 6.20351,14.03912 11.8688,14.14554 1.17224,0.022 3.51675,-1.37699 5.21003,-3.10891 z m -50.807,1.13056 c 2.88342,-1.54317 6.9636,-9.21484 7.22949,-13.59311 l 0.23614,-3.8888 -5.61582,-0.2959 c -5.58928,-0.2945 -5.61882,-0.28091 -6.25,2.875 -0.3488,1.74399 -0.66581,4.80215 -0.70447,6.7959 -0.14666,7.56439 -1.46171,7.7659 -3.37651,0.51739 -1.0014,-3.79081 -2.15797,-7.26732 -2.57015,-7.72558 -0.41218,-0.45825 -2.218611,2.35425 -4.014271,6.25 -1.79567,3.89576 -3.57791,7.08319 -3.96053,7.08319 -0.38262,0 -1.49837,-3.825 -2.47944,-8.5 -0.98108,-4.675 -2.1411,-8.5 -2.57782,-8.5 -0.43673,0 -2.25336,3.16601 -4.03695,7.03557 -1.7836,3.86956 -3.56513,6.68206 -3.95895,6.25 -0.39383,-0.43206 -1.47553,-4.27307 -2.40378,-8.53557 -0.92825,-4.2625 -2.02729,-7.75 -2.4423,-7.75 -0.76974,0 -7.10901,13.40073 -7.10901,15.02789 0,0.49226 1.6875,1.34409 3.75,1.89295 11.66997,3.10554 15.58022,3.9858 20.40519,4.59354 2.93965,0.37027 5.53231,0.85601 5.76148,1.07942 0.87557,0.85358 12.304941,0.35796 14.117701,-0.61219 z m 69.61361,-4.23191 c -0.34683,-2.8875 -0.6414,-6.825 -0.6546,-8.75 -0.0355,-5.17746 -0.7854,-5.72152 -6.99338,-5.07383 l -5.5,0.57383 0.35108,3.49512 c 0.69348,6.90389 6.61894,15.00488 10.9753,15.00488 2.37162,0 2.43148,-0.17252 1.8216,-5.25 z m 13.08624,3.84911 c 0.28801,-0.28801 -1.17381,-4.02813 -3.2485,-8.31138 l -3.77216,-7.78773 -2.30638,7 c -3.52877,10.70999 -3.47241,10.88975 3.1981,10.20129 3.0829,-0.31818 5.84093,-0.81416 6.12894,-1.10218 z m 13.76578,-2.64279 c 13.58693,-3.29863 13.11505,-2.68023 8.76048,-11.48067 -2.03448,-4.11161 -3.993,-7.47565 -4.35228,-7.47565 -0.35928,0 -1.45593,3.825 -2.43701,8.5 -0.98107,4.675 -2.05094,8.49336 -2.37748,8.48524 -0.32654,-0.008 -1.94371,-3.15085 -3.59371,-6.98385 -1.65,-3.83301 -3.44132,-6.82926 -3.98072,-6.65834 -0.95546,0.30276 -4.39643,13.34527 -4.47829,16.97434 -0.0284,1.26158 0.4942,1.66548 1.70901,1.32067 0.9625,-0.2732 5.8,-1.47998 10.75,-2.68174 z M 66.900089,215.94188 c -0.0401,-0.6875 -0.8694,-5.525 -1.84294,-10.75 l -1.77007,-9.5 -4.17228,8.43478 c -2.29476,4.63913 -3.81706,8.79 -3.3829,9.22416 0.9302,0.9302 8.18702,3.66891 9.99106,3.7706 0.6875,0.0387 1.21721,-0.49204 1.17713,-1.17954 z m 161.322871,-0.84331 c 2.0625,-0.6728 3.75,-1.8137 3.75,-2.53534 0,-0.72164 -1.125,-3.77158 -2.5,-6.77764 -1.375,-3.00605 -2.5,-5.98189 -2.5,-6.61297 0,-0.63107 -0.55819,-0.96134 -1.24041,-0.73394 -0.68223,0.22741 -1.77957,3.52741 -2.43855,7.33334 -1.60058,9.2442 -1.6164,11.70901 -0.071,11.06817 0.6875,-0.2851 2.9375,-1.06883 5,-1.74162 z m -64.81112,-12.01642 c 1.32835,-1.57865 2.97333,-5.46227 3.65551,-8.63027 l 1.24034,-5.76 0.91108,3.66165 c 1.69741,6.82195 11.03844,15.03037 13.81932,12.14371 0.82581,-0.85723 -0.92524,-18.32424 -1.95524,-19.50382 -0.33544,-0.38415 -3.30989,-0.29762 -6.60989,0.19229 -3.3,0.48991 -10.90613,1.15757 -16.90251,1.48369 -5.99638,0.32613 -11.26914,0.81955 -11.71724,1.09649 -2.69418,1.6651 3.8439,15.55827 8.34829,17.73981 3.7729,1.82727 6.16262,1.19845 9.21034,-2.42355 z m -51.87744,0.0718 c 3.66467,-2.26493 8.43856,-10.75979 8.43856,-15.01596 0,-2.52413 -0.31752,-2.69438 -6.16478,-3.30554 -3.39062,-0.35439 -6.35859,-0.45053 -6.59548,-0.21365 -0.68786,0.68786 -2.93742,19.54207 -2.3962,20.08328 1.00695,1.00695 3.52111,0.42755 6.7179,-1.54817 z m -12.085581,-3.21207 c -0.35567,-2.3375 -1.21342,-7.175 -1.90611,-10.75 l -1.25942,-6.5 -4.38388,9 -4.38388,9 -1.02128,-9.5 c -0.56171,-5.225 -1.34728,-9.5 -1.74571,-9.5 -0.58137,0 -8.77558,15.8337 -8.77558,16.95708 0,0.25222 10.35442,2.83653 19.5,4.86691 4.50314,0.99972 4.651511,0.86635 3.97586,-3.57399 z m 101.600391,1.64333 c 6.00806,-1.43367 10.92375,-3.01866 10.92375,-3.5222 0,-0.50354 -1.87363,-4.61804 -4.16363,-9.14333 -4.04058,-7.98465 -4.18565,-8.13914 -4.90884,-5.2278 -0.40986,1.65 -1.07623,6.15 -1.48083,10 l -0.73563,7 -3.31675,-7 c -1.82422,-3.85 -3.33421,-7.5625 -3.35554,-8.25 -0.0213,-0.6875 -0.62603,-1.25 -1.34378,-1.25 -0.85174,0 -1.74644,2.69176 -2.57599,7.75 -0.69904,4.2625 -1.51058,8.7625 -1.80341,10 -0.66938,2.82881 -0.57801,2.82626 12.76065,-0.35667 z M 74.965849,195.44188 c -0.0154,-5.95695 -1.32472,-16.25 -2.06707,-16.25 -0.43173,0 -2.47341,3.12603 -4.53706,6.94674 -2.06366,3.82071 -4.12035,6.71915 -4.57043,6.44098 -0.45008,-0.27816 -0.86319,-3.2917 -0.91801,-6.69674 -0.0548,-3.40504 -0.40524,-7.28477 -0.77871,-8.62163 -0.61804,-2.21232 -1.0582,-1.79242 -4.90032,4.67483 -2.32171,3.90801 -4.22129,7.51745 -4.22129,8.02097 0,0.75144 18.72317,7.94955 21.25,8.16955 0.4125,0.0359 0.7468,-1.1722 0.74289,-2.6847 z m 144.944561,0.76684 c 2.2344,-0.60166 4.06255,-1.48705 4.06255,-1.96754 0,-0.48049 -1.86717,-4.11218 -4.14927,-8.07042 -2.80474,-4.86476 -4.38457,-6.75645 -4.87543,-5.83785 -0.39938,0.74744 -1.04355,5.13356 -1.43149,9.74695 -0.61161,7.2734 -0.50359,8.31056 0.81288,7.80539 0.83502,-0.32043 3.34636,-1.07487 5.58076,-1.67653 z m 15.06255,-6.13604 c 0,-0.58183 -6.37102,-12.00963 -7.69211,-13.79747 -0.73367,-0.99287 -1.1092,0.93619 -1.77182,9.10171 l -0.70479,8.68504 5.08436,-1.62591 c 2.7964,-0.89426 5.08436,-1.95777 5.08436,-2.36337 z m -96.67483,-7.8554 c 2.37357,-2.82082 3.7372,-6.09801 5.09844,-12.25298 0.73383,-3.31807 0.16703,-3.48953 -13.92361,-4.21212 -5.5,-0.28205 -12.10149,-0.80473 -14.66999,-1.16152 l -4.66999,-0.64869 -0.65147,4.87495 c -0.35831,2.68123 -0.9921,6.67496 -1.40842,8.87496 -0.69607,3.67829 -0.81968,3.33267 -1.53681,-4.29725 -0.44544,-4.73936 -1.20682,-8.15492 -1.77558,-7.96533 -0.54766,0.18255 -2.70019,3.61472 -4.783411,7.62703 -2.08322,4.01232 -4.01501,6.92172 -4.29285,6.46533 -0.27785,-0.45638 -0.83007,-4.32377 -1.22717,-8.59421 -0.39709,-4.27044 -1.07014,-7.9796 -1.49565,-8.24258 -0.83058,-0.51333 -7.98866,13.84367 -7.98866,16.0229 0,0.76181 1.77529,1.60314 4.25,2.01411 2.3375,0.38819 5.15,0.91007 6.25,1.15973 12.973121,2.94441 22.766891,-0.92702 25.408171,-10.04373 0.5013,-1.7303 0.95455,-2.471 1.00722,-1.646 0.23998,3.75895 2.38201,9.19999 4.71193,11.96895 3.50898,4.17018 8.21726,4.1929 11.69785,0.0564 z m 23.30967,0.7246 c 2.717,-3.08209 4.36516,-7.23289 4.36516,-10.9934 0,-3.04303 0.0835,-2.98174 2.4745,1.81638 2.43314,4.88268 6.66388,8.42702 10.059,8.42702 1.53708,0 1.65094,-0.7895 1.04556,-7.25 -1.04684,-11.17161 -1.00467,-11.10387 -6.43498,-10.33681 -2.55424,0.3608 -9.36908,0.88948 -15.14408,1.17484 -13.55641,0.66986 -13.37568,0.5959 -12.52582,5.12602 2.17174,11.57639 10.86094,18.04783 16.16066,12.03595 z m 32.36516,-1.25672 c 12.80025,-2.30909 32,-8.45592 32,-10.24485 0,-2.04124 -4.65213,-6.24843 -6.90923,-6.24843 -1.53311,0 -2.1466,0.87563 -2.62735,3.75 -0.34496,2.0625 -0.74586,4.2 -0.89089,4.75 -0.14503,0.55 -1.68965,-1.8125 -3.4325,-5.25 -1.74285,-3.4375 -3.79316,-6.25 -4.55624,-6.25 -0.96375,0 -1.59205,1.90853 -2.05756,6.25 -1.12495,10.49167 -1.32623,10.54532 -5.75835,1.53487 l -4.0752,-8.28487 -0.78957,3.5 c -0.43427,1.925 -1.17755,6.2 -1.65173,9.5 l -0.86217,6 -3.91389,-7.75 c -2.15264,-4.2625 -4.21643,-7.75 -4.5862,-7.75 -0.9398,0 -1.67622,3.36504 -2.49305,11.3919 l -0.70134,6.89189 4.90264,-0.57957 c 2.69645,-0.31876 6.47763,-0.86369 8.40263,-1.21094 z M 83.559739,174.44188 c -1.3861,-10.28247 -1.79079,-12.25 -2.51969,-12.25 -1.38832,0 -3.88054,3.45284 -5.58919,7.74351 -1.82169,4.57454 -3.46853,4.78549 -3.49321,0.44747 -0.008,-1.48004 -0.34707,-3.21236 -0.75255,-3.84961 -1.08331,-1.70251 -6.11714,-0.42477 -7.34182,1.86358 -0.97603,1.82372 -1.13567,1.84178 -2.29279,0.25932 -0.94121,-1.28719 -2.01643,-1.53117 -4.42062,-1.00312 -1.7473,0.38377 -3.17691,1.05942 -3.17691,1.50144 0,0.82401 26.40651,9.99224 28.86354,10.02129 1.05093,0.0124 1.21674,-1.07291 0.72324,-4.73388 z m 149.413221,-5.34783 c 0,-0.49619 -0.6382,-0.90217 -1.41821,-0.90217 -0.78002,0 -2.13002,-0.27314 -3,-0.60699 -1.18803,-0.45589 -1.58179,0.029 -1.58179,1.94798 0,2.40459 0.17657,2.49342 3,1.50917 1.65,-0.5752 3,-1.45179 3,-1.94799 z M 70.211759,160.73772 c 11.1191,-2.52231 25.93791,-7.9359 33.761201,-12.33359 13.76054,-7.73519 25.08423,-19.31145 30.98471,-31.67583 4.52288,-9.47764 6.01529,-15.93817 6.01529,-26.039786 l 0,-7.40492 -32.69625,-31.0496 C 90.293769,35.156712 75.269819,21.523577 74.890159,21.938139 c -0.95016,1.037501 -9.21471,32.804904 -12.81377,49.253745 -3.5215,16.09441 -6.50863,32.979586 -8.13779,45.999996 -0.65377,5.225 -1.36514,10.4 -1.58082,11.5 -0.21568,1.1 -0.68617,9.3125 -1.04553,18.25 l -0.65337,16.25 4.40704,-0.009 c 2.42387,-0.005 9.2395,-1.10528 15.14584,-2.4451 z m -12.77352,-14.43331 c 1.76612,-27.34426 6.47241,-55.674376 15.19054,-91.441476 l 5.5645,-22.828953 10.13984,9.817776 c 11.941391,11.562104 25.677701,24.732337 37.994551,36.428787 l 8.8547,8.40869 -0.67752,7.00132 c -3.04714,31.488176 -26.17159,52.067516 -68.891971,61.309606 l -8.86008,1.91678 0.68544,-10.61253 z m 53.151191,-18.89207 c 9.26269,-4.78127 14.40798,-11.25099 17.00276,-21.37938 3.69101,-14.407436 -3.63913,-28.986686 -17.76006,-35.323786 -5.47971,-2.45915 -7.00311,-2.70594 -14.247471,-2.30809 -17.01421,0.9344 -28.3385,11.85334 -29.39685,28.34459 -0.9427,14.689406 6.79154,26.714636 20.58404,32.004156 5.48795,2.10466 18.572611,1.36988 23.817581,-1.33749 z M 90.457279,117.18655 c -3.86165,-1.19142 -9.89064,-7.50832 -11.35179,-11.89389 -2.86055,-8.585796 0.22488,-17.445076 7.76158,-22.286076 4.13393,-2.65532 5.28325,-2.92295 11.21624,-2.61179 5.417371,0.28412 7.286861,0.86268 10.358851,3.2058 10.14018,7.7343 9.79376,24.418276 -0.65054,31.329986 -4.33526,2.86894 -12.080431,3.87693 -17.334341,2.25597 z m 13.057051,-2.87433 c 11.42641,-5.1903 13.86468,-17.977446 5.09934,-26.742786 -3.22315,-3.22315 -5.22415,-4.3425 -8.692701,-4.86263 -11.95406,-1.79263 -22.34467,9.54238 -18.99525,20.721726 2.05784,6.86847 9.29796,12.4039 16.54724,12.6512 1.1,0.0375 3.818621,-0.75786 6.041371,-1.76751 z m -15.141371,-6.52034 c -2.98033,-2.98033 -3.4,-4.03132 -3.4,-8.514686 0,-4.3817 0.46576,-5.61913 3.25,-8.63466 3.93122,-4.25779 8.71096,-5.32946 13.969801,-3.13217 4.64064,1.93898 7.06664,5.68352 7.18578,11.0913 0.17673,8.021936 -4.50753,12.590216 -12.909871,12.590216 -4.00689,0 -5.19446,-0.49875 -8.09571,-3.4 z m 148.505251,43.15 c -0.30254,-20.10942 -2.5204,-38.16713 -8.34149,-67.915986 -5.07954,-25.959095 -14.03964,-60.753191 -15.75173,-61.167518 -0.37838,-0.09157 -15.34088,13.725983 -33.25,30.70567 l -32.56203,30.872158 0.0174,6.62784 c 0.0909,34.709066 27.59079,61.529686 72.98264,71.180006 4.675,0.99391 10.43265,1.83877 12.79477,1.87747 l 4.29473,0.0704 -0.18429,-12.25 z m -21.40525,2.28559 c -38.42895,-10.07113 -59.0809,-29.85975 -61.39699,-58.830396 l -0.66314,-8.2948 7.03007,-6.65604 c 3.86653,-3.66082 16.42782,-15.62705 27.91397,-26.591607 15.70599,-14.992785 21.0835,-19.578911 21.68892,-18.497078 1.1921,2.130155 8.35809,31.198795 11.79211,47.834335 4.93059,23.885446 9.13185,55.736756 9.13422,69.249996 0.001,5.82373 -0.0626,5.83106 -15.49916,1.78559 z m -9.66876,-26.54026 c 17.71591,-9.6422 22.01783,-33.436716 8.71933,-48.227846 -6.24944,-6.95089 -12.19433,-9.65069 -22.24182,-10.10087 -7.04983,-0.31587 -8.93736,-0.0254 -13.54563,2.0843 -7.61175,3.48478 -12.24913,7.9596 -15.86912,15.31285 -2.93156,5.95484 -3.11731,6.95999 -2.71228,14.676826 0.5214,9.93396 3.8136,16.98282 10.48523,22.44972 6.77057,5.54798 12.50406,7.38896 21.84544,7.01442 6.56457,-0.26321 8.97125,-0.84313 13.31885,-3.2094 z m -22.03297,-9.80226 c -9.04754,-4.19855 -13.73672,-14.67954 -10.64532,-23.793846 2.84442,-8.38612 9.09207,-12.89922 17.85687,-12.89922 11.01087,0 19.01779,7.89799 18.96822,18.71016 -0.0499,10.870986 -7.15245,18.427006 -17.81847,18.955976 -3.11276,0.15438 -6.87535,-0.28351 -8.3613,-0.97307 z m 13.81782,-2.60619 c 7.90982,-3.59199 12.04453,-12.52512 9.44416,-20.404316 -1.5263,-4.62473 -7.78215,-10.2202 -12.3936,-11.08532 -11.88061,-2.22881 -23.09177,9.36507 -19.77166,20.446616 1.59303,5.31703 5.6547,9.70392 10.60501,11.45413 5.30746,1.87648 7.22169,1.81153 12.11609,-0.41111 z m -14.6534,-5.83688 c -7.68981,-6.89082 -4.28555,-19.876516 5.72213,-21.827306 10.10131,-1.96904 18.22919,8.63424 13.78979,17.989566 -3.33011,7.01769 -13.68945,9.05523 -19.51192,3.83774 z m -39.35991,49.66736 c -0.97407,-6.09144 -4.85913,-12.97717 -9.99094,-17.70751 -2.51194,-2.31542 -4.93893,-4.20985 -5.39333,-4.20985 -0.4544,0 -2.37695,1.60492 -4.27234,3.56649 -3.57012,3.69476 -19.00378,14.43351 -20.74375,14.43351 -0.54364,0 -1.22401,0.61387 -1.51192,1.36416 -0.39515,1.02973 1.11084,1.53671 6.14301,2.068 3.66657,0.38712 12.29149,1.52174 19.16649,2.52139 18.45701,2.68372 17.37867,2.81597 16.60278,-2.03619 z m 25.14722,0.94698 c 10.0375,-1.2913 18.25,-2.67748 18.25,-3.0804 0,-0.40292 -1.4625,-1.48418 -3.25,-2.40279 -5.26373,-2.70509 -14.90394,-9.48185 -19.45213,-13.67423 l -4.22532,-3.89477 -2.95745,2.10589 c -6.72927,4.79166 -12.1151,14.03391 -12.1151,20.78987 0,3.32323 0.16992,3.51003 2.75,3.02317 1.5125,-0.2854 10.9625,-1.57544 21,-2.86674 z m -25.75,-31.36434 c 0,-6.875 -0.39541,-12.5 -0.87868,-12.5 -0.48327,0 -1.41286,1.28964 -2.06576,2.86586 -0.65289,1.57622 -2.67823,5.06372 -4.50075,7.75 l -3.31368,4.88414 4.62943,4.64446 c 2.54619,2.55446 4.96694,4.69196 5.37944,4.75 0.4125,0.058 0.75,-5.51946 0.75,-12.39446 z m 8.40917,7.71241 4.6277,-4.28758 -4.76844,-7.92696 c -2.62264,-4.35983 -5.10593,-7.94291 -5.51843,-7.96241 -0.4125,-0.0195 -0.75,5.62704 -0.75,12.54787 0,6.94268 0.39929,12.43392 0.89074,12.25 0.4899,-0.18333 2.9732,-2.26274 5.51843,-4.62092 z m 13.51368,-76.462402 c 18.27406,-17.922154 18.97424,-18.75 15.85838,-18.75 -2.88058,0 -5.18328,1.920992 -19.79478,16.513528 l -16.53498,16.513528 -4.93815,-5.01353 -4.93814,-5.01353 9.71241,0 c 5.34183,0 9.71241,-0.32046 9.71241,-0.71214 0,-1.11203 -8.29555,-9.287856 -9.42386,-9.287856 -0.55409,0 -3.13702,2.097554 -5.73983,4.66123 l -4.73239,4.661226 -11.93156,-11.161226 c -9.69292,-9.067119 -12.49267,-11.16123 -14.92217,-11.16123 -2.76243,0 -1.69205,1.277965 14.02914,16.75 9.36086,9.212496 17.94973,17.781046 19.08638,19.041226 1.13666,1.26017 2.82542,2.16017 3.75281,2 0.92739,-0.16018 10.28934,-8.72873 20.80433,-19.041226 z m -25.62713,-13.930474 -5.18048,-5.180473 -4.80762,4.392325 c -2.64419,2.415779 -4.95762,4.746992 -5.14095,5.180474 -0.18334,0.433481 4.31131,0.788148 9.98809,0.788148 l 10.32143,0 -5.18047,-5.180474 z m 25.70428,4.468326 c 0,-1.153351 -8.31663,-9.287852 -9.4958,-9.287852 -0.59366,0 -3.29555,2.25 -6.0042,5 l -4.92482,5 10.21241,0 c 5.61683,0 10.21241,-0.320467 10.21241,-0.712148 z"
         id="path2987"
         inkscape:connector-curvature="0" />
    </g>
    <g
       transform="matrix(0.89632404,0,0,0.89947608,-40.729382,1.1371289)"
       id="g3953">
      <text
         xml:space="preserve"
         style="font-size:53.91106033px;font-style:normal;font-weight:bold;line-height:125%;letter-spacing:0px;word-spacing:0px;fill:#90a1a3;fill-opacity:1;stroke:none;font-family:Sans;-inkscape-font-specification:Sans Bold"
         x="71.563789"
         y="398.59006"
         id="text2989"
         sodipodi:linespacing="125%"><tspan
           sodipodi:role="line"
           id="tspan2991"
           x="71.563789"
           y="398.59006"
           style="font-style:normal;font-variant:normal;font-weight:bold;font-stretch:normal;fill:#90a1a3;fill-opacity:1;font-family:Verdana;-inkscape-font-specification:Verdana Bold">SAdE</tspan></text>
    </g>
    <rect
       style="fill:none;stroke:#464e4f;stroke-width:3.55238199;stroke-miterlimit:4;stroke-opacity:1;stroke-dasharray:none"
       id="rect3981"
       width="181.44093"
       height="361.44714"
       x="1.7795384"
       y="1.7764276" />
    <rect
       y="317.45999"
       x="-5.2796145e-07"
       height="2.5647495"
       width="185"
       id="rect3994"
       style="fill:#90a1a3;fill-opacity:1;fill-rule:evenodd;stroke:none" />
    <g
       transform="matrix(0.88653808,0,0,0.8896557,-35.602602,-26.449162)"
       id="g4048">
      <rect
         y="212.33366"
         x="104.09518"
         height="62.314476"
         width="80.804802"
         id="rect4040"
         style="fill:#dcf7fa;fill-rule:evenodd;stroke:none" />
      <g
         transform="matrix(0.66644441,0,0,0.66644441,54.583193,-7.7927222)"
         id="g4042"
         style="fill:#464e4f;fill-opacity:1">
        <text
           xml:space="preserve"
           style="font-size:53.91106033px;font-style:normal;font-weight:bold;line-height:125%;letter-spacing:0px;word-spacing:0px;fill:#464e4f;fill-opacity:1;stroke:none;font-family:Sans;-inkscape-font-specification:Sans Bold"
           x="84.822441"
           y="396.63602"
           id="text4044"
           sodipodi:linespacing="125%"><tspan
             sodipodi:role="line"
             id="tspan4046"
             x="84.822441"
             y="396.63602"
             style="font-style:normal;font-variant:normal;font-weight:bold;font-stretch:normal;fill:#464e4f;fill-opacity:1;font-family:Verdana;-inkscape-font-specification:Verdana Bold">2.0</tspan></text>
      </g>
    </g>
  </g>
</svg>
