<?xml version="1.0" encoding="UTF-8" standalone="no"?>
<!-- Created with Inkscape (http://www.inkscape.org/) -->
<svg
   xmlns:dc="http://purl.org/dc/elements/1.1/"
   xmlns:cc="http://creativecommons.org/ns#"
   xmlns:rdf="http://www.w3.org/1999/02/22-rdf-syntax-ns#"
   xmlns:svg="http://www.w3.org/2000/svg"
   xmlns="http://www.w3.org/2000/svg"
   xmlns:sodipodi="http://sodipodi.sourceforge.net/DTD/sodipodi-0.dtd"
   xmlns:inkscape="http://www.inkscape.org/namespaces/inkscape"
   id="svg1211"
   sodipodi:version="0.32"
   inkscape:version="0.46"
   width="210mm"
   height="297mm"
   sodipodi:docname="schedule_light.svg"
   inkscape:output_extension="org.inkscape.output.svg.inkscape">
  <metadata
     id="metadata1216">
    <rdf:RDF>
      <cc:Work
         rdf:about="">
        <dc:format>image/svg+xml</dc:format>
        <dc:type
           rdf:resource="http://purl.org/dc/dcmitype/StillImage" />
      </cc:Work>
    </rdf:RDF>
  </metadata>
  <defs
     id="defs1214">
    <inkscape:perspective
       sodipodi:type="inkscape:persp3d"
       inkscape:vp_x="0 : 526.18109 : 1"
       inkscape:vp_y="0 : 1000 : 0"
       inkscape:vp_z="744.09448 : 526.18109 : 1"
       inkscape:persp3d-origin="372.04724 : 350.78739 : 1"
       id="perspective1218" />
  </defs>
  <sodipodi:namedview
     inkscape:window-height="705"
     inkscape:window-width="641"
     inkscape:pageshadow="2"
     inkscape:pageopacity="0.0"
     guidetolerance="10.0"
     gridtolerance="10.0"
     objecttolerance="10.0"
     borderopacity="1.0"
     bordercolor="#666666"
     pagecolor="#ffffff"
     id="base"
     showgrid="false"
     inkscape:zoom="0.46942014"
     inkscape:cx="372.04724"
     inkscape:cy="526.18109"
     inkscape:window-x="0"
     inkscape:window-y="27"
     inkscape:current-layer="svg1211" />
  <g
     id="History_Light"
     transform="translate(-102.67995,-1184.4142)">
    <rect
       style="fill:#dcf7fa;fill-opacity:1;fill-rule:evenodd;stroke:none"
       id="rect4236"
       width="64"
       height="64"
       x="102.16556"
       y="1185.5801"
       rx="3.4032497"
       ry="3.4032497" />
    <path
       id="path4238"
       style="fill:#464e4f;fill-opacity:1"
       d="M 121.83242,1235.4308 C 121.83242,1235.0303 122.23817,1233.0194 122.59872,1231.6331 C 123.02777,1229.9834 123.45297,1228.7646 124.11129,1227.2974 L 124.35162,1226.7618 L 128.91709,1226.7478 L 133.48255,1226.7338 L 133.46865,1221.1083 L 133.45475,1215.4827 L 133.31201,1215.1781 C 132.93533,1214.3744 132.11449,1213.8705 131.17796,1213.8682 C 130.66086,1213.8682 129.88301,1213.7414 129.35101,1213.5735 C 127.84981,1213.0998 126.44598,1211.9506 125.34471,1210.2938 C 124.97766,1209.7415 124.79764,1209.4478 124.79764,1209.4011 C 124.79764,1209.3831 129.015,1209.3681 134.16956,1209.3681 C 139.32412,1209.3681 143.54148,1209.3871 143.54148,1209.4101 C 143.54148,1209.4331 143.37186,1209.713 143.16454,1210.0318 C 142.1412,1211.6055 141.02524,1212.6642 139.75622,1213.2654 C 139.00551,1213.621 137.90879,1213.8678 137.0795,1213.8678 C 136.75538,1213.8678 136.32645,1213.978 135.99642,1214.1462 C 135.68681,1214.3039 135.21421,1214.813 135.02381,1215.1941 L 134.85789,1215.5261 L 134.85789,1221.1303 L 134.85789,1226.7344 L 139.40313,1226.7344 L 143.94837,1226.7344 L 144.13881,1227.1447 C 144.68582,1228.3234 144.93232,1228.9472 145.28425,1230.0436 C 145.75865,1231.5216 146.35639,1234.1152 146.48318,1235.2459 L 146.52028,1235.5768 L 134.1764,1235.5768 L 121.83251,1235.5768 L 121.83251,1235.4298 L 121.83242,1235.4308 z M 147.89263,1236.5573 C 147.85363,1236.0612 147.54614,1234.1138 147.37498,1233.279 C 146.09779,1227.0489 143.7018,1222.7766 140.57626,1221.1561 C 139.55111,1220.6246 138.75552,1220.4071 137.55169,1220.3293 C 137.15498,1220.3043 136.74955,1220.2483 136.65074,1220.2076 C 136.41686,1220.1096 136.14885,1219.8012 136.07881,1219.5489 C 136.04511,1219.4278 136.02371,1218.6704 136.02441,1217.6281 C 136.02541,1215.9386 136.02841,1215.903 136.14726,1215.6691 C 136.21456,1215.5373 136.3653,1215.3629 136.48445,1215.279 C 136.68358,1215.1388 136.75381,1215.1235 137.40704,1215.0785 C 138.65311,1214.9925 139.60836,1214.738 140.56944,1214.2354 C 143.6158,1212.6423 145.94099,1208.6316 147.24371,1202.7231 C 147.52738,1201.4365 147.93608,1198.9168 147.93608,1198.4546 C 147.93608,1198.3566 147.61714,1198.3546 134.16326,1198.3546 L 120.39042,1198.3546 L 120.42622,1198.712 C 120.49922,1199.442 120.73076,1200.9517 120.91136,1201.8757 C 122.05794,1207.7419 124.28938,1212.0334 127.15376,1213.8809 C 128.32454,1214.6361 129.40468,1214.9807 130.90681,1215.0785 C 131.58844,1215.1225 131.65194,1215.1365 131.85302,1215.2783 C 131.97156,1215.3623 132.11833,1215.5259 132.17917,1215.6424 C 132.28375,1215.8426 132.29061,1215.9486 132.30507,1217.5882 C 132.31407,1218.656 132.29907,1219.3996 132.26607,1219.5236 C 132.23627,1219.6344 132.12755,1219.8235 132.02453,1219.9438 C 131.7955,1220.2114 131.44751,1220.3282 130.87843,1220.3285 C 130.39232,1220.329 129.67698,1220.443 129.05827,1220.619 C 128.42027,1220.8005 127.31221,1221.3601 126.74109,1221.7893 C 125.10078,1223.022 123.68747,1225.0345 122.59861,1227.6882 C 122.40185,1228.1678 121.79484,1229.8915 121.71294,1230.2033 C 121.69764,1230.2613 121.6003,1230.6189 121.49663,1230.9975 C 121.11042,1232.4078 120.73238,1234.2941 120.53626,1235.7893 C 120.49236,1236.1242 120.44406,1236.4877 120.42893,1236.5969 L 120.40143,1236.7956 L 134.15531,1236.7826 L 147.90918,1236.7696 L 147.89258,1236.5578 L 147.89263,1236.5573 z M 115.63708,1240.7703 C 115.2071,1240.639 114.79879,1240.2379 114.65526,1239.8058 C 114.53827,1239.4535 114.56506,1237.9849 114.69386,1237.6918 C 114.81122,1237.4248 115.08112,1237.1335 115.36671,1236.9656 L 115.61096,1236.8221 L 116.94774,1236.8051 C 118.47444,1236.7861 118.30194,1236.8551 118.36453,1236.2392 C 118.44263,1235.4705 118.67602,1233.985 118.87196,1233.0093 C 120.21563,1226.3181 122.6935,1221.8027 126.2288,1219.6031 C 127.23562,1218.9768 128.57543,1218.4882 129.76249,1218.3146 L 130.19832,1218.2506 L 130.19832,1217.6853 L 130.19832,1217.1201 L 129.73503,1217.0531 C 125.10463,1216.3774 121.58412,1212.35 119.6151,1205.4763 C 119.04844,1203.4981 118.60167,1201.2447 118.35865,1199.1389 L 118.26885,1198.3612 L 116.93989,1198.3442 C 115.68746,1198.3292 115.59833,1198.3212 115.39234,1198.2108 C 115.08285,1198.0452 114.75213,1197.6491 114.65759,1197.3308 C 114.54621,1196.9557 114.54823,1195.6553 114.66059,1195.3252 C 114.76523,1195.0181 115.04728,1194.6878 115.36372,1194.5017 L 115.61079,1194.3565 L 134.16931,1194.3565 L 152.72783,1194.3565 L 152.9661,1194.4975 C 153.26355,1194.6733 153.4507,1194.8709 153.60997,1195.1772 C 153.72083,1195.3904 153.73574,1195.5 153.75179,1196.2198 C 153.77289,1197.1669 153.70899,1197.4682 153.41367,1197.8132 C 153.30823,1197.9364 153.11077,1198.1026 152.97488,1198.1824 L 152.72783,1198.3277 L 151.39087,1198.3447 C 150.36839,1198.3567 150.05392,1198.3767 150.05392,1198.4267 C 150.05392,1198.7869 149.74554,1200.9007 149.51993,1202.0871 C 148.1297,1209.3976 145.2344,1214.3476 141.23796,1216.2468 C 140.30457,1216.6902 139.33767,1216.981 138.48463,1217.0747 C 138.11158,1217.1157 138.07247,1217.1846 138.10258,1217.749 C 138.11618,1218.005 138.13678,1218.2239 138.14818,1218.2354 C 138.15968,1218.2474 138.39486,1218.2924 138.67095,1218.3381 C 143.40429,1219.1104 146.88313,1223.2207 148.83998,1230.3529 C 149.30415,1232.0447 149.72873,1234.2135 149.92491,1235.8949 C 149.97421,1236.3171 150.02261,1236.6923 150.03253,1236.7288 C 150.04633,1236.7798 150.34281,1236.7948 151.28711,1236.7948 C 152.67904,1236.7948 152.85094,1236.8258 153.22677,1237.1478 C 153.34782,1237.2514 153.51098,1237.4586 153.58935,1237.6082 C 153.72247,1237.8623 153.73309,1237.9332 153.75077,1238.6845 C 153.76537,1239.3032 153.75024,1239.5547 153.68667,1239.7746 C 153.58837,1240.1127 153.26674,1240.5042 152.94645,1240.6755 L 152.72787,1240.7924 L 134.24877,1240.8024 C 124.08527,1240.8124 115.70996,1240.7924 115.63696,1240.7704 L 115.63708,1240.7703 z"
       inkscape:connector-curvature="0" />
  </g>
</svg>
