<?xml version="1.0" encoding="UTF-8" standalone="no"?>
<!-- Created with Inkscape (http://www.inkscape.org/) -->
<svg
   xmlns:dc="http://purl.org/dc/elements/1.1/"
   xmlns:cc="http://creativecommons.org/ns#"
   xmlns:rdf="http://www.w3.org/1999/02/22-rdf-syntax-ns#"
   xmlns:svg="http://www.w3.org/2000/svg"
   xmlns="http://www.w3.org/2000/svg"
   xmlns:sodipodi="http://sodipodi.sourceforge.net/DTD/sodipodi-0.dtd"
   xmlns:inkscape="http://www.inkscape.org/namespaces/inkscape"
   id="svg416"
   sodipodi:version="0.32"
   inkscape:version="0.46"
   width="210mm"
   height="297mm"
   sodipodi:docname="show_light.svg"
   inkscape:output_extension="org.inkscape.output.svg.inkscape">
  <metadata
     id="metadata421">
    <rdf:RDF>
      <cc:Work
         rdf:about="">
        <dc:format>image/svg+xml</dc:format>
        <dc:type
           rdf:resource="http://purl.org/dc/dcmitype/StillImage" />
      </cc:Work>
    </rdf:RDF>
  </metadata>
  <defs
     id="defs419">
    <inkscape:perspective
       sodipodi:type="inkscape:persp3d"
       inkscape:vp_x="0 : 526.18109 : 1"
       inkscape:vp_y="0 : 1000 : 0"
       inkscape:vp_z="744.09448 : 526.18109 : 1"
       inkscape:persp3d-origin="372.04724 : 350.78739 : 1"
       id="perspective423" />
  </defs>
  <sodipodi:namedview
     inkscape:window-height="705"
     inkscape:window-width="641"
     inkscape:pageshadow="2"
     inkscape:pageopacity="0.0"
     guidetolerance="10.0"
     gridtolerance="10.0"
     objecttolerance="10.0"
     borderopacity="1.0"
     bordercolor="#666666"
     pagecolor="#ffffff"
     id="base"
     showgrid="false"
     inkscape:zoom="0.46942014"
     inkscape:cx="372.04724"
     inkscape:cy="526.18109"
     inkscape:window-x="0"
     inkscape:window-y="27"
     inkscape:current-layer="svg416" />
  <g
     id="Show_Light"
     transform="translate(-102.21124,-363.3967)">
    <rect
       ry="3.4032497"
       rx="3.4032497"
       y="361.22073"
       x="102.16556"
       height="64"
       width="64"
       id="rect3545"
       style="fill:#dcf7fa;fill-opacity:1;fill-rule:evenodd;stroke:none" />
    <path
       id="path3547"
       style="fill:#464e4f;fill-opacity:1;fill-rule:evenodd;stroke:none"
       d="M 130.65891,383.19498 C 123.9191,383.19498 118.45532,388.65868 118.45532,395.39848 C 118.45532,402.13838 123.9191,407.60208 130.65891,407.60208 C 137.39871,407.60208 142.86249,402.13838 142.86249,395.39848 C 142.86249,388.65868 137.39871,383.19498 130.65891,383.19498 z M 134.61457,386.12028 C 136.90301,386.12028 138.75806,387.97538 138.75806,390.26378 C 138.75806,392.55228 136.90301,394.40728 134.61457,394.40728 C 132.32612,394.40728 130.47108,392.55228 130.47108,390.26378 C 130.47108,387.97538 132.32612,386.12028 134.61457,386.12028 L 134.61457,386.12028 z M 124.3245,376.64038 C 109.65247,383.95568 103.74728,398.04588 103.74729,398.04588 C 105.68031,395.22628 108.01098,392.73348 110.52138,390.54098 C 106.65721,396.58558 104.92425,402.26068 104.92423,402.26068 L 102.16556,405.92538 C 102.49687,406.85078 105.94283,408.39728 107.06248,405.02358 C 118.42606,370.78318 143.90589,379.25278 153.39209,383.83958 C 153.40309,383.84958 153.44009,383.88158 153.45109,383.88658 C 153.54449,383.98658 154.39675,384.28068 155.78512,385.07018 C 155.5512,387.13598 154.3704,399.43558 144.54258,408.08548 C 138.29894,413.58068 125.52677,413.59468 115.04954,413.17608 C 115.04954,413.17608 128.273,415.79638 140.08072,412.24498 C 153.8976,408.08928 158.46153,390.96538 158.95093,385.64348 C 159.32724,385.50038 159.61638,385.30598 159.6092,385.30008 C 159.5977,385.29008 165.9114,381.94478 163.58067,380.88498 C 158.85286,378.73538 154.62405,377.22758 150.69685,376.27588 C 149.04225,375.87488 147.46106,375.59618 145.89626,375.38418 C 151.50215,374.36068 155.41859,374.01528 155.74264,373.85378 C 155.72474,373.84378 155.72354,373.81378 155.68364,373.80678 C 155.11977,373.70978 151.46888,372.71568 145.73978,372.40608 C 137.14612,371.94168 130.06573,373.77788 124.3245,376.64038 L 124.3245,376.64038 z"
       inkscape:connector-curvature="0" />
  </g>
</svg>
