<?xml version="1.0" encoding="UTF-8" standalone="no"?>
<!-- Created with Inkscape (http://www.inkscape.org/) -->
<svg
   xmlns:dc="http://purl.org/dc/elements/1.1/"
   xmlns:cc="http://creativecommons.org/ns#"
   xmlns:rdf="http://www.w3.org/1999/02/22-rdf-syntax-ns#"
   xmlns:svg="http://www.w3.org/2000/svg"
   xmlns="http://www.w3.org/2000/svg"
   xmlns:sodipodi="http://sodipodi.sourceforge.net/DTD/sodipodi-0.dtd"
   xmlns:inkscape="http://www.inkscape.org/namespaces/inkscape"
   id="svg320"
   sodipodi:version="0.32"
   inkscape:version="0.46"
   width="210mm"
   height="297mm"
   sodipodi:docname="teacher_dark.svg"
   inkscape:output_extension="org.inkscape.output.svg.inkscape">
  <metadata
     id="metadata325">
    <rdf:RDF>
      <cc:Work
         rdf:about="">
        <dc:format>image/svg+xml</dc:format>
        <dc:type
           rdf:resource="http://purl.org/dc/dcmitype/StillImage" />
      </cc:Work>
    </rdf:RDF>
  </metadata>
  <defs
     id="defs323">
    <inkscape:perspective
       sodipodi:type="inkscape:persp3d"
       inkscape:vp_x="0 : 526.18109 : 1"
       inkscape:vp_y="0 : 1000 : 0"
       inkscape:vp_z="744.09448 : 526.18109 : 1"
       inkscape:persp3d-origin="372.04724 : 350.78739 : 1"
       id="perspective327" />
  </defs>
  <sodipodi:namedview
     inkscape:window-height="705"
     inkscape:window-width="641"
     inkscape:pageshadow="2"
     inkscape:pageopacity="0.0"
     guidetolerance="10.0"
     gridtolerance="10.0"
     objecttolerance="10.0"
     borderopacity="1.0"
     bordercolor="#666666"
     pagecolor="#ffffff"
     id="base"
     showgrid="false"
     inkscape:zoom="0.46942014"
     inkscape:cx="372.04724"
     inkscape:cy="526.18109"
     inkscape:window-x="0"
     inkscape:window-y="27"
     inkscape:current-layer="svg320" />
  <g
     id="Professor_Dark"
     transform="translate(-104.34153,-283.63613)">
    <rect
       ry="3.4032497"
       rx="3.4032497"
       y="285.72073"
       x="102.16556"
       height="64"
       width="64"
       id="rect3380"
       style="fill:#464e4f;fill-opacity:1;fill-rule:evenodd;stroke:none" />
    <path
       inkscape:connector-curvature="0"
       id="path3376"
       d="M 104.28613,335.94977 C 104.28613,335.94077 104.29513,335.93577 104.30013,335.93577 C 104.30913,335.93577 104.31413,335.94477 104.31413,335.94977 C 104.31413,335.95877 104.30513,335.96377 104.30013,335.96377 C 104.29113,335.96377 104.28613,335.95477 104.28613,335.94977 z M 156.06494,334.72362 C 156.03604,334.69282 156.01264,334.66012 156.01264,334.65172 C 156.01264,334.64272 156.04904,334.58912 156.09484,334.53024 C 156.13964,334.47144 156.21211,334.37459 156.25525,334.31437 C 156.29815,334.25367 156.38672,334.14966 156.45142,334.08215 C 156.51582,334.01495 156.56916,333.95508 156.56916,333.94957 C 156.56916,333.94057 156.58316,333.92337 156.60086,333.90477 C 156.61856,333.88517 156.66526,333.83007 156.70432,333.78058 C 156.74352,333.73198 156.78832,333.6776 156.80422,333.6607 C 156.82012,333.6439 156.85182,333.6047 156.87522,333.5748 L 156.91722,333.5197 L 156.84622,333.5598 C 156.71905,333.6317 156.5929,333.69995 156.41886,333.7907 C 156.32476,333.8402 156.24566,333.8901 156.24314,333.90247 C 156.23414,333.92577 156.21694,333.93137 156.14974,333.92577 C 156.12174,333.92577 156.09654,333.93477 156.06854,333.96127 L 156.02834,333.99957 L 155.96674,333.96597 C 155.89954,333.92857 155.88274,333.88757 155.91354,333.83068 C 155.92754,333.80548 155.93964,333.79898 155.96864,333.80458 C 155.98914,333.80458 155.99754,333.80458 155.98824,333.80458 C 155.96114,333.79148 155.96674,333.76998 155.99724,333.76998 C 156.01214,333.76998 156.02894,333.75788 156.03364,333.74198 C 156.04264,333.72708 156.06444,333.70088 156.09154,333.68408 C 156.11864,333.66728 156.14104,333.64958 156.14104,333.64398 C 156.14114,333.63498 156.17654,333.59638 156.21944,333.54888 C 156.26234,333.50218 156.29784,333.45828 156.29784,333.45298 C 156.29784,333.44398 156.33514,333.39878 156.38004,333.34597 C 156.42574,333.29277 156.48443,333.22048 156.51141,333.18509 C 156.53851,333.14959 156.59451,333.08155 156.63625,333.03337 C 156.70905,332.94937 156.75791,332.87352 156.80292,332.77501 C 156.81602,332.74511 156.83462,332.72831 156.85242,332.72831 C 156.87112,332.72831 156.90282,332.69661 156.94712,332.63201 C 156.98352,332.57881 157.02832,332.51473 157.04662,332.48906 C 157.07552,332.44886 157.07832,332.43586 157.06532,332.39006 C 157.05632,332.36116 157.05412,332.31536 157.05632,332.28885 C 157.06532,332.24685 157.05632,332.23375 157.01522,332.19365 C 156.96012,332.14225 156.95362,332.11805 156.99092,332.10495 C 157.02732,332.09095 157.09354,332.04425 157.15853,331.98609 C 157.19023,331.95809 157.22953,331.92539 157.24533,331.91419 C 157.29953,331.87779 157.62134,331.63109 157.74076,331.53501 C 157.85672,331.44161 157.93562,331.36321 157.93562,331.34117 C 157.93562,331.28707 157.32031,331.74435 156.97978,332.05173 C 156.95268,332.07603 156.88828,332.13393 156.83721,332.17955 C 156.72133,332.28291 156.41218,332.58534 156.12852,332.87274 C 156.00947,332.99337 155.84103,333.16275 155.7541,333.24902 C 155.6673,333.33492 155.59612,333.41392 155.59612,333.42372 C 155.59612,333.45822 155.52612,333.44142 155.47586,333.39382 C 155.41146,333.33222 155.40766,333.28075 155.46686,333.24508 C 155.52756,333.20768 155.79272,332.96114 156.12765,332.6293 C 156.2903,332.46814 156.43904,332.32342 156.45827,332.30773 C 156.47787,332.29183 156.55637,332.22183 156.63353,332.15087 C 156.81346,331.98607 157.05912,331.77169 157.165,331.68719 C 157.1995,331.66009 157.26659,331.60499 157.31439,331.56562 C 157.36199,331.52642 157.47723,331.43947 157.57014,331.37299 C 157.79021,331.21557 157.79516,331.2123 158.04073,331.06674 C 158.11823,331.02094 158.19171,330.96704 158.20478,330.94675 C 158.21788,330.92625 158.25708,330.87015 158.29258,330.8221 C 158.46447,330.58709 158.58287,330.34479 158.61219,330.16795 C 158.64019,329.99698 158.65699,329.74712 158.63929,329.74712 C 158.63029,329.74712 158.60479,329.78722 158.57859,329.83582 C 158.51879,329.94721 158.43004,330.06598 158.29456,330.21472 C 158.23666,330.27822 158.18121,330.3417 158.17131,330.35599 C 158.16101,330.36999 158.12371,330.41389 158.08731,330.45289 C 158.05091,330.49209 158.02191,330.52849 158.02191,330.53319 C 158.02173,330.54439 157.80006,330.73291 157.68653,330.81844 C 157.5798,330.89874 157.3911,331.02797 157.31566,331.07232 C 156.80174,331.37437 156.52854,331.52844 156.06738,331.77624 C 156.00858,331.80794 155.95076,331.84164 155.93899,331.85094 C 155.92689,331.85994 155.86619,331.89384 155.80351,331.92564 C 155.74091,331.95734 155.66047,331.99844 155.62517,332.01804 C 155.37494,332.15352 155.329,332.17958 155.29875,332.20282 C 155.28005,332.21682 155.25955,332.22902 155.25205,332.22902 C 155.24305,332.22902 155.13067,332.28972 154.99715,332.3645 C 154.86354,332.4392 154.75056,332.50007 154.74598,332.50007 C 154.74598,332.50007 154.72078,332.51217 154.70028,332.52717 C 154.58851,332.60657 153.9084,332.93427 153.28627,333.20934 C 152.95835,333.35425 152.95032,333.3578 152.78645,333.42699 C 152.72765,333.45219 152.66666,333.47839 152.65097,333.48489 C 152.60617,333.50539 152.47618,333.54929 152.35853,333.58409 C 152.29973,333.60179 152.21101,333.62799 152.16152,333.64289 C 152.11112,333.65779 152.03827,333.69519 151.99579,333.72689 C 151.95469,333.75859 151.86862,333.80629 151.8055,333.83371 C 151.70214,333.87851 151.67851,333.88321 151.5646,333.88221 C 151.4955,333.88165 151.42557,333.87321 151.40988,333.86911 C 151.37348,333.85321 151.37258,333.85421 151.51838,333.84861 C 151.63967,333.83961 151.70652,333.82341 151.74322,333.77861 C 151.77592,333.73941 151.73112,333.73571 151.69092,333.76961 C 151.66292,333.79571 151.63682,333.80601 151.59232,333.80601 C 151.55872,333.80629 151.52602,333.80601 151.51852,333.81501 C 151.50172,333.82531 151.47002,333.77021 151.47932,333.74501 C 151.47932,333.73471 151.52322,333.71511 151.56892,333.70111 C 151.61372,333.68711 151.68377,333.65071 151.72363,333.62081 C 151.76383,333.59091 151.80303,333.56571 151.81233,333.56571 C 151.82133,333.56571 151.83663,333.55671 151.84593,333.54421 C 151.86273,333.52461 151.98039,333.48441 152.1886,333.42964 C 152.24,333.41564 152.3098,333.39604 152.34453,333.38484 C 152.37903,333.37364 152.41643,333.36524 152.42573,333.36524 C 152.44533,333.36524 152.69688,333.263 152.75888,333.23004 C 152.77848,333.21974 152.85548,333.18714 152.93003,333.15814 C 153.00473,333.12914 153.07196,333.10114 153.0798,333.09554 C 153.0888,333.08654 153.1386,333.06654 153.19399,333.04414 C 153.24909,333.02174 153.3516,332.97504 153.42219,332.93966 C 153.49319,332.90506 153.67579,332.82164 153.82873,332.75535 C 153.98176,332.68905 154.16795,332.60241 154.24246,332.56272 C 154.31716,332.52252 154.44535,332.45516 154.5278,332.41202 C 154.61,332.36902 154.69456,332.32142 154.71547,332.30707 C 154.73597,332.29217 154.75747,332.28097 154.76307,332.28097 C 154.77207,332.28097 154.87241,332.22497 154.99435,332.15613 C 155.1162,332.08793 155.30668,331.98405 155.4176,331.92616 C 155.58194,331.84026 155.8149,331.71421 156.16849,331.51925 C 156.18809,331.50805 156.25529,331.47255 156.31826,331.43895 C 156.38086,331.40535 156.46616,331.35675 156.50752,331.33036 C 156.54862,331.30426 156.63871,331.25376 156.70724,331.21841 C 156.77544,331.18291 156.88315,331.12501 156.9459,331.09021 C 157.0085,331.05471 157.08493,331.01271 157.11537,330.99621 C 157.14527,330.97941 157.20997,330.93931 157.25795,330.90561 C 157.30655,330.87201 157.38484,330.82161 157.43311,330.79404 C 157.68344,330.64838 158.06196,330.31084 158.26084,330.05566 C 158.33084,329.96606 158.43937,329.7973 158.46663,329.73605 C 158.47563,329.71925 158.50213,329.66415 158.52923,329.61345 C 158.59743,329.48535 158.63409,329.37358 158.62633,329.31383 C 158.60203,329.12512 158.53953,328.85117 158.49729,328.75033 C 158.41889,328.56107 158.20233,328.30701 157.91895,328.07106 C 157.86195,328.02346 157.78692,327.96023 157.75163,327.92969 C 157.64715,327.83909 157.08543,327.44491 156.93118,327.35331 C 156.76292,327.25341 156.70064,327.21428 156.48197,327.07105 C 156.39137,327.01225 156.29541,326.95135 156.26796,326.93651 C 156.19976,326.89911 156.15797,326.87301 155.96834,326.74594 C 155.87774,326.68524 155.76889,326.61811 155.72576,326.59626 C 155.65196,326.55886 155.48178,326.46209 155.31931,326.36526 C 155.28011,326.34196 155.18056,326.27846 155.09821,326.22408 C 155.01601,326.16998 154.92277,326.11475 154.89139,326.10158 C 154.85969,326.08848 154.73799,326.03808 154.62034,325.98982 C 154.5026,325.94122 154.37421,325.8886 154.335,325.87245 C 154.2958,325.85655 154.20913,325.81735 154.14246,325.78565 C 153.97907,325.70905 153.84414,325.65736 153.48205,325.53337 C 153.16001,325.423 152.7419,325.25437 152.61379,325.18332 C 152.59329,325.17212 152.56899,325.16182 152.56149,325.16182 C 152.52689,325.16182 152.0373,324.92139 151.97605,324.87424 C 151.95735,324.86024 151.93585,324.84814 151.92745,324.84814 C 151.91845,324.84814 151.88355,324.82944 151.84715,324.80704 C 151.81075,324.78464 151.73034,324.73604 151.6676,324.69929 C 151.45648,324.5752 151.23062,324.43449 151.08132,324.33393 C 151.00012,324.27883 150.88963,324.21423 150.83669,324.19005 C 150.72688,324.13965 150.44285,323.9738 150.30522,323.8794 C 150.09028,323.73197 150.05246,323.70517 149.9914,323.65746 C 149.9559,323.62946 149.898,323.58646 149.86301,323.56166 C 149.82751,323.53646 149.72819,323.45447 149.64191,323.37912 C 149.55511,323.30352 149.40522,323.17482 149.30783,323.09266 C 148.60456,322.49975 148.32482,322.21908 148.01464,321.79499 C 147.85386,321.5751 147.52715,320.98835 147.43042,320.74578 C 147.39302,320.65208 147.32108,320.48574 147.27057,320.37631 C 147.22017,320.26688 147.14984,320.1032 147.11445,320.01253 C 147.07895,319.92193 147.04445,319.83485 147.03785,319.81916 C 147.02885,319.80326 147.00235,319.71683 146.97345,319.62663 C 146.90715,319.41683 146.8671,319.31113 146.8446,319.28424 C 146.8343,319.27214 146.8072,319.22444 146.7839,319.17724 C 146.7606,319.13054 146.68278,318.9763 146.61125,318.83531 C 146.53935,318.69432 146.48128,318.57042 146.48128,318.55996 C 146.48128,318.54966 146.47008,318.52076 146.45698,318.49556 C 146.42708,318.43956 146.37388,318.31732 146.33867,318.22171 C 146.32377,318.18251 146.29847,318.11508 146.28167,318.07185 C 146.21257,317.89341 146.08662,317.4964 146.04563,317.33011 C 146.03353,317.27871 146.01293,317.19883 146.00083,317.15177 C 145.98873,317.10507 145.97003,317.03085 145.95973,316.98772 C 145.93643,316.89432 145.91773,316.80265 145.89533,316.66671 C 145.88633,316.61161 145.87383,316.54122 145.86733,316.50984 C 145.85833,316.47814 145.84773,316.40144 145.83933,316.3386 C 145.83033,316.276 145.81783,316.19238 145.81043,316.15317 C 145.71393,315.63673 145.68821,314.30815 145.76183,313.6356 C 145.81783,313.12281 145.8721,312.79461 145.96024,312.437 C 145.97894,312.3623 146.00134,312.26295 146.01064,312.2159 C 146.01964,312.1692 146.03584,312.09825 146.04614,312.05903 C 146.05644,312.01983 146.06854,311.93018 146.07324,311.85997 C 146.08354,311.71729 146.11994,311.55259 146.17501,311.40282 C 146.19551,311.34772 146.21801,311.27724 146.22541,311.24586 C 146.23441,311.21416 146.24971,311.16086 146.26181,311.12794 C 146.28611,311.06354 146.28141,310.90833 146.25281,310.85669 C 146.24381,310.84269 146.23231,310.76799 146.22391,310.69124 C 146.21491,310.61464 146.20241,310.53998 146.19491,310.52616 C 146.18281,310.50376 146.17251,310.44866 146.14541,310.26155 C 146.14541,310.22975 146.12771,310.15314 146.11741,310.0904 C 146.09031,309.93727 146.07261,309.80095 146.03621,309.46976 C 146.01941,309.31682 145.99701,309.12419 145.98761,309.04184 C 145.97731,308.95964 145.97171,308.78292 145.97361,308.6495 C 145.97361,308.35435 145.99881,308.26051 146.10601,308.06462 C 146.11501,308.04872 146.14151,307.99272 146.16671,307.93988 C 146.22271,307.82064 146.25541,307.78077 146.39071,307.67143 C 146.48311,307.59673 146.50911,307.58273 146.58306,307.57106 C 146.63066,307.56206 146.70378,307.53746 146.74748,307.51316 L 146.82588,307.46836 L 146.88568,307.49736 C 146.93888,307.52346 146.94918,307.52446 146.98408,307.50636 L 147.02238,307.48586 L 147.02238,307.25449 C 147.02238,307.10706 147.01338,306.97652 146.99998,306.89473 C 146.98788,306.82373 146.97198,306.73423 146.96448,306.69501 C 146.95238,306.62781 146.94018,306.49585 146.90848,306.09351 C 146.89448,305.92143 146.87578,305.8458 146.84598,305.84673 C 146.83198,305.84711 146.6667,306.05943 146.65335,306.09463 C 146.65335,306.10363 146.63935,306.11613 146.62905,306.12453 C 146.60195,306.14603 146.41664,306.3813 146.28078,306.56702 C 146.03559,306.90213 145.97648,306.98103 145.94987,307.00894 C 145.93497,307.02484 145.89757,307.07614 145.86587,307.12314 C 145.83507,307.16984 145.77717,307.2504 145.73739,307.30148 C 145.69819,307.35288 145.64499,307.42202 145.61984,307.456 C 145.59464,307.4896 145.55354,307.5419 145.52834,307.57188 C 145.50314,307.60178 145.48164,307.63258 145.48164,307.64188 C 145.48164,307.65088 145.46854,307.66428 145.45264,307.67268 C 145.43674,307.68168 145.42374,307.69698 145.42374,307.70728 C 145.42374,307.71848 145.40134,307.75398 145.37424,307.78668 C 145.34714,307.81938 145.32474,307.85208 145.32474,307.85858 C 145.32474,307.86758 145.30234,307.89308 145.27524,307.92118 C 145.24814,307.94828 145.22574,307.97998 145.22574,307.99028 C 145.22574,308.00148 145.20804,308.02668 145.18654,308.04628 C 145.13704,308.09298 145.0546,308.19437 145.05451,308.20959 C 145.05451,308.21859 145.03211,308.24599 145.00501,308.27589 C 144.97791,308.30579 144.95551,308.33569 144.95551,308.34129 C 144.95551,308.35029 144.93781,308.37579 144.91631,308.40389 C 144.81641,308.5348 144.78438,308.58148 144.78438,308.59623 C 144.78438,308.60523 144.77228,308.61863 144.75728,308.62703 C 144.73208,308.64103 144.49911,308.94542 144.49911,308.96512 C 144.49911,308.97412 144.47291,309.00252 144.44211,309.03612 C 144.41041,309.06972 144.38511,309.10522 144.38511,309.11362 C 144.38511,309.12262 144.36921,309.14632 144.34961,309.16782 C 144.33001,309.18932 144.31411,309.21452 144.31411,309.22382 C 144.31411,309.23282 144.30201,309.24812 144.28701,309.25552 C 144.27211,309.26452 144.22911,309.31342 144.19161,309.36663 C 144.15421,309.41983 144.08274,309.51397 144.03325,309.57597 C 143.98375,309.63757 143.94365,309.69716 143.94365,309.70743 C 143.94365,309.71773 143.93155,309.73263 143.91565,309.74103 C 143.88765,309.75593 143.86895,309.78023 143.73423,309.97436 C 143.69403,310.03226 143.6248,310.11797 143.58082,310.16409 C 143.53692,310.20979 143.50052,310.25369 143.50052,310.26049 C 143.50052,310.26949 143.47812,310.29789 143.45102,310.32869 C 143.42392,310.35949 143.40152,310.39309 143.40152,310.40429 C 143.40152,310.41549 143.38562,310.43699 143.36602,310.45289 C 143.34642,310.46779 143.33052,310.48839 143.33052,310.49679 C 143.33052,310.50579 143.32152,310.51269 143.31652,310.51269 C 143.30752,310.51269 143.29882,310.52859 143.29412,310.54819 C 143.28512,310.56779 143.27262,310.58739 143.25772,310.59209 C 143.24282,310.60109 143.21762,310.62479 143.20172,310.65279 C 143.18582,310.68169 143.14382,310.74059 143.10932,310.78369 C 143.00503,310.91115 142.84611,311.14821 142.84611,311.17641 C 142.84611,311.18541 142.87501,311.21001 142.90961,311.23151 C 142.94411,311.25391 142.98431,311.28471 142.99831,311.30061 C 143.01231,311.31651 143.05901,311.35571 143.10195,311.38741 C 143.14495,311.41911 143.21007,311.47421 143.24695,311.51038 C 143.37328,311.63298 143.42352,311.67808 143.46115,311.70216 C 143.48165,311.71526 143.57179,311.79836 143.66105,311.88629 C 143.75065,311.97409 143.8843,312.10403 143.95872,312.17472 C 144.03342,312.24572 144.10961,312.32243 144.12875,312.34586 C 144.14835,312.36916 144.22815,312.45978 144.30709,312.54671 C 144.47077,312.72701 144.56629,312.83924 144.60756,312.89946 C 144.69256,313.0229 144.74714,313.11011 144.78477,313.18032 C 144.80807,313.22322 144.84357,313.27812 144.86507,313.30161 C 144.88657,313.32491 144.91267,313.35861 144.92387,313.37441 C 144.94537,313.40711 145.00417,313.58113 145.02107,313.66498 C 145.03007,313.69208 145.05277,313.78552 145.07987,313.8718 C 145.13217,314.0408 145.17727,314.2831 145.19303,314.47908 C 145.20423,314.61568 145.19303,314.7 145.07688,315.19132 C 145.05258,315.29757 145.00308,315.44846 144.98628,315.46956 C 144.96388,315.49756 144.93118,315.61354 144.90788,315.74743 C 144.88548,315.87871 144.85368,315.99552 144.77203,316.24697 C 144.75053,316.31417 144.72163,316.41644 144.70763,316.47526 C 144.68053,316.58843 144.64603,316.69319 144.59829,316.81046 C 144.41837,317.24865 144.30623,317.49851 144.21398,317.6664 C 144.17948,317.7289 144.11388,317.86397 144.06822,317.96602 C 144.02252,318.06798 143.96402,318.19637 143.93806,318.25127 C 143.91196,318.30637 143.87366,318.39292 143.85216,318.4439 C 143.83066,318.4953 143.80826,318.5467 143.80176,318.55902 C 143.79276,318.57112 143.77376,318.62622 143.75226,318.68031 C 143.73076,318.73451 143.69156,318.82877 143.66356,318.88956 C 143.63556,318.95026 143.60106,319.04978 143.58606,319.11066 C 143.53096,319.33522 143.36439,319.74306 143.1445,320.19143 C 143.0904,320.30123 143.01743,320.45427 142.98185,320.53158 C 142.94635,320.60908 142.88945,320.71468 142.85449,320.76697 C 142.81999,320.81927 142.75431,320.9313 142.70865,321.01627 C 142.66295,321.10127 142.61175,321.18452 142.59483,321.2017 C 142.57803,321.2185 142.55933,321.2475 142.55373,321.2652 C 142.54473,321.2829 142.53783,321.2969 142.53033,321.2969 C 142.52133,321.2969 142.49953,321.324 142.47803,321.3567 C 142.41543,321.4504 142.40243,321.46921 142.28587,321.62663 C 142.22517,321.70883 142.1291,321.83457 142.07186,321.90721 C 141.91565,322.10544 141.88223,322.15007 141.79716,322.27454 C 141.75426,322.33714 141.66066,322.46249 141.58923,322.55269 C 141.51733,322.64329 141.43488,322.75204 141.40501,322.79527 C 141.34061,322.88767 141.27895,322.96053 141.1318,323.11581 C 141.03012,323.22309 140.98446,323.27501 140.7023,323.60433 C 140.5628,323.76717 140.06373,324.26521 139.91359,324.39144 C 139.85099,324.44464 139.76102,324.51563 139.71387,324.55008 C 139.60939,324.62668 139.4346,324.76577 139.35673,324.8344 C 139.29513,324.8895 139.13684,325.01432 139.08623,325.04915 C 139.06943,325.06125 139.02643,325.09115 138.99223,325.11635 C 138.83145,325.23427 138.77347,325.27153 138.50138,325.43138 C 138.37683,325.50418 138.32379,325.54221 138.17244,325.665 C 138.10704,325.7182 137.98336,325.79086 137.81613,325.87499 C 137.67514,325.94599 137.54377,326.01327 137.52416,326.02475 C 137.50456,326.03595 137.42108,326.07705 137.33873,326.11535 C 137.25653,326.15365 137.18009,326.19565 137.16935,326.20895 C 137.15905,326.22205 137.13575,326.23225 137.11895,326.23225 C 137.08255,326.23225 136.907,326.30505 136.6041,326.44533 C 136.5182,326.48543 136.30644,326.57063 136.0549,326.66699 C 135.9802,326.69589 135.86479,326.74079 135.79813,326.76659 C 135.73093,326.79269 135.64472,326.82539 135.6055,326.83939 C 135.5663,326.85339 135.5177,326.87489 135.4985,326.88789 C 135.4789,326.90099 135.4341,326.92429 135.3987,326.94019 C 135.3632,326.95609 135.3091,326.98029 135.27742,326.99429 C 135.23632,327.01299 135.17555,327.02139 135.05874,327.02419 C 134.91682,327.02419 134.89067,327.03319 134.84473,327.06249 C 134.73922,327.13069 134.67106,327.14649 134.43287,327.15489 C 134.18124,327.16389 134.18535,327.16389 134.11121,327.15489 C 134.03461,327.14179 133.98731,327.15489 133.96761,327.20349 C 133.93211,327.28379 133.86881,327.37772 133.84949,327.37772 C 133.81679,327.37772 133.82619,327.35062 133.88499,327.28042 C 133.97999,327.16585 133.98555,327.13756 133.91579,327.1258 C 133.77918,327.1025 133.53044,327.0922 132.96686,327.0866 C 132.59813,327.0866 132.2662,327.0763 132.22932,327.0726 C 132.19192,327.0726 132.0704,327.0558 131.95826,327.0437 C 131.84612,327.0316 131.66442,327.011 131.55462,326.9989 C 131.44472,326.9868 131.30999,326.9681 131.25499,326.9578 C 131.15529,326.9382 131.09346,326.9279 130.7985,326.885 C 130.64845,326.8626 130.47525,326.8355 130.30634,326.8066 C 130.26344,326.7976 130.18412,326.787 130.13071,326.7795 C 130.07751,326.7705 130.02754,326.7618 130.02035,326.7571 C 130.01135,326.7571 129.94095,326.7394 129.86078,326.7282 C 129.54257,326.6834 129.53024,326.6815 129.22221,326.61485 C 129.09271,326.58685 128.94191,326.55695 128.88692,326.54855 C 128.78449,326.53365 128.5336,326.47105 128.2307,326.38674 C 128.1366,326.36064 128.0082,326.32794 127.94546,326.31484 C 127.78504,326.28214 127.75479,326.27374 127.54601,326.20924 C 127.44396,326.17754 127.29634,326.13544 127.21791,326.11464 C 127.13951,326.09414 127.01427,326.05954 126.93976,326.03714 C 126.86506,326.01474 126.76889,325.98864 126.72575,325.97834 C 126.68275,325.96804 126.5927,325.94284 126.52603,325.92134 C 126.45973,325.89984 126.34694,325.86534 126.27635,325.84384 C 125.98168,325.75704 125.28111,325.52722 125.20642,325.49361 C 125.17462,325.47961 125.04666,325.43291 124.92117,325.38903 C 124.66085,325.29943 124.47924,325.23301 124.38615,325.19463 C 124.21463,325.12363 123.9263,325.01751 123.83694,324.99211 C 123.65851,324.94171 123.60986,324.92581 123.53741,324.89621 C 123.37737,324.83081 122.79716,324.63617 122.66719,324.60396 C 122.59529,324.58626 122.26887,324.46502 122.12106,324.40134 C 122.09496,324.39014 122.06596,324.38084 122.05476,324.38084 C 122.04446,324.38084 122.00436,324.36874 121.96606,324.35374 C 121.92776,324.33884 121.83282,324.30614 121.75504,324.27994 C 121.67754,324.25474 121.59706,324.22484 121.5767,324.21454 C 121.5562,324.20424 121.5328,324.19494 121.5244,324.19494 C 121.5154,324.19494 121.4758,324.17904 121.4357,324.15944 C 121.3946,324.13984 121.3573,324.12394 121.3526,324.12394 C 121.3436,324.12394 121.3087,324.10804 121.2676,324.08844 C 121.2256,324.06884 121.1225,324.03054 121.03791,324.00344 C 120.78394,323.92224 120.72624,323.90055 120.60289,323.84191 C 120.53749,323.81111 120.42063,323.75881 120.3422,323.72622 C 120.19001,323.66272 120.18693,323.66082 120.05873,323.60503 C 120.01303,323.58453 119.96433,323.56863 119.95135,323.56863 C 119.93825,323.56863 119.91495,323.55963 119.90005,323.54993 C 119.88415,323.53963 119.83005,323.51443 119.77923,323.49483 C 119.72783,323.47433 119.65112,323.44253 119.60798,323.42293 C 119.56508,323.40333 119.49743,323.37623 119.45822,323.36313 C 119.41902,323.34913 119.34841,323.32013 119.30126,323.29873 C 119.25456,323.27723 119.19005,323.25023 119.15868,323.23803 C 119.12698,323.22593 119.06628,323.20163 119.02311,323.18483 C 118.98011,323.16713 118.92087,323.14373 118.89183,323.13343 C 118.86293,323.12313 118.79843,323.09513 118.74916,323.07183 C 118.69966,323.04853 118.61442,323.01303 118.55952,322.99243 C 118.50442,322.97193 118.42114,322.94013 118.37408,322.92143 C 118.32738,322.90273 118.26596,322.88033 118.23851,322.87003 C 118.21141,322.86103 118.13403,322.83173 118.06736,322.80563 C 118.00016,322.78043 117.92039,322.74963 117.88902,322.73743 C 117.78725,322.69913 117.54887,322.59803 117.46101,322.55666 C 117.41431,322.53426 117.35298,322.50716 117.32553,322.49506 C 117.1752,322.43066 117.07978,322.38339 116.99033,322.3283 C 116.93523,322.2947 116.85214,322.2452 116.80526,322.21793 C 116.75856,322.19083 116.68145,322.13573 116.63412,322.0944 C 116.58652,322.0533 116.51105,321.9991 116.46586,321.97386 C 116.39026,321.93186 116.17762,321.73119 115.94084,321.47834 C 115.89694,321.43164 115.80097,321.3381 115.72692,321.27022 C 115.65312,321.20202 115.56343,321.11989 115.52804,321.08684 C 115.49254,321.05414 115.42533,320.99444 115.37827,320.95509 C 115.2483,320.84622 115.16632,320.76779 115.13897,320.72605 C 115.12497,320.70555 115.08577,320.65605 115.05027,320.61615 C 115.01477,320.57695 114.97277,320.51795 114.95657,320.48599 C 114.94067,320.45429 114.90237,320.40099 114.87257,320.36863 C 114.77477,320.26162 114.76641,320.23389 114.76016,319.99328 C 114.76016,319.83482 114.7609,319.73903 114.77886,319.63464 C 114.80036,319.50401 114.80316,319.44547 114.79756,319.23949 C 114.79756,319.19749 114.80656,319.14989 114.81906,319.12278 C 114.83866,319.08448 114.84146,319.05278 114.83216,318.92306 C 114.81256,318.63706 114.83216,318.36152 114.90596,317.99131 C 114.91716,317.93251 114.93586,317.83295 114.94796,317.7702 C 114.97036,317.64976 115.03196,317.3998 115.09278,317.18533 C 115.11238,317.11433 115.13568,317.02482 115.14408,316.98561 C 115.15308,316.94641 115.17398,316.87254 115.19268,316.82156 C 115.21138,316.77016 115.29996,316.50409 115.38988,316.22949 C 115.47948,315.95489 115.58231,315.64994 115.61751,315.5519 C 115.72881,315.2419 115.7557,315.14779 115.7388,315.12743 C 115.7229,315.10873 115.7099,315.10873 114.99286,315.12743 C 114.88306,315.12743 114.61985,315.13773 114.40799,315.14333 C 114.19613,315.15233 113.99715,315.15453 113.96578,315.15643 C 113.93408,315.15643 113.72572,315.16543 113.5021,315.16953 C 113.27848,315.17853 112.99286,315.18263 112.86727,315.18633 C 112.74178,315.18633 112.52675,315.19943 112.3894,315.20683 C 112.25214,315.21583 112.10443,315.21893 112.06129,315.21583 C 112.01829,315.21583 111.95392,315.21537 111.91862,315.22483 C 111.88312,315.23383 111.75177,315.23793 111.62618,315.23973 C 111.50069,315.23973 111.34981,315.25183 111.29098,315.26123 C 111.23218,315.27023 111.16148,315.28273 111.13402,315.28733 C 111.10692,315.28733 111.05182,315.29853 111.01283,315.30223 C 110.97363,315.30223 110.90293,315.31253 110.85587,315.31623 C 110.80917,315.31623 110.71918,315.32743 110.65671,315.33113 C 110.59411,315.33113 110.48827,315.34513 110.42132,315.35263 C 110.35412,315.36163 110.22244,315.37313 110.12833,315.38063 C 110.03423,315.38963 109.93467,315.39933 109.90722,315.40393 C 109.88012,315.41293 109.80922,315.41513 109.75027,315.41603 C 109.24335,315.42813 108.91982,315.43933 108.78742,315.44963 C 108.70062,315.45863 108.60796,315.46173 108.58051,315.46083 C 108.55341,315.46046 108.37977,315.46083 108.19536,315.47203 C 108.01095,315.48103 107.73495,315.48513 107.58191,315.48693 C 106.95679,315.49593 106.44895,315.51123 106.22672,315.53273 C 106.09731,315.54583 105.94493,315.55513 105.88816,315.55513 C 105.78134,315.55485 105.61636,315.52713 105.59264,315.50563 C 105.58364,315.49663 105.56744,315.49353 105.55344,315.49353 C 105.52454,315.49353 105.42561,315.44493 105.36333,315.40013 C 105.34003,315.38333 105.27833,315.35813 105.22785,315.34413 C 105.06819,315.30023 105.0258,315.24403 105.03411,315.08567 C 105.03411,315.00537 105.04621,314.9811 105.09391,314.91116 C 105.12381,314.86636 105.24956,314.72741 105.37263,314.60192 C 105.49569,314.47634 105.61081,314.35439 105.62865,314.33086 C 105.66315,314.28516 105.84443,314.09314 105.88953,314.05439 C 105.90443,314.04129 105.92963,314.01609 105.94653,313.99649 C 105.96333,313.97779 106.00533,313.93109 106.04083,313.89397 C 106.07633,313.85657 106.17566,313.75111 106.26193,313.65942 C 106.41385,313.49789 106.68864,313.22002 106.73738,313.17856 C 106.78408,313.13836 107.12496,312.76866 107.12496,312.75746 C 107.12496,312.74846 107.16696,312.70516 107.21856,312.654 C 107.26986,312.6036 107.33985,312.52664 107.37384,312.48351 C 107.40744,312.44061 107.5068,312.33234 107.59401,312.24364 C 107.68181,312.15494 107.75264,312.07622 107.75264,312.06885 C 107.75264,312.05985 107.76164,312.05575 107.77314,312.05575 C 107.78434,312.05575 107.80214,312.04175 107.81144,312.02405 C 107.83384,311.98115 107.89924,311.89987 107.9965,311.79398 C 108.24757,311.51947 108.34767,311.40743 108.37316,311.37251 C 108.40956,311.32301 108.45346,311.27531 108.71686,311.00248 C 108.83525,310.87979 108.98931,310.71611 109.05925,310.6388 C 109.12925,310.5613 109.2937,310.38809 109.42507,310.25364 C 109.55645,310.11909 109.67923,309.9866 109.69809,309.95915 C 109.71679,309.93205 109.74759,309.89565 109.76629,309.87885 C 109.78499,309.86205 109.91597,309.7274 110.0577,309.57922 C 110.19935,309.43114 110.4014,309.22012 110.50663,309.11031 C 110.61177,309.00041 110.71214,308.8992 110.72951,308.88529 C 110.74721,308.87129 110.89646,308.7274 111.06182,308.56549 C 111.22727,308.40349 111.37694,308.2611 111.3944,308.24906 C 111.4121,308.23696 111.485,308.17066 111.55594,308.1006 C 111.62694,308.0306 111.70365,307.96222 111.72568,307.94775 C 111.74808,307.93375 111.88021,307.81124 112.01999,307.67651 C 112.15986,307.54177 112.29992,307.41292 112.33129,307.39032 C 112.36299,307.36792 112.39949,307.33242 112.41249,307.31192 C 112.42559,307.29142 112.47229,307.24562 112.51641,307.21043 C 112.59861,307.14413 112.72192,307.03396 112.92211,306.84862 C 112.98561,306.78982 113.07038,306.71566 113.1096,306.68466 C 113.1488,306.65386 113.1946,306.61556 113.21081,306.59966 C 113.27151,306.54176 113.33154,306.49191 113.40446,306.43953 C 113.44556,306.40963 113.53406,306.33215 113.6011,306.26651 C 113.6683,306.20111 113.76152,306.11842 113.80857,306.08322 C 113.85527,306.04772 113.95199,305.96576 114.02258,305.90022 C 114.19112,305.74391 114.29793,305.65101 114.45825,305.52178 C 114.53105,305.46298 114.62977,305.38023 114.67842,305.337 C 114.72702,305.294 114.8238,305.21366 114.89336,305.15876 C 114.96336,305.10366 115.05751,305.02374 115.10363,304.9807 C 115.14933,304.9377 115.22772,304.87351 115.27693,304.83803 C 115.44434,304.71739 115.50242,304.67379 115.61129,304.58695 C 115.67109,304.53935 115.75863,304.47603 115.80578,304.44643 C 115.85248,304.41653 115.91699,304.36893 115.94836,304.33961 C 115.98006,304.31071 116.01936,304.27701 116.03616,304.26581 C 116.05296,304.25461 116.14596,304.19021 116.24297,304.12333 C 116.34007,304.05613 116.47407,303.96357 116.54073,303.91754 C 116.60703,303.87174 116.69405,303.80745 116.73336,303.77496 C 116.77256,303.74226 116.83026,303.70026 116.86174,303.68136 C 116.89354,303.66266 116.98182,303.60196 117.05894,303.54672 C 117.13644,303.49162 117.24998,303.41367 117.31207,303.37342 C 117.37467,303.33332 117.45866,303.27492 117.49993,303.24364 C 117.62188,303.15124 117.75689,303.0596 117.81039,303.03243 C 117.83749,303.01843 117.89539,302.98103 117.93756,302.94843 C 118.0596,302.85603 118.16763,302.78325 118.2526,302.73592 C 118.2956,302.71162 118.3508,302.67522 118.37501,302.65562 C 118.43851,302.60242 118.63561,302.46785 118.70255,302.43162 C 118.76695,302.39702 119.02403,302.22144 119.29042,302.03087 C 119.38662,301.96177 119.51582,301.87009 119.57753,301.82658 C 119.63913,301.78268 119.7357,301.70771 119.79182,301.65935 C 119.84782,301.61075 119.92413,301.55412 119.9612,301.53302 C 119.9985,301.51152 120.0546,301.47142 120.08566,301.44242 C 120.16406,301.37052 120.21815,301.33644 120.28538,301.31739 C 120.40237,301.28379 121.11013,301.16398 121.2626,301.15138 C 121.71778,301.11398 122.10836,301.09438 122.72479,301.07858 C 122.88175,301.07858 123.13208,301.06548 123.28119,301.05708 C 123.70752,301.03558 123.94291,301.02438 124.0586,301.02068 C 124.1174,301.02068 124.22022,301.01168 124.28689,301.00948 C 124.35319,301.00948 124.49156,300.99738 124.59361,300.99268 C 124.69557,300.98368 124.87531,300.97778 124.99305,300.97028 C 125.22676,300.95628 125.45263,300.94418 125.68493,300.93478 C 125.76713,300.93478 125.88923,300.92578 125.95599,300.92078 C 126.02229,300.92078 126.17672,300.90958 126.29829,300.90588 C 126.41995,300.90588 126.59969,300.89098 126.69773,300.88348 C 126.88008,300.86948 127.17243,300.84988 127.43956,300.83398 C 127.52176,300.82498 127.60539,300.82278 127.625,300.81908 C 127.6446,300.81908 127.76981,300.80698 127.90315,300.79948 C 128.03658,300.79048 128.24199,300.77898 128.35964,300.76958 C 128.47738,300.76058 128.63144,300.75188 128.70203,300.74998 C 128.8179,300.74998 129.14349,300.72388 129.61548,300.68368 C 129.70978,300.67468 129.80614,300.67338 129.82939,300.67468 C 129.85269,300.67468 129.95208,300.67468 130.05012,300.66258 C 130.14822,300.65138 130.26058,300.64298 130.2998,300.64488 C 130.339,300.64488 130.42249,300.64488 130.48523,300.63588 C 130.58403,300.62558 130.88523,300.61258 131.56731,300.58828 C 131.66071,300.58828 131.77263,300.57928 131.81698,300.57428 C 131.91058,300.56528 132.01904,300.56028 132.6393,300.53878 C 132.89037,300.52978 133.10868,300.52008 133.12436,300.51638 C 133.14026,300.51638 133.30055,300.50608 133.48095,300.50148 C 133.66143,300.50148 133.83155,300.48838 133.85901,300.48098 C 133.88611,300.47198 134.00522,300.46418 134.12297,300.45948 C 134.36638,300.44918 134.41176,300.44738 134.81485,300.42588 C 134.97563,300.41688 135.20037,300.40718 135.3141,300.40258 C 135.42783,300.40258 135.59038,300.38768 135.67526,300.38018 C 135.76026,300.37118 135.89814,300.36338 135.98198,300.36058 C 136.06598,300.36058 136.2339,300.34748 136.35547,300.33908 C 136.47713,300.33008 136.64081,300.32138 136.71924,300.31758 C 136.79764,300.31758 136.97741,300.30448 137.11868,300.29608 C 137.25995,300.28708 137.55202,300.27458 137.7678,300.26708 C 138.17461,300.25218 138.65249,300.22598 138.66687,300.21668 C 138.66687,300.21668 138.81925,300.20768 138.99535,300.20268 C 139.17144,300.19368 139.33802,300.18868 139.36547,300.18118 C 139.39257,300.17218 139.52131,300.16438 139.65081,300.15968 C 139.78022,300.15068 139.92485,300.14938 139.9721,300.14658 C 140.10889,300.13758 140.39582,300.11948 140.4425,300.11578 C 140.4658,300.11578 140.57518,300.10678 140.68508,300.10268 C 140.79489,300.09368 140.96137,300.08868 141.05492,300.08218 C 141.14852,300.07318 141.23308,300.07318 141.24279,300.07318 C 141.25309,300.07318 141.27269,300.07374 141.28669,300.06418 C 141.30069,300.05518 141.35769,300.04828 141.41265,300.04648 C 141.46775,300.04648 141.5189,300.03748 141.52675,300.03438 C 141.53575,300.03438 141.56035,300.02538 141.58375,300.02408 C 141.7155,300.01508 142.18404,299.98768 142.36835,299.97548 C 142.48609,299.96648 142.6634,299.95218 142.76247,299.94098 C 142.86157,299.92978 143.0156,299.91578 143.10486,299.91108 C 143.19356,299.90208 143.33773,299.89618 143.424,299.88868 C 143.5099,299.87968 143.66761,299.87188 143.77349,299.86808 C 143.87947,299.86808 144.03026,299.85128 144.10879,299.83918 C 144.18719,299.82708 144.29702,299.81678 144.35286,299.81678 C 144.40886,299.81678 144.48573,299.80778 144.5241,299.80368 C 144.5624,299.79468 144.69973,299.78688 144.82914,299.78218 C 144.95865,299.77318 145.14801,299.76348 145.24997,299.75138 C 145.35202,299.73928 145.51243,299.72338 145.60665,299.71588 C 145.70075,299.70688 145.84203,299.69718 145.92047,299.68978 C 146.15333,299.66828 146.24409,299.66078 146.327,299.65338 C 146.37,299.65338 146.46006,299.64028 146.52672,299.63188 C 146.59302,299.62288 146.69619,299.61788 146.75502,299.61698 C 146.81382,299.6167 146.8877,299.60798 146.91907,299.60298 C 146.95077,299.59398 147.08172,299.58618 147.21085,299.58058 C 147.33998,299.57158 147.45016,299.56848 147.45558,299.56568 C 147.46458,299.56568 147.59937,299.55668 147.76296,299.55258 C 147.92645,299.55258 148.09237,299.54228 148.13158,299.53858 C 148.42505,299.51338 148.9891,299.50028 149.05642,299.51808 C 149.09002,299.52708 149.11712,299.52708 149.12742,299.51808 C 149.13642,299.50908 149.19182,299.50038 149.25113,299.49378 C 149.42004,299.47698 150.21099,299.47318 150.56356,299.48478 C 150.74003,299.49378 150.96795,299.50068 151.07,299.50438 C 151.45824,299.51748 151.5687,299.53798 151.65385,299.61278 C 151.71825,299.66978 151.79036,299.78365 151.79036,299.8294 C 151.79036,299.905 151.70446,300.05004 151.61744,300.12035 C 151.51575,300.20255 151.35721,300.36516 151.27747,300.4689 C 151.23177,300.5287 151.09325,300.676 150.96981,300.79701 C 150.84638,300.91792 150.67532,301.10037 150.5897,301.20242 C 150.5038,301.30438 150.40053,301.42549 150.35963,301.47152 C 150.31853,301.51722 150.26293,301.58571 150.23545,301.62306 C 150.20835,301.66046 150.13735,301.74743 150.07849,301.81652 C 149.95515,301.96134 149.85142,302.08805 149.82126,302.1309 C 149.81006,302.1468 149.76806,302.1981 149.72886,302.24304 C 149.68966,302.28784 149.6254,302.36228 149.58619,302.40747 C 149.54699,302.45317 149.48919,302.52017 149.4578,302.55733 C 149.4261,302.59473 149.3943,302.63293 149.3868,302.64133 C 149.3778,302.65033 149.3504,302.68713 149.3233,302.72163 C 149.2962,302.75713 149.2598,302.80103 149.2421,302.82113 C 149.2244,302.84073 149.1711,302.90513 149.12398,302.9637 C 149.07728,303.0225 149.011,303.10171 148.9773,303.13952 C 148.9437,303.17782 148.9073,303.22452 148.897,303.24391 C 148.8867,303.26351 148.8671,303.29061 148.8541,303.30461 C 148.74411,303.4202 148.63635,303.54243 148.59471,303.59854 C 148.53771,303.67514 148.40423,303.83767 148.35447,303.89089 C 148.33577,303.91049 148.28347,303.97769 148.23701,304.04065 C 148.19031,304.10325 148.14641,304.1612 148.13761,304.16904 C 148.09191,304.21194 147.94349,304.39444 147.88233,304.48323 C 147.85523,304.52243 147.81413,304.57743 147.78993,304.60583 C 147.76563,304.63383 147.73013,304.67863 147.71053,304.70493 C 147.66943,304.75903 147.52192,304.94003 147.48392,304.98224 C 147.46992,304.99814 147.45032,305.02614 147.44002,305.04574 C 147.42972,305.06534 147.37462,305.13724 147.31649,305.20681 C 147.25859,305.27591 147.21154,305.33865 147.21154,305.34565 C 147.21154,305.35465 147.18824,305.38305 147.16014,305.41285 C 147.13214,305.44275 147.09294,305.49405 147.07334,305.5276 L 147.03784,305.5874 L 147.07614,305.6821 C 147.11724,305.78407 147.14434,305.89592 147.17594,306.08752 C 147.22164,306.36838 147.22544,306.42011 147.21704,306.78145 C 147.20114,307.52011 147.19644,307.47632 147.28054,307.4343 C 147.36084,307.3942 147.68848,307.4343 147.74515,307.4894 C 147.75825,307.5025 147.77785,307.5137 147.78805,307.5137 C 147.79835,307.5137 147.83375,307.5445 147.86645,307.5819 C 147.89915,307.6193 147.95235,307.6785 147.9841,307.71383 C 148.0457,307.78203 148.09204,307.88396 148.13947,308.05623 C 148.15537,308.11503 148.17777,308.18891 148.18807,308.22028 C 148.22167,308.31978 148.32047,308.6468 148.32776,308.68387 C 148.32776,308.70347 148.34826,308.77067 148.36516,308.83363 C 148.38196,308.89623 148.40526,309.00235 148.41746,309.06902 C 148.42956,309.13622 148.44546,309.22243 148.45296,309.26165 C 148.52676,309.66193 148.53696,309.82486 148.50996,310.17211 C 148.49786,310.32496 148.49876,310.36333 148.51896,310.40563 C 148.53106,310.43363 148.54046,310.49063 148.54046,310.53271 C 148.54046,310.59901 148.53146,310.61211 148.50406,310.63271 C 148.46206,310.65981 148.46856,310.67291 148.52276,310.67381 C 148.55266,310.67418 148.56666,310.68591 148.58716,310.72791 L 148.61326,310.78111 L 148.75117,310.78129 C 148.97358,310.78157 149.07424,310.82329 149.2395,310.98325 C 149.48516,311.22116 149.60981,311.50539 149.77349,312.20053 C 149.80339,312.32612 149.84909,312.5122 149.87611,312.61426 C 149.90321,312.71622 149.93961,312.85749 149.95831,312.92808 C 150.00121,313.09036 150.07166,313.34349 150.09211,313.40717 C 150.10981,313.46317 150.13221,313.54013 150.18761,313.74125 C 150.20911,313.81965 150.24921,313.95768 150.27541,314.04797 C 150.30251,314.13857 150.32961,314.23126 150.33611,314.25479 C 150.34511,314.27809 150.35851,314.32669 150.37061,314.36179 C 150.38371,314.39729 150.42941,314.53509 150.47266,314.66852 C 150.55486,314.9208 150.58723,315.0082 150.68013,315.22706 C 150.71093,315.29896 150.73523,315.36133 150.73523,315.36581 C 150.73523,315.36581 150.75013,315.40781 150.76883,315.44891 C 150.78753,315.49001 150.81743,315.56273 150.83603,315.60979 C 150.85473,315.65649 150.90423,315.77888 150.94696,315.88084 C 150.98986,315.9829 151.05667,316.14331 151.0957,316.23752 C 151.1349,316.33162 151.1816,316.44397 151.19925,316.4871 C 151.21695,316.5301 151.25715,316.6266 151.28795,316.70111 C 151.31875,316.77581 151.36735,316.88477 151.39523,316.94359 C 151.42323,317.00239 151.47083,317.10522 151.49971,317.17189 C 151.67012,317.55835 152.02054,318.19906 152.30317,318.64127 C 152.33587,318.69267 152.37317,318.7521 152.38717,318.77432 C 152.43857,318.85832 152.93133,319.59683 153.0459,319.76106 C 153.1113,319.85516 153.25897,320.05668 153.37335,320.20878 C 153.48782,320.36097 153.61042,320.52503 153.64571,320.57339 C 153.71571,320.66979 153.98558,321.01868 154.04413,321.08899 C 154.06463,321.11329 154.10763,321.16459 154.14013,321.20309 C 154.17283,321.24139 154.25274,321.33745 154.31801,321.41588 C 154.38341,321.49428 154.55237,321.68666 154.69382,321.84333 C 154.83528,322.00001 154.97347,322.15379 155.00092,322.18507 C 155.31577,322.54352 155.60176,322.82242 155.88571,323.04763 C 156.04285,323.17228 156.24948,323.33381 156.39897,323.44866 C 156.66349,323.65212 156.82997,323.78284 156.88263,323.82831 C 156.98422,323.91611 157.57133,324.29824 157.91111,324.49759 C 158.00171,324.55079 158.16499,324.64661 158.27488,324.71113 C 158.38469,324.77553 158.50346,324.84446 158.53875,324.86407 C 158.57425,324.88367 158.65107,324.92847 158.70999,324.96426 C 158.76879,324.99976 158.94855,325.10628 159.10943,325.20077 C 159.40981,325.37715 159.50897,325.43774 159.72148,325.57491 C 159.78868,325.61881 159.89907,325.68368 159.9663,325.71982 C 160.11149,325.79822 160.1973,325.8525 160.34921,325.96342 C 160.38371,325.98862 160.42671,326.01852 160.44381,326.03062 C 160.54021,326.09602 160.76099,326.28029 161.04932,326.53697 C 161.25128,326.71671 161.63438,327.09524 161.63438,327.11494 C 161.63438,327.12394 161.67458,327.16344 161.72398,327.20964 C 162.43491,327.87285 162.70008,328.20758 162.94537,328.7511 C 163.0758,329.04017 163.11978,329.19526 163.18262,329.58714 C 163.21432,329.78322 163.21902,329.80059 163.25642,329.82935 C 163.30402,329.86575 163.33302,329.89475 163.47575,330.04839 C 163.57687,330.15708 163.6723,330.22468 163.72459,330.22468 C 163.76759,330.22468 163.83112,330.26858 163.84018,330.30408 C 163.84918,330.32648 163.83943,330.36198 163.82428,330.39648 C 163.79908,330.45158 163.79718,330.45248 163.72353,330.45248 C 163.68243,330.45248 163.64413,330.44348 163.63953,330.43848 C 163.62643,330.41698 163.51702,330.36378 163.50685,330.37408 C 163.49785,330.38308 163.52175,330.42918 163.54985,330.48566 C 163.57875,330.54266 163.63015,330.65578 163.66563,330.73814 C 163.73003,330.88865 163.79663,331.02133 163.8885,331.17997 C 163.9221,331.23697 163.9511,331.26957 163.9781,331.27917 C 164.0192,331.29317 164.0472,331.34267 164.0453,331.39878 C 164.04446,331.43148 163.94436,331.52268 163.90916,331.52268 C 163.89796,331.52268 163.87926,331.49938 163.86716,331.47038 C 163.85506,331.44138 163.82426,331.39198 163.79806,331.35982 C 163.71406,331.2559 163.62019,331.08111 163.4566,330.72397 C 163.4267,330.65857 163.33933,330.51052 163.33064,330.51024 C 163.31664,330.50977 163.34374,330.65637 163.36704,330.70249 C 163.41464,330.79969 163.49356,331.04516 163.56041,331.3052 C 163.56941,331.3398 163.58471,331.3659 163.59591,331.3659 C 163.62861,331.3659 163.67061,331.4331 163.68091,331.50241 C 163.68991,331.55561 163.68991,331.57151 163.66601,331.58641 C 163.64171,331.60411 163.64271,331.61441 163.68091,331.79556 C 163.70331,331.90051 163.72571,332.01843 163.73221,332.05784 C 163.74811,332.16531 163.86377,332.40153 163.93072,332.46325 C 164.00172,332.52865 164.01572,332.58062 163.98112,332.64505 C 163.96152,332.68235 163.95872,332.69735 163.97212,332.71045 C 163.98112,332.71945 163.98892,332.75435 163.98892,332.78795 C 163.98892,332.85235 163.96462,332.87855 163.90302,332.87855 C 163.86562,332.87855 163.68574,332.69144 163.585,332.54849 C 163.5467,332.49429 163.5122,332.45059 163.5075,332.45059 C 163.4739,332.45059 163.5645,333.13201 163.6089,333.21381 C 163.6378,333.26701 163.6546,333.3421 163.6434,333.36357 C 163.6344,333.37567 163.6257,333.40277 163.6182,333.42427 C 163.6079,333.45327 163.5939,333.46437 163.565,333.46537 C 163.45566,333.47437 163.42615,333.44767 163.424,333.35201 C 163.42316,333.31471 163.4128,333.24949 163.4007,333.20636 C 163.3886,333.16336 163.368,333.06882 163.354,332.99674 C 163.3269,332.85164 163.3391,332.86406 163.19461,332.8423 C 163.12741,332.832 163.08294,332.7928 163.09349,332.7517 C 163.09349,332.7368 163.09349,332.7162 163.09349,332.7069 C 163.07389,332.6752 163.06179,332.7751 163.07859,332.82633 C 163.10009,332.89073 163.07803,332.94976 163.03289,332.94976 C 163.00399,332.94976 162.99459,332.96746 162.94789,333.11736 C 162.88249,333.32334 162.85919,333.41895 162.87039,333.42997 C 162.88159,333.44117 162.84239,333.53371 162.81249,333.5662 C 162.78539,333.5961 162.75649,333.5979 162.70362,333.5752 C 162.63732,333.5444 162.63452,333.44401 162.69462,333.35885 C 162.71232,333.33455 162.75062,333.24102 162.77962,333.15082 C 162.86362,332.88322 162.86462,332.87986 162.84032,332.76277 C 162.82822,332.70577 162.81792,332.62655 162.81792,332.58733 C 162.81717,332.51823 162.81792,332.51733 162.79462,332.54813 C 162.76572,332.58923 162.74792,332.58823 162.65354,332.53913 C 162.60124,332.51393 162.57604,332.49243 162.57604,332.47473 C 162.57604,332.46073 162.56704,332.44863 162.56204,332.44863 C 162.54434,332.44863 162.54434,332.44863 162.56204,332.50283 C 162.57234,332.52713 162.59754,332.55983 162.61904,332.57663 C 162.64244,332.59533 162.65824,332.62143 162.65824,332.64293 C 162.65824,332.68963 162.61994,332.76235 162.59564,332.76235 C 162.58534,332.76235 162.55644,332.76235 162.53124,332.77135 C 162.49104,332.78035 162.48544,332.78035 162.47144,332.73585 C 162.46244,332.71155 162.44994,332.69105 162.44244,332.69105 C 162.43344,332.69105 162.41354,332.67335 162.39384,332.65185 C 162.36774,332.62195 162.35934,332.61825 162.35934,332.63595 C 162.35906,332.64905 162.36834,332.66205 162.37244,332.66395 C 162.39014,332.67295 162.36214,332.7816 162.32764,332.84453 C 162.30144,332.89123 162.30144,332.89303 162.33884,332.9943 C 162.43284,333.25303 162.50579,333.57198 162.5253,333.80999 C 162.5343,333.88099 162.5343,333.94715 162.5343,333.95789 C 162.5253,333.98869 162.5623,334.12147 162.5829,334.14519 C 162.5919,334.15729 162.6091,334.18999 162.6193,334.21899 C 162.6445,334.28999 162.6193,334.32077 162.5521,334.30769 C 162.5213,334.29869 162.5045,334.30769 162.5045,334.31669 C 162.5045,334.33999 162.4541,334.33629 162.4335,334.30769 C 162.4232,334.29559 162.4073,334.28619 162.3971,334.28619 C 162.384,334.28619 162.3784,334.26379 162.3784,334.21149 C 162.3784,334.17039 162.3694,334.11999 162.3644,334.10057 C 162.3554,334.08097 162.3429,333.99076 162.3336,333.90085 C 162.3103,333.68385 162.2552,333.33829 162.22622,333.23511 C 162.19632,333.12755 162.07963,332.78058 162.05293,332.72036 L 162.03243,332.67366 L 161.99413,332.70266 C 161.87051,332.79506 161.87378,332.78946 161.85977,332.94085 C 161.85077,333.01835 161.84487,333.14337 161.84207,333.21937 C 161.83307,333.36466 161.82617,333.39883 161.76647,333.46279 C 161.69927,333.53469 161.65125,333.50669 161.62091,333.37779 C 161.61191,333.34329 161.61191,333.32639 161.63491,333.30959 C 161.66111,333.28529 161.67781,333.18214 161.70591,332.8672 C 161.73391,332.55002 161.73671,332.47495 161.71901,332.47495 C 161.71001,332.47495 161.69381,332.46375 161.68351,332.44975 C 161.66671,332.42825 161.66481,332.43205 161.66391,332.48525 C 161.66363,332.51885 161.67291,332.55805 161.67981,332.57305 C 161.70031,332.60575 161.67081,332.65895 161.61161,332.69807 C 161.57611,332.72137 161.57141,332.72047 161.51068,332.68907 C 161.46208,332.66387 161.44068,332.65917 161.42288,332.67037 C 161.40978,332.67937 161.37808,332.68247 161.35288,332.67937 C 161.30528,332.67037 161.30248,332.66817 161.28748,332.56891 C 161.27628,332.49331 161.20248,332.30411 161.18645,332.30934 C 161.14255,332.32334 161.16965,332.55995 161.23035,332.69216 L 161.26765,332.77246 L 161.22935,332.82286 C 161.20785,332.85086 161.17705,332.87606 161.15935,332.87796 C 161.12385,332.88696 161.12295,332.87796 161.17055,333.01493 C 161.22935,333.18627 161.29128,333.29775 161.34188,333.32502 C 161.38478,333.34832 161.42308,333.40812 161.42688,333.45816 C 161.42688,333.47126 161.43588,333.49556 161.44648,333.51236 C 161.47638,333.56556 161.41758,333.65354 161.38578,333.60296 C 161.37678,333.59396 161.36708,333.59396 161.34938,333.60296 C 161.32698,333.61696 161.31488,333.61506 161.28218,333.59086 C 161.22518,333.54786 161.18124,333.46425 161.02541,333.09702 C 161.01331,333.06712 160.99741,333.04382 160.98991,333.04382 C 160.98091,333.04382 160.97961,333.05282 160.98091,333.05412 C 161.02851,333.15322 161.07661,333.26234 161.14823,333.43573 C 161.18093,333.51413 161.21263,333.59119 161.21923,333.60688 C 161.22823,333.62278 161.23603,333.64798 161.24163,333.66388 C 161.25653,333.70588 161.35087,334.07145 161.3589,334.11636 C 161.3589,334.13786 161.3748,334.16306 161.386,334.17146 C 161.3972,334.18046 161.4056,334.20316 161.4056,334.22096 C 161.4056,334.23866 161.4146,334.25826 161.4196,334.26296 C 161.4457,334.27886 161.4364,334.38182 161.4075,334.39723 C 161.3795,334.41213 161.27566,334.38823 161.24858,334.36173 C 161.23958,334.35273 161.23178,334.29263 161.22808,334.22662 C 161.21908,334.06948 161.11127,333.69917 161.00203,333.45687 C 160.97873,333.40547 160.94973,333.34025 160.93663,333.31103 C 160.92353,333.28203 160.90953,333.25783 160.90483,333.25783 C 160.90483,333.25765 160.87493,333.30733 160.84883,333.36801 C 160.82263,333.42871 160.74752,333.58304 160.68216,333.71078 C 160.56984,333.93001 160.56321,333.94813 160.56321,334.03384 C 160.56321,334.12064 160.56321,334.12724 160.51181,334.16998 C 160.46511,334.21008 160.45391,334.21388 160.40126,334.20548 C 160.26839,334.18308 160.25514,334.16348 160.31166,334.0741 C 160.33036,334.0452 160.34906,334.0013 160.35366,333.978 C 160.36576,333.9155 160.41436,333.78136 160.45609,333.69854 C 160.47569,333.65844 160.49249,333.60894 160.49249,333.58725 L 160.49249,333.54805 L 160.384,333.55705 C 160.2875,333.56605 160.27177,333.56605 160.24179,333.60095 C 160.22309,333.62245 160.20819,333.64485 160.20729,333.65135 C 160.20691,333.66165 160.18299,333.69435 160.12049,333.77115 C 160.09339,333.80385 160.04859,333.79165 160.03089,333.74595 C 160.02189,333.71975 160.00479,333.70295 159.98889,333.70295 C 159.97489,333.70295 159.93189,333.68705 159.89349,333.66745 C 159.80759,333.62455 159.80109,333.63005 159.77939,333.77398 C 159.76349,333.87837 159.73269,334.02842 159.70559,334.13225 C 159.69659,334.16025 159.69249,334.22285 159.69249,334.27137 L 159.69249,334.35917 L 159.64579,334.35917 C 159.5049,334.35917 159.38641,334.26077 159.4569,334.20231 C 159.4905,334.17431 159.4821,334.16401 159.4195,334.15561 C 159.3308,334.14351 159.3271,334.13231 159.3709,334.01742 C 159.3924,333.96142 159.4064,333.91247 159.4026,333.90864 C 159.3914,333.89744 159.3204,334.02648 159.3204,334.05822 C 159.3204,334.13852 159.242,334.20454 159.1247,334.22218 C 159.0715,334.23118 159.0621,334.23118 159.0407,334.19508 C 159.0276,334.17548 159.0043,334.15958 158.9875,334.15958 C 158.9716,334.15958 158.9464,334.14928 158.9315,334.13628 C 158.9072,334.11388 158.9035,334.11388 158.8736,334.14528 C 158.8559,334.16118 158.8288,334.17888 158.812,334.18358 C 158.7784,334.19388 158.63497,334.16958 158.6163,334.15088 C 158.6073,334.14188 158.6253,334.10698 158.648,334.06778 C 158.6975,333.98658 158.7012,333.97068 158.6695,333.95854 C 158.6527,333.94954 158.649,333.93514 158.6536,333.88944 C 158.6536,333.85584 158.6648,333.81754 158.6704,333.80354 C 158.6794,333.78954 158.6704,333.76894 158.6614,333.75684 C 158.6474,333.74094 158.6474,333.72694 158.6614,333.70084 C 158.6704,333.68124 158.6717,333.66254 158.6614,333.65784 C 158.6524,333.65784 158.6446,333.66684 158.639,333.68214 C 158.63,333.69984 158.6138,333.74654 158.5951,333.78681 C 158.48651,334.01939 158.45355,334.19297 158.49491,334.31435 C 158.52481,334.40115 158.52481,334.45777 158.49566,334.46898 C 158.48356,334.47798 158.44806,334.47798 158.41726,334.47798 C 158.33046,334.47798 158.31502,334.44248 158.31642,334.24642 C 158.31642,334.05763 158.32762,333.95436 158.35472,333.8608 C 158.39582,333.71776 158.50785,333.48171 158.61093,333.32252 C 158.69773,333.1889 158.71523,333.15006 158.72531,333.07154 C 158.73431,333.00994 158.73431,332.99964 158.70291,332.98284 C 158.65431,332.95294 158.64591,332.96514 158.57481,333.16594 C 158.55331,333.22574 158.50761,333.33438 158.48891,333.36912 C 158.46371,333.41672 158.43291,333.51571 158.43291,333.55315 C 158.43273,333.57465 158.42261,333.59425 158.41051,333.59985 C 158.37041,333.61475 158.22536,333.60885 158.20771,333.59085 C 158.18441,333.56755 158.18621,333.47255 158.20771,333.4521 C 158.23101,333.4325 158.29171,333.3084 158.28331,333.29925 C 158.28331,333.29925 158.26931,333.31325 158.25901,333.33755 C 158.23751,333.38885 158.21611,333.40195 158.12371,333.42255 C 158.06111,333.43655 158.05271,333.43465 158.00774,333.40105 C 157.96764,333.37025 157.95914,333.35435 157.95914,333.31045 C 157.95914,333.27495 157.96814,333.24785 157.98714,333.23105 C 158.01044,333.20955 158.11049,333.03357 158.21217,332.83441 C 158.22337,332.81291 158.26077,332.74851 158.29437,332.69202 C 158.32887,332.63602 158.35417,332.58679 158.35037,332.58353 C 158.35037,332.58353 158.31857,332.59473 158.28687,332.61523 C 158.25517,332.63573 158.21967,332.65263 158.20747,332.65263 C 158.16177,332.65263 158.12717,332.68533 158.05359,332.7996 C 157.98079,332.91239 157.83006,333.17336 157.83006,333.18625 C 157.83006,333.19525 157.6985,333.40557 157.64304,333.48494 C 157.54364,333.62714 157.51671,333.67346 157.51652,333.70333 C 157.51634,333.72483 157.50252,333.73883 157.47172,333.75003 C 157.40452,333.77333 157.38302,333.76963 157.34082,333.72573 C 157.30442,333.68833 157.30342,333.68283 157.32032,333.63513 C 157.33152,333.60433 157.36332,333.56513 157.40252,333.53563 C 157.43802,333.50853 157.47352,333.47213 157.48282,333.45533 C 157.49182,333.43763 157.51182,333.40863 157.52672,333.39183 C 157.55562,333.35913 157.68788,333.1499 157.68788,333.13608 C 157.68788,333.13608 157.71028,333.09128 157.73738,333.04548 C 157.79528,332.94918 157.79898,332.93148 157.75608,332.95678 C 157.73928,332.96708 157.67668,333.00068 157.61695,333.03238 C 157.51107,333.08838 157.50874,333.09028 157.50453,333.14854 C 157.49553,333.21954 157.45973,333.26058 157.398,333.26058 C 157.3523,333.26058 157.3513,333.26058 157.20855,333.46404 C 157.15815,333.53504 157.0952,333.7308 157.04627,333.96675 C 157.03727,334.00225 157.01357,334.11278 156.98927,334.21269 C 156.96497,334.31269 156.94537,334.40662 156.94537,334.42137 C 156.94537,334.43627 156.93637,334.45497 156.92577,334.46437 C 156.89867,334.48677 156.8239,334.49987 156.78095,334.48867 C 156.73705,334.47747 156.70435,334.41867 156.72775,334.39147 C 156.73675,334.38117 156.74735,334.34947 156.75295,334.31957 C 156.76195,334.28967 156.76885,334.26267 156.77535,334.25797 C 156.78435,334.25797 156.78845,334.23467 156.78845,334.21597 C 156.78845,334.19727 156.79745,334.14497 156.80995,334.09972 C 156.84445,333.96695 156.83985,333.95182 156.78195,334.01752 C 156.54964,334.2839 156.47233,334.37644 156.38717,334.49025 C 156.33307,334.56215 156.28887,334.63517 156.28887,334.65188 C 156.28887,334.70048 156.21327,334.76561 156.15675,334.76561 C 156.11845,334.76561 156.09695,334.75351 156.05582,334.70961 L 156.06494,334.72362 z M 159.18157,333.86405 C 159.19647,333.84255 159.20867,333.81925 159.20867,333.81265 C 159.20867,333.80365 159.22177,333.78835 159.23667,333.77435 C 159.25257,333.76035 159.27777,333.72205 159.29367,333.68935 L 159.32257,333.62955 L 159.29367,333.57355 C 159.27317,333.53435 159.26657,333.50075 159.27127,333.46207 C 159.28027,333.41447 159.27127,333.40607 159.24697,333.39857 C 159.20867,333.38827 159.20587,333.38957 159.18537,333.44527 C 159.07986,333.73108 159.08032,333.7294 159.08023,333.85368 C 159.08023,333.92088 159.08023,333.98048 159.08923,333.98589 C 159.09823,333.99489 159.11163,333.97469 159.12663,333.94949 C 159.14153,333.92429 159.16683,333.88599 159.18073,333.86449 L 159.18157,333.86405 z M 151.83299,333.75294 C 151.83299,333.74394 151.83299,333.73894 151.82399,333.73894 C 151.82399,333.73894 151.81369,333.74794 151.80909,333.75294 C 151.80009,333.76194 151.80909,333.76694 151.81809,333.76694 C 151.82709,333.76694 151.83299,333.75794 151.83299,333.75294 z M 156.56914,333.52586 C 156.61214,333.49506 156.69893,333.43806 156.76168,333.39906 C 156.82418,333.35986 156.88754,333.31506 156.90173,333.29936 C 156.92693,333.27136 156.92693,333.26856 156.90173,333.21256 C 156.88583,333.18086 156.87183,333.13786 156.87183,333.11846 C 156.87183,333.06806 156.85503,333.07276 156.80643,333.13996 C 156.78313,333.17166 156.74573,333.21836 156.72333,333.24342 C 156.66353,333.31162 156.56712,333.43772 156.54556,333.47722 C 156.53526,333.49592 156.51476,333.51922 156.49886,333.52862 C 156.47176,333.54542 156.46056,333.58182 156.48206,333.58182 C 156.49106,333.58182 156.52776,333.55662 156.57166,333.52582 L 156.56914,333.52586 z M 160.32051,333.34397 C 160.35131,333.27397 160.35781,333.23893 160.33641,333.26177 C 160.31681,333.28227 160.26171,333.42834 160.27761,333.41835 C 160.28661,333.40935 160.30471,333.38005 160.32061,333.34455 L 160.32051,333.34397 z M 160.6827,333.21381 C 160.6528,333.16621 160.6276,333.18491 160.6295,333.25391 C 160.6295,333.36017 160.6385,333.36334 160.6669,333.29961 C 160.6902,333.25291 160.694,333.23241 160.6818,333.21371 L 160.6827,333.21381 z M 160.27093,333.04771 C 160.31763,332.89626 160.27993,332.91904 160.22333,333.07661 C 160.20653,333.12421 160.19253,333.16901 160.19253,333.17651 C 160.19328,333.20731 160.25133,333.11111 160.27093,333.04756 L 160.27093,333.04771 z M 157.03992,332.9422 C 157.12212,332.8722 157.12772,332.8647 157.08942,332.8722 C 157.00442,332.889 156.97,332.9105 156.92667,332.97369 C 156.90237,333.00919 156.88277,333.04189 156.88277,333.04649 C 156.88277,333.06329 156.94817,333.01939 157.03972,332.94238 L 157.03992,332.9422 z M 160.88541,332.69915 C 160.87641,332.67115 160.87331,332.62445 160.86861,332.59738 C 160.85551,332.51428 160.84901,332.50168 160.83411,332.52638 C 160.81731,332.55248 160.81641,332.66438 160.83411,332.67456 C 160.84311,332.67456 160.85001,332.70256 160.85561,332.72596 C 160.86871,332.79036 160.89861,332.76426 160.88731,332.69886 L 160.88541,332.69915 z M 158.8544,332.61605 C 158.8768,332.59455 158.8946,332.57215 158.8946,332.56655 C 158.8946,332.54135 158.8675,332.55755 158.8311,332.60485 C 158.7863,332.66465 158.7984,332.67025 158.8544,332.61605 L 158.8544,332.61605 z M 163.30148,332.36554 C 163.30148,332.22231 163.29248,332.07104 163.29118,332.02931 C 163.28218,331.96211 163.28218,331.95551 163.26228,331.97511 C 163.21838,332.01901 163.21658,332.1218 163.25328,332.37997 C 163.27378,332.51536 163.29348,332.6261 163.29628,332.6261 C 163.29628,332.6261 163.29628,332.50891 163.29628,332.36578 L 163.30148,332.36554 z M 157.30547,332.55994 C 157.35027,332.53384 157.37927,332.50204 157.40417,332.45368 C 157.42377,332.41538 157.43317,332.38088 157.42567,332.37708 C 157.40797,332.36588 157.31801,332.44708 157.26722,332.52049 C 157.20462,332.61199 157.20932,332.61669 157.30552,332.56059 L 157.30547,332.55994 z M 158.07727,332.48614 C 158.15667,332.38684 158.15567,332.36215 158.07727,332.44784 C 158.03337,332.49454 157.99697,332.53844 157.99697,332.54374 C 157.99632,332.56614 158.03807,332.53474 158.07817,332.48584 L 158.07727,332.48614 z M 162.81501,332.32489 L 162.82401,332.19482 L 162.79321,332.21632 C 162.77641,332.22842 162.75301,332.25182 162.74091,332.26762 C 162.71101,332.30962 162.68301,332.30502 162.62597,332.24712 C 162.56997,332.19112 162.56437,332.18832 162.56437,332.21822 C 162.56437,332.23502 162.69248,332.37405 162.76531,332.43577 C 162.80641,332.47037 162.81381,332.45347 162.81851,332.32429 L 162.81501,332.32489 z M 161.71986,332.29029 C 161.72886,332.22769 161.73856,332.17237 161.74136,332.16695 C 161.74136,332.15795 161.74192,332.15385 161.73236,332.14925 C 161.72336,332.14925 161.70996,332.19595 161.69686,332.26139 C 161.66976,332.4007 161.66696,332.43777 161.68786,332.41769 C 161.69686,332.40869 161.70936,332.35229 161.71776,332.29024 L 161.71986,332.29029 z M 161.4898,332.18329 C 161.49045,332.16739 161.4749,332.16089 161.4338,332.15999 C 161.3899,332.15999 161.3768,332.15999 161.3768,332.18149 C 161.37699,332.20759 161.4085,332.31305 161.4347,332.3758 C 161.4524,332.4178 161.4534,332.4169 161.4711,332.3114 C 161.4814,332.2526 161.4898,332.19459 161.4898,332.18274 L 161.4898,332.18329 z M 163.61511,332.25709 C 163.59921,332.18799 163.54691,332.07717 163.53571,332.08884 C 163.53571,332.08884 163.54471,332.13644 163.55901,332.18544 C 163.61041,332.33502 163.64211,332.37442 163.61601,332.25734 L 163.61511,332.25709 z M 162.27533,332.17679 C 162.27533,332.16469 162.26633,332.15529 162.26133,332.15529 C 162.25233,332.15529 162.24733,332.16429 162.24733,332.17679 C 162.24733,332.18889 162.25633,332.19829 162.26133,332.19829 C 162.27033,332.19829 162.27533,332.18929 162.27533,332.17679 z M 161.74311,332.05943 C 161.74311,332.04543 161.73411,332.05043 161.73411,332.07713 C 161.73383,332.10043 161.73411,332.11163 161.74311,332.10233 C 161.74311,332.09333 161.74311,332.07333 161.74367,332.05933 L 161.74311,332.05943 z M 162.81744,332.04543 C 162.81744,331.99693 162.81744,331.99403 162.79504,332.01553 C 162.77734,332.03323 162.77544,332.04453 162.78604,332.06873 C 162.80944,332.11163 162.81594,332.10703 162.81594,332.04633 L 162.81744,332.04543 z M 161.77505,331.95203 C 161.77561,331.93803 161.76605,331.92683 161.76195,331.92683 C 161.75295,331.92683 161.74795,331.95113 161.74885,331.98003 C 161.7496,332.02303 161.74885,332.02763 161.76195,332.00523 C 161.77095,331.98933 161.77505,331.96513 161.77505,331.95203 z M 163.26095,331.7313 C 163.24885,331.7098 163.24605,331.7126 163.24605,331.75 C 163.24577,331.7743 163.24605,331.7985 163.25635,331.8051 C 163.27315,331.8219 163.27785,331.7594 163.26535,331.7313 L 163.26095,331.7313 z M 161.40511,331.1665 C 161.40511,331.1665 161.41411,331.1254 161.42001,331.0806 C 161.43491,330.9994 161.41926,330.90039 161.39101,330.90039 C 161.37701,330.90039 161.36301,331.06351 161.37231,331.12504 C 161.37231,331.15024 161.38441,331.17174 161.39191,331.17174 C 161.40091,331.17174 161.40501,331.17174 161.40501,331.17174 L 161.40511,331.1665 z M 158.89931,331.03905 C 158.94411,330.99795 158.98051,330.95875 158.97961,330.95315 C 158.97961,330.94415 158.99271,330.91205 159.00951,330.87655 C 159.02541,330.84105 159.03661,330.80935 159.03381,330.80655 C 159.03381,330.80655 158.99361,330.84395 158.95071,330.89615 C 158.90871,330.94845 158.85261,331.01454 158.82708,331.04237 C 158.80188,331.07037 158.78038,331.09747 158.78038,331.10397 C 158.78019,331.13197 158.82608,331.10397 158.89933,331.03957 L 158.89931,331.03905 z M 163.04564,331.03905 C 163.04564,331.02785 163.03664,331.01855 163.03164,331.01855 C 163.02264,331.01855 163.01764,331.03165 163.01764,331.04845 C 163.01764,331.06435 163.02664,331.07365 163.03164,331.06895 C 163.04064,331.05995 163.04564,331.05125 163.04564,331.03995 L 163.04564,331.03905 z M 158.60911,330.73391 C 158.60911,330.72491 158.62501,330.71621 158.64461,330.70681 C 158.66421,330.69781 158.68751,330.67231 158.69501,330.65081 C 158.70401,330.62931 158.71831,330.59201 158.72861,330.56861 C 158.78741,330.43304 158.81641,330.25946 158.82011,330.01203 C 158.82011,329.78971 158.80421,329.75946 158.78091,329.95043 C 158.75191,330.19356 158.72301,330.35939 158.69871,330.4226 C 158.66601,330.5094 158.61931,330.61625 158.58536,330.68535 C 158.56856,330.71805 158.55826,330.74885 158.56206,330.75255 C 158.57106,330.76155 158.60876,330.74355 158.60876,330.73295 L 158.60911,330.73391 z M 159.05132,329.772 C 159.05132,329.61514 159.04102,329.53484 159.02142,329.53484 C 159.01242,329.53484 159.01242,329.56284 159.01242,329.59744 C 159.01242,329.63194 159.02142,329.71845 159.02272,329.78997 C 159.02272,329.86187 159.03172,329.92013 159.03762,329.92013 C 159.04662,329.92013 159.04882,329.85383 159.04882,329.77214 L 159.05132,329.772 z M 159.42219,329.6898 C 159.42219,329.6739 159.41319,329.6655 159.40819,329.6702 C 159.39919,329.6792 159.39419,329.6917 159.39419,329.7076 C 159.39419,329.7235 159.40319,329.7319 159.40819,329.7272 C 159.41719,329.7182 159.42219,329.7057 159.42219,329.6898 z M 159.43529,329.51314 C 159.43604,329.43934 159.40539,329.28429 159.38669,329.26636 C 159.37549,329.25606 159.38669,329.50371 159.40439,329.59138 C 159.41339,329.63338 159.41469,329.63618 159.42399,329.61288 C 159.43299,329.59698 159.43519,329.55218 159.43609,329.51328 L 159.43529,329.51314 z M 162.84529,328.94012 C 162.75379,328.72285 162.60346,328.45076 162.60346,328.50109 C 162.60346,328.51009 162.64456,328.59499 162.69496,328.69801 C 162.74536,328.80109 162.79356,328.90147 162.80187,328.92107 C 162.81087,328.94067 162.82237,328.96677 162.82987,328.97807 C 162.83887,328.99017 162.85417,329.02477 162.86727,329.05647 C 162.88127,329.08817 162.89527,329.10597 162.89807,329.09657 C 162.89807,329.08757 162.87757,329.01717 162.84487,328.93971 L 162.84529,328.94012 z M 162.50533,328.31818 C 162.49133,328.30418 162.48943,328.30608 162.49633,328.32718 C 162.50533,328.34118 162.50943,328.34958 162.51403,328.34488 C 162.51403,328.34488 162.51403,328.32898 162.50503,328.31968 L 162.50533,328.31818 z M 156.25526,326.68138 C 156.25526,326.67238 156.24626,326.66738 156.24216,326.66738 C 156.23316,326.66738 156.21696,326.66738 156.20296,326.65838 C 156.17866,326.64938 156.17866,326.64938 156.20296,326.67238 C 156.23466,326.69848 156.25336,326.70128 156.25336,326.68138 L 156.25526,326.68138 z M 152.91697,325.18707 C 152.91678,325.17807 152.90797,325.17027 152.90577,325.16187 C 152.88807,325.13757 152.71474,325.03022 152.6391,324.99679 C 152.5999,324.97999 152.51035,324.92859 152.43938,324.88456 C 152.1434,324.69857 152.05918,324.65935 151.90334,324.63507 C 151.86884,324.62607 151.82864,324.62197 151.81464,324.61827 C 151.76514,324.60427 151.79034,324.65467 151.85014,324.69017 C 151.97049,324.76017 152.12764,324.84302 152.27451,324.91324 C 152.35671,324.95244 152.46928,325.00834 152.52418,325.03695 C 152.61758,325.08545 152.8818,325.1969 152.90579,325.19774 C 152.91479,325.19792 152.91609,325.19774 152.91609,325.18744 L 152.91697,325.18707 z M 153.45674,325.17307 C 153.44774,325.14507 153.0672,324.94814 152.99568,324.93674 C 152.89381,324.92084 152.94428,324.96004 153.16197,325.06644 C 153.46179,325.21303 153.46431,325.21396 153.45674,325.17307 z M 151.5192,324.34916 C 151.5192,324.33706 151.5102,324.32766 151.4996,324.32766 C 151.4893,324.32766 151.4557,324.30806 151.4268,324.28466 C 151.3969,324.26136 151.3624,324.24166 151.3493,324.24166 C 151.3362,324.24166 151.3194,324.23266 151.3119,324.22856 C 151.3029,324.21956 151.2181,324.17536 151.12002,324.12595 C 151.02192,324.07645 150.89677,324.00718 150.84178,323.9717 C 150.78668,323.9362 150.71946,323.8961 150.69201,323.8839 C 150.66491,323.8708 150.62941,323.8465 150.61451,323.8297 C 150.59961,323.8129 150.58001,323.7989 150.57161,323.7989 C 150.56261,323.7989 150.53051,323.7765 150.49881,323.7485 C 150.46711,323.7205 150.42321,323.6878 150.40001,323.6757 C 150.37671,323.6636 150.33841,323.6346 150.31411,323.6122 C 150.28981,323.5898 150.26551,323.5711 150.26001,323.5711 C 150.24881,323.57091 150.00333,323.3527 149.84236,323.19985 C 149.78726,323.14755 149.66542,323.03207 149.5713,322.9429 C 149.37943,322.7611 149.1952,322.57576 149.08148,322.4498 C 149.03948,322.4031 148.98558,322.34411 148.96131,322.31787 C 148.93701,322.29177 148.89871,322.24687 148.87731,322.21807 C 148.85491,322.18907 148.81661,322.13967 148.79051,322.10714 C 148.71771,322.01564 148.5752,321.82862 148.55157,321.79454 C 148.43299,321.62348 148.29154,321.40042 148.20741,321.25168 C 148.15141,321.15218 148.08799,321.05065 148.06726,321.02619 C 148.04676,321.00189 148.00096,320.93379 147.9667,320.87483 C 147.9322,320.81603 147.8808,320.74187 147.85335,320.71013 C 147.76745,320.61253 147.62328,320.44028 147.5244,320.31741 C 147.4259,320.1949 147.41534,320.1851 147.39163,320.19416 C 147.37103,320.20316 147.37013,320.21006 147.39163,320.26416 C 147.45323,320.4581 147.54662,320.68247 147.60685,320.782 C 148.04821,321.51104 148.68145,322.2497 149.50415,322.99499 C 149.78248,323.24718 149.93972,323.3808 150.08949,323.49237 C 150.14179,323.53157 150.20844,323.58297 150.23683,323.60694 C 150.28913,323.65084 150.31993,323.67324 150.59995,323.87856 C 150.68495,323.94116 150.77156,324.00526 150.79248,324.02188 C 150.88398,324.09468 151.34804,324.31693 151.44748,324.33561 C 151.47268,324.34461 151.49788,324.34961 151.50158,324.35711 C 151.51368,324.37581 151.52208,324.37201 151.52208,324.34811 L 151.5192,324.34916 z M 152.75637,324.27636 C 152.74737,324.26736 152.73957,324.26736 152.72927,324.27636 C 152.71807,324.27636 152.72027,324.28536 152.73827,324.28536 C 152.75317,324.28592 152.76157,324.28536 152.75697,324.27636 L 152.75637,324.27636 z M 149.8501,322.83798 C 149.8501,322.81928 149.72125,322.65077 149.56289,322.46263 C 149.36299,322.22491 149.29669,322.13816 149.17839,321.95964 C 149.08369,321.81669 149.07522,321.80828 148.80873,321.59334 C 148.68446,321.49316 148.60556,321.44386 148.59155,321.45786 C 148.58035,321.46906 148.59155,321.49616 148.63915,321.55596 C 148.75428,321.70722 148.92926,321.92104 149.01581,322.01637 C 149.06251,322.06777 149.13028,322.14541 149.16558,322.18798 C 149.25338,322.29387 149.68715,322.73112 149.76539,322.79266 C 149.82419,322.83936 149.85039,322.85246 149.85039,322.83836 L 149.8501,322.83798 z M 154.04414,321.40231 C 154.04414,321.38551 153.96384,321.26141 153.93817,321.23928 C 153.92917,321.23028 153.90267,321.19918 153.88027,321.16828 C 153.85697,321.13658 153.81207,321.07958 153.77942,321.03989 C 153.74672,321.00069 153.69352,320.93327 153.66038,320.89013 C 153.62768,320.84713 153.57538,320.77958 153.54553,320.74027 C 153.37195,320.51468 153.27952,320.39274 153.15599,320.22673 C 153.08039,320.12477 152.97924,319.98994 152.9318,319.92719 C 152.70659,319.62906 152.12937,318.75314 151.95411,318.44353 C 151.93171,318.40433 151.89431,318.34353 151.87101,318.30833 C 151.78321,318.17854 151.37353,317.36462 151.28175,317.13848 C 151.25465,317.07218 151.22755,317.01093 151.22015,317.0029 C 151.21115,316.9939 151.15195,316.85034 151.08438,316.68171 C 151.01618,316.51308 150.95236,316.36201 150.94227,316.34604 C 150.93197,316.33014 150.90677,316.27224 150.88627,316.21765 C 150.86577,316.16255 150.83677,316.09263 150.82187,316.06126 C 150.79017,315.99306 150.70357,315.77424 150.64904,315.62615 C 150.62754,315.56735 150.59864,315.49347 150.58464,315.4621 C 150.53324,315.3437 150.32871,314.75612 150.2415,314.47778 C 150.2041,314.36004 150.1509,314.18992 150.12142,314.09972 C 150.09252,314.00912 150.05422,313.88431 150.03642,313.82157 C 149.96732,313.57609 149.95802,313.54211 149.87255,313.26517 C 149.85295,313.20257 149.81465,313.06442 149.78665,312.95845 C 149.75865,312.85256 149.72035,312.71456 149.70165,312.65181 C 149.68295,312.58921 149.66055,312.50233 149.65125,312.45919 C 149.64225,312.41629 149.62605,312.35181 149.61575,312.31652 C 149.60545,312.28102 149.58965,312.21712 149.57935,312.17385 C 149.52615,311.93883 149.40259,311.57469 149.32734,311.43043 C 149.30024,311.37813 149.24794,311.29868 149.21109,311.25293 C 149.12519,311.14658 148.94816,311.01026 148.87029,310.99065 C 148.76599,310.96455 148.65189,310.97575 148.65189,311.01215 C 148.65189,311.03925 148.76562,311.25463 148.8363,311.36098 C 148.9129,311.47657 148.95059,311.55099 149.02426,311.73372 C 149.05696,311.81492 149.08956,311.89049 149.09616,311.90253 C 149.11576,311.93703 149.20008,312.17462 149.35863,312.64474 C 149.43893,312.88405 149.54173,313.18256 149.58617,313.30814 C 149.63007,313.43363 149.67297,313.55884 149.68137,313.58629 C 149.73267,313.76482 149.926,314.30964 149.98688,314.44932 C 150.01858,314.52212 150.13702,314.83149 150.157,314.89339 C 150.1673,314.92609 150.1832,314.96439 150.1915,314.97929 C 150.2064,315.00549 150.36274,315.40525 150.42773,315.58369 C 150.44643,315.63509 150.48183,315.73102 150.50713,315.79769 C 150.53233,315.86399 150.57713,315.98639 150.60653,316.06875 C 150.63643,316.15095 150.66723,316.23457 150.67563,316.25418 C 150.68463,316.27378 150.72323,316.3765 150.76153,316.48247 C 150.83253,316.67575 150.86723,316.76464 150.89188,316.81768 C 150.90088,316.83358 150.94328,316.93607 150.98978,317.04597 C 151.06078,317.21292 151.15972,317.43663 151.25552,317.64513 C 151.39455,317.94775 151.56215,318.27856 151.80472,318.72926 C 151.86542,318.84205 151.97933,319.0329 152.06859,319.17147 C 152.09379,319.21067 152.13959,319.28781 152.17083,319.34271 C 152.22873,319.44588 152.4587,319.73786 152.62676,319.92226 C 152.81855,320.13254 152.98195,320.31059 153.0037,320.33282 C 153.0158,320.34492 153.0513,320.38792 153.0821,320.42682 C 153.1129,320.46602 153.1447,320.50522 153.1521,320.51362 C 153.1611,320.52262 153.2305,320.60872 153.30906,320.70624 C 153.45967,320.89354 153.67208,321.11306 153.87274,321.28906 C 153.93904,321.34696 153.9958,321.40036 153.99842,321.4068 C 154.00742,321.4236 154.04322,321.4208 154.04322,321.4068 L 154.04414,321.40231 z M 148.30201,320.69428 C 148.27491,320.63078 148.16251,320.45226 148.05374,320.30212 C 148.00984,320.24142 147.94636,320.15347 147.91237,320.10594 C 147.87877,320.05834 147.84137,320.02004 147.83017,320.02004 C 147.81897,320.02004 147.81057,320.02904 147.81057,320.03124 C 147.81057,320.06954 147.88897,320.25122 147.92691,320.30509 C 148.03008,320.45038 148.29031,320.74805 148.31431,320.74805 C 148.32331,320.74805 148.31431,320.72375 148.30221,320.69485 L 148.30201,320.69428 z M 147.48203,319.52882 C 147.48203,319.43642 147.43253,319.32219 147.28529,319.07093 C 147.27129,319.04663 147.17334,318.84254 147.06092,318.60239 C 147.03762,318.55289 147.00492,318.52299 146.98992,318.53799 C 146.98992,318.53799 146.9902,318.59029 146.99892,318.64715 C 147.01292,318.75798 147.10508,318.96694 147.28678,319.29906 C 147.44841,319.59458 147.48333,319.63538 147.48333,319.52875 L 147.48203,319.52882 z M 147.26802,318.61621 C 147.26802,318.57981 147.22692,318.47877 147.14019,318.30528 C 147.09259,318.21018 147.05429,318.12078 147.05429,318.10668 C 147.05429,318.09268 147.03839,318.06278 147.01879,318.04128 L 146.98329,318.00118 L 146.98282,318.05158 C 146.98254,318.08428 146.99592,318.11978 147.01832,318.15068 C 147.03792,318.17678 147.05382,318.20858 147.05382,318.21978 C 147.05382,318.23098 147.07062,318.27668 147.09112,318.32043 C 147.11172,318.36433 147.14062,318.42669 147.15552,318.4589 C 147.17042,318.4906 147.18262,318.5224 147.18262,318.5289 C 147.18262,318.5379 147.19572,318.5616 147.21252,318.5877 C 147.24332,318.6372 147.26852,318.6503 147.26852,318.6157 L 147.26802,318.61621 z M 151.20613,317.91537 C 151.15193,317.80435 151.12673,317.7684 151.11223,317.78269 C 151.11223,317.78269 151.11223,317.80509 151.12623,317.82569 C 151.13653,317.84619 151.15613,317.89479 151.16913,317.93484 C 151.18223,317.97494 151.20743,318.02444 151.22423,318.04651 C 151.28023,318.11751 151.27003,318.04632 151.20653,317.91579 L 151.20613,317.91537 z M 146.98277,317.95367 C 146.98277,317.93967 146.97377,317.91627 146.96317,317.90137 C 146.94827,317.88087 146.94267,317.87987 146.93707,317.89237 C 146.92807,317.91757 146.94917,317.97637 146.96787,317.97637 C 146.97687,317.97637 146.98277,317.96517 146.98277,317.95017 L 146.98277,317.95367 z M 146.90717,317.77701 C 146.90717,317.76581 146.89817,317.76801 146.89817,317.78601 C 146.89752,317.80091 146.89817,317.80931 146.90717,317.80471 C 146.91617,317.79571 146.91617,317.78791 146.90717,317.77761 L 146.90717,317.77701 z M 146.38541,317.71351 C 146.37641,317.68271 146.35741,317.59726 146.34151,317.52275 C 146.32561,317.44805 146.29671,317.32621 146.27801,317.2517 C 146.22291,317.03554 146.18741,316.87868 146.17763,316.80949 C 146.16863,316.77399 146.15613,316.67784 146.14123,316.59548 C 146.03226,315.99361 145.97512,315.38913 145.9726,314.81228 C 145.97176,314.62003 145.9636,314.40182 145.9549,314.32731 C 145.9362,314.174 145.9017,314.02302 145.8998,314.08931 C 145.89933,314.11171 145.8908,314.14251 145.883,314.15841 C 145.8727,314.17801 145.8671,314.33058 145.8681,314.61751 C 145.86866,315.12003 145.8868,315.47989 145.9344,315.9459 C 145.954,316.13741 146.07249,316.80576 146.09266,316.83853 C 146.09266,316.84753 146.10666,316.88243 146.11316,316.91973 C 146.12346,316.97953 146.14306,317.05783 146.23352,317.399 C 146.27462,317.55223 146.34099,317.75036 146.36088,317.77622 C 146.38698,317.80982 146.40198,317.77622 146.38608,317.71272 L 146.38541,317.71351 z M 151.07114,317.63601 C 151.05064,317.60521 151.03474,317.57441 151.03474,317.56601 C 151.03474,317.55701 151.02574,317.55111 151.02074,317.55111 C 151.00584,317.55111 151.02974,317.62301 151.07214,317.71395 C 151.09824,317.76905 151.09924,317.76905 151.10384,317.73075 C 151.10384,317.70645 151.09484,317.67095 151.07214,317.63595 L 151.07114,317.63601 z M 150.46386,317.54361 C 150.46386,317.51931 150.40036,317.35062 150.36466,317.28031 C 150.35066,317.25321 150.33476,317.20751 150.33016,317.17881 C 150.32116,317.15081 150.30866,317.11621 150.29376,317.10321 C 150.26856,317.07991 150.26666,317.07991 150.25736,317.10321 C 150.23966,317.15831 150.29186,317.37128 150.33486,317.42198 C 150.34386,317.43228 150.37036,317.47058 150.39366,317.50788 C 150.43476,317.57228 150.46366,317.58448 150.46366,317.53958 L 150.46386,317.54361 z M 147.68206,315.68609 C 147.68206,315.64499 147.65036,315.34697 147.63916,315.2831 C 147.63016,315.2401 147.61486,315.12764 147.60276,315.03343 C 147.57946,314.85873 147.56256,314.80504 147.53926,314.81989 C 147.50746,314.83949 147.54826,315.32082 147.59056,315.48506 C 147.60266,315.52706 147.61856,315.58637 147.62606,315.61709 C 147.63506,315.64789 147.64376,315.67869 147.64756,315.68529 C 147.65656,315.70019 147.68206,315.70119 147.68206,315.68529 L 147.68206,315.68609 z M 127.3395,311.4885 C 127.3395,311.4795 127.3305,311.4745 127.3246,311.4745 C 127.3156,311.4745 127.3134,311.4835 127.3156,311.4885 C 127.3246,311.4975 127.3268,311.5025 127.3305,311.5025 C 127.3305,311.5025 127.3395,311.4935 127.3395,311.4885 z M 139.14748,310.31007 C 139.13848,310.31007 139.13068,310.30107 139.12038,310.31007 C 139.10918,310.31007 139.11138,310.31907 139.12938,310.31907 C 139.14428,310.31963 139.15268,310.31907 139.14808,310.31007 L 139.14748,310.31007 z M 131.37051,309.99223 C 131.37051,309.98323 131.34341,309.97633 131.31911,309.97353 C 131.26771,309.96453 131.28171,309.98563 131.33401,309.99503 C 131.35361,309.99503 131.37141,310.00403 131.37421,310.00403 C 131.37421,310.00403 131.37421,310.00403 131.37421,309.99373 L 131.37051,309.99223 z M 134.60059,309.92683 C 134.60059,309.92683 134.59159,309.91653 134.58659,309.91193 C 134.57759,309.90293 134.57259,309.91193 134.57259,309.92093 C 134.57259,309.92993 134.58159,309.93583 134.58659,309.93583 C 134.59559,309.93583 134.60059,309.93583 134.60059,309.92683 z M 148.01016,308.71413 C 148.01016,308.69543 147.96906,308.67123 147.95696,308.68333 C 147.95696,308.68333 147.95696,308.70293 147.96726,308.71973 C 147.98406,308.75053 148.01016,308.74773 148.01016,308.71073 L 148.01016,308.71413 z M 147.89606,308.5779 C 147.89606,308.5689 147.88706,308.5639 147.88206,308.5639 C 147.87306,308.5639 147.86806,308.5729 147.86806,308.5779 C 147.86806,308.5869 147.87706,308.5919 147.88206,308.5919 C 147.89106,308.5919 147.89606,308.5829 147.89606,308.5779 z M 136.61357,308.5023 C 136.59487,308.4836 136.57717,308.5023 136.59027,308.52 C 136.59927,308.529 136.60617,308.5312 136.61457,308.529 C 136.62357,308.52 136.62357,308.515 136.61382,308.5047 L 136.61357,308.5023 z M 147.76768,307.97868 C 147.76768,307.96968 147.76768,307.96468 147.75868,307.96468 C 147.75868,307.96468 147.74838,307.97368 147.74378,307.97868 C 147.73478,307.98768 147.74378,307.99268 147.75278,307.99268 C 147.76178,307.99268 147.76768,307.98368 147.76768,307.97868 z M 147.83118,307.74693 C 147.81718,307.70123 147.79198,307.66193 147.80318,307.70303 C 147.80318,307.71983 147.80318,307.73853 147.79418,307.74413 C 147.78208,307.75313 147.78298,307.75723 147.79418,307.76653 C 147.82688,307.78703 147.83718,307.78053 147.82688,307.74693 L 147.83118,307.74693 z M 127.98862,306.19548 C 127.99762,306.18648 127.98862,306.18148 127.97962,306.18148 C 127.97062,306.18148 127.96192,306.19048 127.95632,306.19548 C 127.94732,306.20448 127.95632,306.20948 127.96532,306.20948 C 127.97432,306.20948 127.98402,306.20048 127.98862,306.19548 z M 127.82457,306.18148 C 127.82457,306.17248 127.81557,306.16748 127.81147,306.16748 C 127.80247,306.16748 127.79377,306.17648 127.78907,306.18148 C 127.78007,306.19048 127.78907,306.19548 127.80217,306.19548 C 127.81427,306.19548 127.82457,306.18648 127.82457,306.18148 z M 127.92177,306.14228 C 127.91277,306.11238 127.89097,306.11428 127.88437,306.14228 C 127.88437,306.15538 127.89337,306.16468 127.90307,306.16468 C 127.91797,306.16468 127.92457,306.15568 127.92177,306.13948 L 127.92177,306.14228 z M 146.68001,305.25787 C 146.68901,305.24107 146.62961,305.20367 146.61741,305.21587 C 146.61741,305.21587 146.61741,305.23637 146.62951,305.25227 C 146.64911,305.28307 146.67151,305.28497 146.68081,305.26127 L 146.68001,305.25787 z M 146.52847,305.12193 C 146.50517,305.09863 146.49107,305.12183 146.51357,305.14803 C 146.52667,305.16393 146.53507,305.16573 146.53877,305.15703 C 146.53877,305.14803 146.53877,305.13273 146.52847,305.12433 L 146.52847,305.12193 z M 146.42613,305.06773 C 146.41713,305.05093 146.40653,305.04163 146.40183,305.04623 C 146.40183,305.04623 146.40192,305.06393 146.41213,305.07613 C 146.43823,305.10693 146.44483,305.10323 146.42613,305.06713 L 146.42613,305.06773 z M 146.61222,305.02013 C 146.61222,304.99773 146.58612,304.97623 146.57392,304.98843 C 146.56272,305.00053 146.58292,305.04073 146.59722,305.04073 C 146.60622,305.04073 146.61212,305.03173 146.61212,305.02023 L 146.61222,305.02013 z M 146.31269,305.00613 C 146.31269,305.00613 146.30369,304.99583 146.29869,304.99123 C 146.28969,304.98223 146.28469,304.99123 146.28469,305.00023 C 146.28469,305.00923 146.29369,305.01513 146.29869,305.01513 C 146.30769,305.01513 146.31269,305.01513 146.31269,305.00613 z M 146.46964,304.90548 C 146.45934,304.89338 146.44634,304.88398 146.43974,304.88398 C 146.43074,304.88398 146.43074,304.89298 146.43974,304.90548 C 146.43974,304.91758 146.45744,304.92698 146.46964,304.92698 C 146.48734,304.92698 146.48834,304.92698 146.46964,304.90548 z"
       style="fill:#dcf7fa;fill-opacity:1" />
  </g>
</svg>
