<?xml version="1.0" encoding="UTF-8" standalone="no"?>
<!-- Created with Inkscape (http://www.inkscape.org/) -->
<svg
   xmlns:dc="http://purl.org/dc/elements/1.1/"
   xmlns:cc="http://creativecommons.org/ns#"
   xmlns:rdf="http://www.w3.org/1999/02/22-rdf-syntax-ns#"
   xmlns:svg="http://www.w3.org/2000/svg"
   xmlns="http://www.w3.org/2000/svg"
   xmlns:sodipodi="http://sodipodi.sourceforge.net/DTD/sodipodi-0.dtd"
   xmlns:inkscape="http://www.inkscape.org/namespaces/inkscape"
   id="svg772"
   sodipodi:version="0.32"
   inkscape:version="0.46"
   width="210mm"
   height="297mm"
   sodipodi:docname="time_dark.svg"
   inkscape:output_extension="org.inkscape.output.svg.inkscape">
  <metadata
     id="metadata777">
    <rdf:RDF>
      <cc:Work
         rdf:about="">
        <dc:format>image/svg+xml</dc:format>
        <dc:type
           rdf:resource="http://purl.org/dc/dcmitype/StillImage" />
      </cc:Work>
    </rdf:RDF>
  </metadata>
  <defs
     id="defs775">
    <inkscape:perspective
       sodipodi:type="inkscape:persp3d"
       inkscape:vp_x="0 : 526.18109 : 1"
       inkscape:vp_y="0 : 1000 : 0"
       inkscape:vp_z="744.09448 : 526.18109 : 1"
       inkscape:persp3d-origin="372.04724 : 350.78739 : 1"
       id="perspective779" />
  </defs>
  <sodipodi:namedview
     inkscape:window-height="705"
     inkscape:window-width="641"
     inkscape:pageshadow="2"
     inkscape:pageopacity="0.0"
     guidetolerance="10.0"
     gridtolerance="10.0"
     objecttolerance="10.0"
     borderopacity="1.0"
     bordercolor="#666666"
     pagecolor="#ffffff"
     id="base"
     showgrid="false"
     inkscape:zoom="0.46942014"
     inkscape:cx="372.04724"
     inkscape:cy="526.18109"
     inkscape:window-x="0"
     inkscape:window-y="27"
     inkscape:current-layer="svg772" />
  <g
     id="Time_Dark"
     transform="translate(-103.41599,-733.63946)">
    <rect
       ry="3.4032497"
       rx="3.4032497"
       y="736.02356"
       x="102.16556"
       height="64"
       width="64"
       id="rect3866"
       style="fill:#464e4f;fill-opacity:1;fill-rule:evenodd;stroke:none" />
    <path
       sodipodi:nodetypes="sssssssssscssssssssssssssssccccccccccccsscccscssscsscccccccsssccccccccccccccccccccccccccc"
       inkscape:connector-curvature="0"
       id="path3862"
       d="M 132.74753,792.73375 C 125.43863,792.30026 118.76471,788.71478 114.35944,782.85502 C 109.44471,776.31746 108.09437,767.73826 110.75847,759.97625 C 113.10431,753.14163 118.39694,747.61862 125.13002,744.97921 C 130.6,742.83492 136.65648,742.70574 142.211,744.61491 C 149.42385,747.09408 155.12903,752.81627 157.59382,760.0435 C 158.89768,763.86664 159.24348,767.95319 158.60176,771.95486 C 157.89043,776.39101 155.96751,780.56656 153.04609,784.01881 C 152.14039,785.08908 150.65678,786.52474 149.52602,787.42517 C 144.82537,791.16825 138.7518,793.08987 132.74753,792.73375 L 132.74753,792.73375 z M 136.17378,789.37178 C 140.16851,788.98876 143.86732,787.55227 147.06579,785.14173 C 151.17816,782.04237 154.05705,777.54324 155.13243,772.535 C 155.45774,771.02004 155.59464,769.68303 155.59464,768.02201 C 155.59464,766.73737 155.55214,766.11386 155.38488,764.93809 C 154.88725,761.44247 153.49553,758.08196 151.3593,755.218 C 150.13649,753.57858 148.60864,752.05076 146.96927,750.82793 C 144.10523,748.69168 140.72206,747.28961 137.25451,746.80188 C 136.05869,746.63367 135.44381,746.59187 134.16524,746.59187 C 131.7723,746.59187 129.73221,746.91123 127.52103,747.63199 C 125.65905,748.23893 123.69971,749.19979 122.13133,750.27506 C 119.51904,752.0661 117.39016,754.31731 115.77406,756.99776 C 115.30977,757.76787 114.50245,759.38464 114.22092,760.10826 C 112.2222,765.24581 112.22205,770.81755 114.22092,775.91461 C 114.52983,776.70247 115.28007,778.22326 115.73152,778.97674 C 118.37668,783.39113 122.44179,786.68178 127.29248,788.33517 C 129.1816,788.9791 130.97961,789.3162 133.25599,789.45322 C 133.76429,789.48382 135.51574,789.43492 136.1744,789.37182 L 136.17378,789.37178 z M 133.14956,785.01254 L 133.14956,782.11288 L 134.16524,782.11588 L 135.18092,782.11888 L 135.18092,785.01542 L 135.18092,787.91196 L 134.16524,787.91196 L 133.14956,787.91196 L 133.14956,785.0123 L 133.14956,785.01254 z M 133.64046,770.24267 C 133.08181,770.1011 132.5295,769.71068 132.24255,769.2545 C 131.99405,768.85942 131.9075,768.54948 131.90441,768.04317 C 131.90441,767.56257 131.96241,767.28126 132.13466,766.97894 L 132.21046,766.84573 L 131.86032,766.2595 C 130.82879,764.53252 126.7165,757.57495 126.69647,757.52283 C 126.67947,757.47903 126.92571,757.31292 127.56937,756.93356 C 128.06228,756.64301 128.48813,756.39971 128.51567,756.39289 C 128.55437,756.38289 131.67245,761.59283 133.82292,765.25996 L 134.10167,765.73534 L 134.27267,765.7361 C 134.90473,765.7381 135.67399,766.17006 136.04601,766.73055 L 136.20101,766.96407 L 140.57882,766.96407 L 144.95663,766.96407 L 144.95663,768.06437 L 144.95663,769.16468 L 140.56056,769.16468 L 136.16442,769.16468 L 135.98676,769.39505 C 135.5558,769.95359 134.97039,770.25873 134.27097,770.28931 C 134.02069,770.30021 133.80443,770.28431 133.64039,770.24271 L 133.64046,770.24267 z M 114.40198,768.02201 L 114.40198,767.00634 L 117.27971,767.00634 L 120.15744,767.00634 L 120.15744,768.02201 L 120.15744,769.03768 L 117.27971,769.03768 L 114.40198,769.03768 L 114.40198,768.02201 z M 148.29996,768.02201 L 148.29996,767.00634 L 151.17769,767.00634 L 154.05542,767.00634 L 154.05542,768.02201 L 154.05542,769.03768 L 151.17769,769.03768 L 148.29996,769.03768 L 148.29996,768.02201 z M 133.14956,751.11534 L 133.14956,748.21645 L 134.16524,748.21645 L 135.18092,748.21645 L 135.18092,751.11534 L 135.18092,754.01423 L 134.16524,754.01423 L 133.14956,754.01423 L 133.14956,751.11534 z"
       style="fill:#dcf7fa;fill-opacity:1" />
  </g>
</svg>
